G04*
G04 #@! TF.GenerationSoftware,Altium Limited,CircuitStudio,1.5.2 (30)*
G04*
G04 Layer_Color=20142*
%FSLAX25Y25*%
%MOIN*%
G70*
G01*
G75*
%ADD93R,0.09055X0.07480*%
G04:AMPARAMS|DCode=94|XSize=55.12mil|YSize=137.8mil|CornerRadius=14.76mil|HoleSize=0mil|Usage=FLASHONLY|Rotation=270.000|XOffset=0mil|YOffset=0mil|HoleType=Round|Shape=RoundedRectangle|*
%AMROUNDEDRECTD94*
21,1,0.05512,0.10827,0,0,270.0*
21,1,0.02559,0.13780,0,0,270.0*
1,1,0.02953,-0.05413,-0.01280*
1,1,0.02953,-0.05413,0.01280*
1,1,0.02953,0.05413,0.01280*
1,1,0.02953,0.05413,-0.01280*
%
%ADD94ROUNDEDRECTD94*%
G04:AMPARAMS|DCode=95|XSize=45.28mil|YSize=74.8mil|CornerRadius=12.3mil|HoleSize=0mil|Usage=FLASHONLY|Rotation=270.000|XOffset=0mil|YOffset=0mil|HoleType=Round|Shape=RoundedRectangle|*
%AMROUNDEDRECTD95*
21,1,0.04528,0.05020,0,0,270.0*
21,1,0.02067,0.07480,0,0,270.0*
1,1,0.02461,-0.02510,-0.01034*
1,1,0.02461,-0.02510,0.01034*
1,1,0.02461,0.02510,0.01034*
1,1,0.02461,0.02510,-0.01034*
%
%ADD95ROUNDEDRECTD95*%
G04:AMPARAMS|DCode=96|XSize=45.28mil|YSize=74.8mil|CornerRadius=12.3mil|HoleSize=0mil|Usage=FLASHONLY|Rotation=180.000|XOffset=0mil|YOffset=0mil|HoleType=Round|Shape=RoundedRectangle|*
%AMROUNDEDRECTD96*
21,1,0.04528,0.05020,0,0,180.0*
21,1,0.02067,0.07480,0,0,180.0*
1,1,0.02461,-0.01034,0.02510*
1,1,0.02461,0.01034,0.02510*
1,1,0.02461,0.01034,-0.02510*
1,1,0.02461,-0.01034,-0.02510*
%
%ADD96ROUNDEDRECTD96*%
G04:AMPARAMS|DCode=97|XSize=39.37mil|YSize=35.43mil|CornerRadius=9.84mil|HoleSize=0mil|Usage=FLASHONLY|Rotation=90.000|XOffset=0mil|YOffset=0mil|HoleType=Round|Shape=RoundedRectangle|*
%AMROUNDEDRECTD97*
21,1,0.03937,0.01575,0,0,90.0*
21,1,0.01969,0.03543,0,0,90.0*
1,1,0.01969,0.00787,0.00984*
1,1,0.01969,0.00787,-0.00984*
1,1,0.01969,-0.00787,-0.00984*
1,1,0.01969,-0.00787,0.00984*
%
%ADD97ROUNDEDRECTD97*%
G04:AMPARAMS|DCode=98|XSize=27.56mil|YSize=27.56mil|CornerRadius=7.87mil|HoleSize=0mil|Usage=FLASHONLY|Rotation=0.000|XOffset=0mil|YOffset=0mil|HoleType=Round|Shape=RoundedRectangle|*
%AMROUNDEDRECTD98*
21,1,0.02756,0.01181,0,0,0.0*
21,1,0.01181,0.02756,0,0,0.0*
1,1,0.01575,0.00591,-0.00591*
1,1,0.01575,-0.00591,-0.00591*
1,1,0.01575,-0.00591,0.00591*
1,1,0.01575,0.00591,0.00591*
%
%ADD98ROUNDEDRECTD98*%
G04:AMPARAMS|DCode=99|XSize=27.56mil|YSize=27.56mil|CornerRadius=7.87mil|HoleSize=0mil|Usage=FLASHONLY|Rotation=270.000|XOffset=0mil|YOffset=0mil|HoleType=Round|Shape=RoundedRectangle|*
%AMROUNDEDRECTD99*
21,1,0.02756,0.01181,0,0,270.0*
21,1,0.01181,0.02756,0,0,270.0*
1,1,0.01575,-0.00591,-0.00591*
1,1,0.01575,-0.00591,0.00591*
1,1,0.01575,0.00591,0.00591*
1,1,0.01575,0.00591,-0.00591*
%
%ADD99ROUNDEDRECTD99*%
%ADD100R,0.03543X0.02559*%
G04:AMPARAMS|DCode=101|XSize=33.47mil|YSize=43.31mil|CornerRadius=9.35mil|HoleSize=0mil|Usage=FLASHONLY|Rotation=270.000|XOffset=0mil|YOffset=0mil|HoleType=Round|Shape=RoundedRectangle|*
%AMROUNDEDRECTD101*
21,1,0.03347,0.02461,0,0,270.0*
21,1,0.01476,0.04331,0,0,270.0*
1,1,0.01870,-0.01230,-0.00738*
1,1,0.01870,-0.01230,0.00738*
1,1,0.01870,0.01230,0.00738*
1,1,0.01870,0.01230,-0.00738*
%
%ADD101ROUNDEDRECTD101*%
G04:AMPARAMS|DCode=102|XSize=29.45mil|YSize=25.95mil|CornerRadius=7.47mil|HoleSize=0mil|Usage=FLASHONLY|Rotation=90.000|XOffset=0mil|YOffset=0mil|HoleType=Round|Shape=RoundedRectangle|*
%AMROUNDEDRECTD102*
21,1,0.02945,0.01100,0,0,90.0*
21,1,0.01451,0.02595,0,0,90.0*
1,1,0.01494,0.00550,0.00725*
1,1,0.01494,0.00550,-0.00725*
1,1,0.01494,-0.00550,-0.00725*
1,1,0.01494,-0.00550,0.00725*
%
%ADD102ROUNDEDRECTD102*%
G04:AMPARAMS|DCode=103|XSize=31.5mil|YSize=31.5mil|CornerRadius=8.86mil|HoleSize=0mil|Usage=FLASHONLY|Rotation=90.000|XOffset=0mil|YOffset=0mil|HoleType=Round|Shape=RoundedRectangle|*
%AMROUNDEDRECTD103*
21,1,0.03150,0.01378,0,0,90.0*
21,1,0.01378,0.03150,0,0,90.0*
1,1,0.01772,0.00689,0.00689*
1,1,0.01772,0.00689,-0.00689*
1,1,0.01772,-0.00689,-0.00689*
1,1,0.01772,-0.00689,0.00689*
%
%ADD103ROUNDEDRECTD103*%
G04:AMPARAMS|DCode=104|XSize=36.61mil|YSize=24.41mil|CornerRadius=7.09mil|HoleSize=0mil|Usage=FLASHONLY|Rotation=180.000|XOffset=0mil|YOffset=0mil|HoleType=Round|Shape=RoundedRectangle|*
%AMROUNDEDRECTD104*
21,1,0.03661,0.01024,0,0,180.0*
21,1,0.02244,0.02441,0,0,180.0*
1,1,0.01417,-0.01122,0.00512*
1,1,0.01417,0.01122,0.00512*
1,1,0.01417,0.01122,-0.00512*
1,1,0.01417,-0.01122,-0.00512*
%
%ADD104ROUNDEDRECTD104*%
G04:AMPARAMS|DCode=105|XSize=240.16mil|YSize=47.24mil|CornerRadius=12.8mil|HoleSize=0mil|Usage=FLASHONLY|Rotation=180.000|XOffset=0mil|YOffset=0mil|HoleType=Round|Shape=RoundedRectangle|*
%AMROUNDEDRECTD105*
21,1,0.24016,0.02165,0,0,180.0*
21,1,0.21457,0.04724,0,0,180.0*
1,1,0.02559,-0.10728,0.01083*
1,1,0.02559,0.10728,0.01083*
1,1,0.02559,0.10728,-0.01083*
1,1,0.02559,-0.10728,-0.01083*
%
%ADD105ROUNDEDRECTD105*%
G04:AMPARAMS|DCode=106|XSize=240.16mil|YSize=82.68mil|CornerRadius=21.65mil|HoleSize=0mil|Usage=FLASHONLY|Rotation=180.000|XOffset=0mil|YOffset=0mil|HoleType=Round|Shape=RoundedRectangle|*
%AMROUNDEDRECTD106*
21,1,0.24016,0.03937,0,0,180.0*
21,1,0.19685,0.08268,0,0,180.0*
1,1,0.04331,-0.09843,0.01969*
1,1,0.04331,0.09843,0.01969*
1,1,0.04331,0.09843,-0.01969*
1,1,0.04331,-0.09843,-0.01969*
%
%ADD106ROUNDEDRECTD106*%
G04:AMPARAMS|DCode=107|XSize=35.43mil|YSize=66.93mil|CornerRadius=6.69mil|HoleSize=0mil|Usage=FLASHONLY|Rotation=270.000|XOffset=0mil|YOffset=0mil|HoleType=Round|Shape=RoundedRectangle|*
%AMROUNDEDRECTD107*
21,1,0.03543,0.05354,0,0,270.0*
21,1,0.02205,0.06693,0,0,270.0*
1,1,0.01339,-0.02677,-0.01102*
1,1,0.01339,-0.02677,0.01102*
1,1,0.01339,0.02677,0.01102*
1,1,0.01339,0.02677,-0.01102*
%
%ADD107ROUNDEDRECTD107*%
G04:AMPARAMS|DCode=108|XSize=33.86mil|YSize=66.93mil|CornerRadius=6.46mil|HoleSize=0mil|Usage=FLASHONLY|Rotation=90.000|XOffset=0mil|YOffset=0mil|HoleType=Round|Shape=RoundedRectangle|*
%AMROUNDEDRECTD108*
21,1,0.03386,0.05402,0,0,90.0*
21,1,0.02095,0.06693,0,0,90.0*
1,1,0.01291,0.02701,0.01047*
1,1,0.01291,0.02701,-0.01047*
1,1,0.01291,-0.02701,-0.01047*
1,1,0.01291,-0.02701,0.01047*
%
%ADD108ROUNDEDRECTD108*%
G04:AMPARAMS|DCode=109|XSize=31.5mil|YSize=66.93mil|CornerRadius=6.1mil|HoleSize=0mil|Usage=FLASHONLY|Rotation=90.000|XOffset=0mil|YOffset=0mil|HoleType=Round|Shape=RoundedRectangle|*
%AMROUNDEDRECTD109*
21,1,0.03150,0.05472,0,0,90.0*
21,1,0.01929,0.06693,0,0,90.0*
1,1,0.01221,0.02736,0.00965*
1,1,0.01221,0.02736,-0.00965*
1,1,0.01221,-0.02736,-0.00965*
1,1,0.01221,-0.02736,0.00965*
%
%ADD109ROUNDEDRECTD109*%
%ADD110C,0.04331*%
G04:AMPARAMS|DCode=111|XSize=41.34mil|YSize=61.02mil|CornerRadius=11.32mil|HoleSize=0mil|Usage=FLASHONLY|Rotation=90.000|XOffset=0mil|YOffset=0mil|HoleType=Round|Shape=RoundedRectangle|*
%AMROUNDEDRECTD111*
21,1,0.04134,0.03839,0,0,90.0*
21,1,0.01870,0.06102,0,0,90.0*
1,1,0.02264,0.01919,0.00935*
1,1,0.02264,0.01919,-0.00935*
1,1,0.02264,-0.01919,-0.00935*
1,1,0.02264,-0.01919,0.00935*
%
%ADD111ROUNDEDRECTD111*%
G04:AMPARAMS|DCode=112|XSize=41.34mil|YSize=61.02mil|CornerRadius=11.32mil|HoleSize=0mil|Usage=FLASHONLY|Rotation=0.000|XOffset=0mil|YOffset=0mil|HoleType=Round|Shape=RoundedRectangle|*
%AMROUNDEDRECTD112*
21,1,0.04134,0.03839,0,0,0.0*
21,1,0.01870,0.06102,0,0,0.0*
1,1,0.02264,0.00935,-0.01919*
1,1,0.02264,-0.00935,-0.01919*
1,1,0.02264,-0.00935,0.01919*
1,1,0.02264,0.00935,0.01919*
%
%ADD112ROUNDEDRECTD112*%
%ADD113O,0.03492X0.03374*%
G04:AMPARAMS|DCode=114|XSize=27.56mil|YSize=13.78mil|CornerRadius=4.43mil|HoleSize=0mil|Usage=FLASHONLY|Rotation=45.000|XOffset=0mil|YOffset=0mil|HoleType=Round|Shape=RoundedRectangle|*
%AMROUNDEDRECTD114*
21,1,0.02756,0.00492,0,0,45.0*
21,1,0.01870,0.01378,0,0,45.0*
1,1,0.00886,0.00835,0.00487*
1,1,0.00886,-0.00487,-0.00835*
1,1,0.00886,-0.00835,-0.00487*
1,1,0.00886,0.00487,0.00835*
%
%ADD114ROUNDEDRECTD114*%
G04:AMPARAMS|DCode=115|XSize=27.56mil|YSize=13.78mil|CornerRadius=4.43mil|HoleSize=0mil|Usage=FLASHONLY|Rotation=315.000|XOffset=0mil|YOffset=0mil|HoleType=Round|Shape=RoundedRectangle|*
%AMROUNDEDRECTD115*
21,1,0.02756,0.00492,0,0,315.0*
21,1,0.01870,0.01378,0,0,315.0*
1,1,0.00886,0.00487,-0.00835*
1,1,0.00886,-0.00835,0.00487*
1,1,0.00886,-0.00487,0.00835*
1,1,0.00886,0.00835,-0.00487*
%
%ADD115ROUNDEDRECTD115*%
%ADD116P,0.15590X4X90.0*%
G04:AMPARAMS|DCode=117|XSize=43.31mil|YSize=31.5mil|CornerRadius=8.86mil|HoleSize=0mil|Usage=FLASHONLY|Rotation=90.000|XOffset=0mil|YOffset=0mil|HoleType=Round|Shape=RoundedRectangle|*
%AMROUNDEDRECTD117*
21,1,0.04331,0.01378,0,0,90.0*
21,1,0.02559,0.03150,0,0,90.0*
1,1,0.01772,0.00689,0.01280*
1,1,0.01772,0.00689,-0.01280*
1,1,0.01772,-0.00689,-0.01280*
1,1,0.01772,-0.00689,0.01280*
%
%ADD117ROUNDEDRECTD117*%
G04:AMPARAMS|DCode=118|XSize=30.32mil|YSize=15.75mil|CornerRadius=3.74mil|HoleSize=0mil|Usage=FLASHONLY|Rotation=270.000|XOffset=0mil|YOffset=0mil|HoleType=Round|Shape=RoundedRectangle|*
%AMROUNDEDRECTD118*
21,1,0.03032,0.00827,0,0,270.0*
21,1,0.02284,0.01575,0,0,270.0*
1,1,0.00748,-0.00413,-0.01142*
1,1,0.00748,-0.00413,0.01142*
1,1,0.00748,0.00413,0.01142*
1,1,0.00748,0.00413,-0.01142*
%
%ADD118ROUNDEDRECTD118*%
G04:AMPARAMS|DCode=119|XSize=118.11mil|YSize=216.54mil|CornerRadius=19.1mil|HoleSize=0mil|Usage=FLASHONLY|Rotation=180.000|XOffset=0mil|YOffset=0mil|HoleType=Round|Shape=RoundedRectangle|*
%AMROUNDEDRECTD119*
21,1,0.11811,0.17835,0,0,180.0*
21,1,0.07992,0.21654,0,0,180.0*
1,1,0.03819,-0.03996,0.08917*
1,1,0.03819,0.03996,0.08917*
1,1,0.03819,0.03996,-0.08917*
1,1,0.03819,-0.03996,-0.08917*
%
%ADD119ROUNDEDRECTD119*%
G04:AMPARAMS|DCode=120|XSize=17.72mil|YSize=15.75mil|CornerRadius=0mil|HoleSize=0mil|Usage=FLASHONLY|Rotation=315.000|XOffset=0mil|YOffset=0mil|HoleType=Round|Shape=Rectangle|*
%AMROTATEDRECTD120*
4,1,4,-0.01183,0.00070,-0.00070,0.01183,0.01183,-0.00070,0.00070,-0.01183,-0.01183,0.00070,0.0*
%
%ADD120ROTATEDRECTD120*%

G04:AMPARAMS|DCode=121|XSize=31.5mil|YSize=15.75mil|CornerRadius=0mil|HoleSize=0mil|Usage=FLASHONLY|Rotation=45.000|XOffset=0mil|YOffset=0mil|HoleType=Round|Shape=Rectangle|*
%AMROTATEDRECTD121*
4,1,4,-0.00557,-0.01670,-0.01670,-0.00557,0.00557,0.01670,0.01670,0.00557,-0.00557,-0.01670,0.0*
%
%ADD121ROTATEDRECTD121*%

G04:AMPARAMS|DCode=122|XSize=31.5mil|YSize=15.75mil|CornerRadius=0mil|HoleSize=0mil|Usage=FLASHONLY|Rotation=135.000|XOffset=0mil|YOffset=0mil|HoleType=Round|Shape=Rectangle|*
%AMROTATEDRECTD122*
4,1,4,0.01670,-0.00557,0.00557,-0.01670,-0.01670,0.00557,-0.00557,0.01670,0.01670,-0.00557,0.0*
%
%ADD122ROTATEDRECTD122*%

G04:AMPARAMS|DCode=123|XSize=17.72mil|YSize=15.75mil|CornerRadius=0mil|HoleSize=0mil|Usage=FLASHONLY|Rotation=225.000|XOffset=0mil|YOffset=0mil|HoleType=Round|Shape=Rectangle|*
%AMROTATEDRECTD123*
4,1,4,0.00070,0.01183,0.01183,0.00070,-0.00070,-0.01183,-0.01183,-0.00070,0.00070,0.01183,0.0*
%
%ADD123ROTATEDRECTD123*%

%ADD124R,0.03386X0.09055*%
%ADD125R,0.02165X0.01969*%
%ADD126R,0.04803X0.07165*%
%ADD127C,0.07874*%
%ADD128C,0.06299*%
%ADD129C,0.16142*%
%ADD130O,0.06693X0.04331*%
%ADD131C,0.00394*%
D93*
X-50394Y103543D02*
D03*
D94*
X-35827Y29331D02*
D03*
Y21063D02*
D03*
D95*
X-38976Y-5413D02*
D03*
Y4626D02*
D03*
D96*
X-25098Y28740D02*
D03*
X-15059D02*
D03*
X-123721Y42126D02*
D03*
X-133760D02*
D03*
D97*
X-51182Y10827D02*
D03*
X-54921Y2559D02*
D03*
X-47441D02*
D03*
D98*
X-52658Y-6299D02*
D03*
X-56791D02*
D03*
X-31791Y99213D02*
D03*
X-35925D02*
D03*
X-64272Y-6299D02*
D03*
X-60138D02*
D03*
X-64272Y-1969D02*
D03*
X-60138D02*
D03*
X-14665Y88976D02*
D03*
X-10531D02*
D03*
X-5020Y124016D02*
D03*
X-9154D02*
D03*
X-5020Y119291D02*
D03*
X-9154D02*
D03*
X-22933Y118504D02*
D03*
X-18799D02*
D03*
X-22933Y124016D02*
D03*
X-18799D02*
D03*
X-22933Y129528D02*
D03*
X-18799D02*
D03*
X-77658Y43307D02*
D03*
X-73524D02*
D03*
X-129823Y48425D02*
D03*
X-133957D02*
D03*
X-85532Y37008D02*
D03*
X-81398D02*
D03*
X-68405Y16142D02*
D03*
X-72539D02*
D03*
Y12598D02*
D03*
X-68405D02*
D03*
X-72539Y19685D02*
D03*
X-68405D02*
D03*
X-113484Y117717D02*
D03*
X-109350D02*
D03*
X-94193Y125984D02*
D03*
X-90059D02*
D03*
X-72736Y103150D02*
D03*
X-76870D02*
D03*
Y107087D02*
D03*
X-72736D02*
D03*
X-76870Y110630D02*
D03*
X-72736D02*
D03*
D99*
X-50394Y16437D02*
D03*
Y20571D02*
D03*
X-61811Y105610D02*
D03*
Y101476D02*
D03*
X-58268Y105610D02*
D03*
Y101476D02*
D03*
Y16437D02*
D03*
Y20571D02*
D03*
X-54331Y16437D02*
D03*
Y20571D02*
D03*
X-46457Y16437D02*
D03*
Y20571D02*
D03*
X-23228Y56988D02*
D03*
Y61122D02*
D03*
X-19882Y52953D02*
D03*
Y57087D02*
D03*
X-10630Y104429D02*
D03*
Y100295D02*
D03*
X-14567D02*
D03*
Y104429D02*
D03*
X-10630Y114272D02*
D03*
Y110138D02*
D03*
X-14567D02*
D03*
Y114272D02*
D03*
X-394Y67028D02*
D03*
Y62894D02*
D03*
X-12992Y261122D02*
D03*
Y256988D02*
D03*
X-16535Y261122D02*
D03*
Y256988D02*
D03*
X-0Y174311D02*
D03*
Y178445D02*
D03*
X-3543D02*
D03*
Y174311D02*
D03*
X-9449Y256988D02*
D03*
Y261122D02*
D03*
X-7087Y178445D02*
D03*
Y174311D02*
D03*
X3543Y178445D02*
D03*
Y174311D02*
D03*
X-18898D02*
D03*
Y178445D02*
D03*
X-83858Y16831D02*
D03*
Y20965D02*
D03*
Y8957D02*
D03*
Y13091D02*
D03*
X-78347Y16831D02*
D03*
Y20965D02*
D03*
X-93701Y99902D02*
D03*
Y104035D02*
D03*
X-120866Y118012D02*
D03*
Y122146D02*
D03*
X-116929Y118012D02*
D03*
Y122146D02*
D03*
X-124803Y118012D02*
D03*
Y122146D02*
D03*
D100*
X-46850Y-6398D02*
D03*
Y-1476D02*
D03*
X-60630Y9547D02*
D03*
Y4626D02*
D03*
D101*
X-5906Y88779D02*
D03*
Y94685D02*
D03*
Y109252D02*
D03*
Y115157D02*
D03*
Y99410D02*
D03*
Y105315D02*
D03*
X-165748Y30512D02*
D03*
Y36417D02*
D03*
Y42323D02*
D03*
Y48228D02*
D03*
X-171653Y30512D02*
D03*
Y36417D02*
D03*
X-171260Y42323D02*
D03*
Y48228D02*
D03*
D102*
X-155817Y30167D02*
D03*
X-160716D02*
D03*
X-158268Y38337D02*
D03*
X-155817Y41978D02*
D03*
X-160716D02*
D03*
X-158268Y50148D02*
D03*
D103*
X-34055Y116142D02*
D03*
X-41535D02*
D03*
X-37796Y124016D02*
D03*
D104*
X-28878Y177164D02*
D03*
X-23090Y174606D02*
D03*
Y179724D02*
D03*
D105*
X-43307Y57284D02*
D03*
Y63189D02*
D03*
X-574803D02*
D03*
Y57284D02*
D03*
X-43307Y136024D02*
D03*
Y141929D02*
D03*
X-574803D02*
D03*
Y136024D02*
D03*
X-43307Y214764D02*
D03*
Y220669D02*
D03*
X-574803D02*
D03*
Y214764D02*
D03*
D106*
X-43307Y85433D02*
D03*
X-574803D02*
D03*
X-43307Y164173D02*
D03*
X-574803D02*
D03*
X-43307Y242913D02*
D03*
X-574803D02*
D03*
D107*
X5551Y56102D02*
D03*
Y34449D02*
D03*
D108*
Y39291D02*
D03*
Y51260D02*
D03*
D109*
Y43307D02*
D03*
Y47244D02*
D03*
D110*
X-150787Y46457D02*
D03*
X-151723Y38337D02*
D03*
X-176772Y43307D02*
D03*
X-177165Y31496D02*
D03*
X-12992Y175197D02*
D03*
X9055D02*
D03*
X-9449Y266142D02*
D03*
X-9055Y250394D02*
D03*
X9055Y180709D02*
D03*
X-12992D02*
D03*
X-47244Y29528D02*
D03*
X-49213Y35433D02*
D03*
X-9055Y29134D02*
D03*
X-33858Y106693D02*
D03*
X-66535Y100787D02*
D03*
X-66142Y105905D02*
D03*
X-69291Y-6299D02*
D03*
X-55512Y35433D02*
D03*
X-55905Y-1969D02*
D03*
X-17717Y49213D02*
D03*
X-53543Y29528D02*
D03*
X-59842D02*
D03*
X-61024Y35433D02*
D03*
X-23228Y48819D02*
D03*
X-9449Y55905D02*
D03*
X6693Y66929D02*
D03*
X-1969Y55905D02*
D03*
X-25591Y75590D02*
D03*
X-19685Y100000D02*
D03*
X-12598Y94488D02*
D03*
X-24803Y44094D02*
D03*
X-19685Y111024D02*
D03*
Y105512D02*
D03*
X-22047Y80315D02*
D03*
X-19685Y88976D02*
D03*
Y94488D02*
D03*
X-14173Y118504D02*
D03*
X-27559D02*
D03*
X-14173Y124016D02*
D03*
X-27559D02*
D03*
X-11417Y128740D02*
D03*
X-31496Y128347D02*
D03*
X-114961Y109843D02*
D03*
Y103937D02*
D03*
Y98819D02*
D03*
X-107874D02*
D03*
X-98032Y125984D02*
D03*
X-104331D02*
D03*
X-109843D02*
D03*
X-77953Y48031D02*
D03*
X-79921Y4724D02*
D03*
X-83858Y394D02*
D03*
X-72047Y7480D02*
D03*
X-124409Y48425D02*
D03*
X-77165Y36220D02*
D03*
X-76378Y13386D02*
D03*
X-75197Y24803D02*
D03*
D111*
X-24409Y21555D02*
D03*
Y13878D02*
D03*
X-40945Y107382D02*
D03*
Y99705D02*
D03*
D112*
X-40453Y13780D02*
D03*
X-32776D02*
D03*
X-90059Y42520D02*
D03*
X-82382D02*
D03*
D113*
X-60512Y123366D02*
D03*
Y118366D02*
D03*
X-65512Y123366D02*
D03*
Y118366D02*
D03*
X-70512Y123366D02*
D03*
Y118366D02*
D03*
D114*
X-22942Y67875D02*
D03*
X-21551Y66484D02*
D03*
X-20159Y65092D02*
D03*
X-18767Y63700D02*
D03*
X-17375Y62308D02*
D03*
X-15983Y60916D02*
D03*
X-5404Y71495D02*
D03*
X-6796Y72887D02*
D03*
X-8188Y74278D02*
D03*
X-9580Y75670D02*
D03*
X-10972Y77062D02*
D03*
X-12364Y78454D02*
D03*
D115*
X-15983D02*
D03*
X-17375Y77062D02*
D03*
X-18767Y75670D02*
D03*
X-20159Y74278D02*
D03*
X-21551Y72887D02*
D03*
X-22942Y71495D02*
D03*
X-5404Y67875D02*
D03*
X-6796Y66484D02*
D03*
X-8188Y65092D02*
D03*
X-9580Y63700D02*
D03*
X-10972Y62308D02*
D03*
X-12364Y60916D02*
D03*
D116*
X-14173Y69685D02*
D03*
D117*
X-5906Y50787D02*
D03*
X-9646D02*
D03*
X-2165D02*
D03*
Y41339D02*
D03*
X-5906D02*
D03*
X-9646D02*
D03*
D118*
X-79724Y31260D02*
D03*
X-81693D02*
D03*
X-83661D02*
D03*
X-85630D02*
D03*
Y25433D02*
D03*
X-83661D02*
D03*
X-81693D02*
D03*
X-79724D02*
D03*
D119*
X-92323Y12992D02*
D03*
X-131299D02*
D03*
D120*
X-101716Y119095D02*
D03*
X-107284Y113527D02*
D03*
X-99071Y105315D02*
D03*
X-93504Y110882D02*
D03*
D121*
X-102621Y107194D02*
D03*
X-105405Y109978D02*
D03*
X-95383Y114432D02*
D03*
X-98167Y117216D02*
D03*
X-96775Y115824D02*
D03*
X-104013Y108586D02*
D03*
D122*
X-98167Y107194D02*
D03*
X-95383Y109978D02*
D03*
X-105405Y114432D02*
D03*
X-102621Y117216D02*
D03*
X-96775Y108586D02*
D03*
X-104013Y115824D02*
D03*
D123*
X-99071Y119095D02*
D03*
X-107284Y110882D02*
D03*
X-101716Y105315D02*
D03*
X-93504Y113527D02*
D03*
D124*
X-50236Y300590D02*
D03*
Y286024D02*
D03*
X-55236Y300590D02*
D03*
Y286024D02*
D03*
X-60236Y300590D02*
D03*
Y286024D02*
D03*
X-65236Y300590D02*
D03*
Y286024D02*
D03*
X-70236Y300590D02*
D03*
Y286024D02*
D03*
D125*
X-54035Y100945D02*
D03*
Y103543D02*
D03*
Y106142D02*
D03*
X-46752D02*
D03*
Y103543D02*
D03*
Y100945D02*
D03*
D126*
X-50394Y103543D02*
D03*
D127*
X-11811Y11811D02*
D03*
X-606299Y291339D02*
D03*
Y11811D02*
D03*
D128*
X3937Y240158D02*
D03*
Y250000D02*
D03*
Y259842D02*
D03*
X-20669Y161417D02*
D03*
Y141732D02*
D03*
X3937Y161417D02*
D03*
Y151575D02*
D03*
Y141732D02*
D03*
D129*
X-456693Y299213D02*
D03*
X-161417D02*
D03*
Y3937D02*
D03*
X-456693D02*
D03*
X-618110Y303150D02*
D03*
X0D02*
D03*
Y0D02*
D03*
X-618110D02*
D03*
D130*
X6260Y28268D02*
D03*
Y62283D02*
D03*
X21220Y28268D02*
D03*
Y62283D02*
D03*
D131*
X-55512Y120866D02*
D03*
X-75512Y116866D02*
D03*
Y124866D02*
D03*
M02*
