G04*
G04 #@! TF.GenerationSoftware,Altium Limited,CircuitStudio,1.5.2 (30)*
G04*
G04 Layer_Color=15065295*
%FSLAX25Y25*%
%MOIN*%
G70*
G01*
G75*
%ADD45C,0.00787*%
%ADD46C,0.00591*%
%ADD55C,0.01575*%
%ADD56C,0.00394*%
%ADD57C,0.01000*%
%ADD58C,0.01772*%
%ADD59C,0.00984*%
D45*
X-47244Y90945D02*
X-45670D01*
X-46457D01*
Y95668D01*
X-47244Y94881D01*
X-40160Y90945D02*
X-43308D01*
X-40160Y94094D01*
Y94881D01*
X-40947Y95668D01*
X-42521D01*
X-43308Y94881D01*
X-38585Y95668D02*
Y92519D01*
X-37011Y90945D01*
X-35437Y92519D01*
Y95668D01*
X-44094Y72046D02*
Y67323D01*
X-42520Y68897D01*
X-40946Y67323D01*
Y72046D01*
X-46063Y52754D02*
Y48031D01*
X-44489Y49606D01*
X-42914Y48031D01*
Y52754D01*
X-41340D02*
Y48031D01*
X-39766Y49606D01*
X-38192Y48031D01*
Y52754D01*
X-579921D02*
Y48031D01*
X-578347Y49606D01*
X-576773Y48031D01*
Y52754D01*
X-575198D02*
Y48031D01*
X-573624Y49606D01*
X-572050Y48031D01*
Y52754D01*
X-577953Y72046D02*
Y67323D01*
X-576378Y68897D01*
X-574804Y67323D01*
Y72046D01*
X-581890Y90945D02*
X-580315D01*
X-581103D01*
Y95668D01*
X-581890Y94881D01*
X-574805Y90945D02*
X-577954D01*
X-574805Y94094D01*
Y94881D01*
X-575593Y95668D01*
X-577167D01*
X-577954Y94881D01*
X-573231Y95668D02*
Y92519D01*
X-571657Y90945D01*
X-570083Y92519D01*
Y95668D01*
X-47244Y169685D02*
X-45670D01*
X-46457D01*
Y174408D01*
X-47244Y173621D01*
X-40160Y169685D02*
X-43308D01*
X-40160Y172834D01*
Y173621D01*
X-40947Y174408D01*
X-42521D01*
X-43308Y173621D01*
X-38585Y174408D02*
Y171259D01*
X-37011Y169685D01*
X-35437Y171259D01*
Y174408D01*
X-44094Y150786D02*
Y146063D01*
X-42520Y147637D01*
X-40946Y146063D01*
Y150786D01*
X-46063Y131494D02*
Y126772D01*
X-44489Y128346D01*
X-42914Y126772D01*
Y131494D01*
X-41340D02*
Y126772D01*
X-39766Y128346D01*
X-38192Y126772D01*
Y131494D01*
X-579921D02*
Y126772D01*
X-578347Y128346D01*
X-576773Y126772D01*
Y131494D01*
X-575198D02*
Y126772D01*
X-573624Y128346D01*
X-572050Y126772D01*
Y131494D01*
X-577953Y150786D02*
Y146063D01*
X-576378Y147637D01*
X-574804Y146063D01*
Y150786D01*
X-581890Y169685D02*
X-580315D01*
X-581103D01*
Y174408D01*
X-581890Y173621D01*
X-574805Y169685D02*
X-577954D01*
X-574805Y172834D01*
Y173621D01*
X-575593Y174408D01*
X-577167D01*
X-577954Y173621D01*
X-573231Y174408D02*
Y171259D01*
X-571657Y169685D01*
X-570083Y171259D01*
Y174408D01*
X-47244Y248425D02*
X-45670D01*
X-46457D01*
Y253148D01*
X-47244Y252361D01*
X-40160Y248425D02*
X-43308D01*
X-40160Y251574D01*
Y252361D01*
X-40947Y253148D01*
X-42521D01*
X-43308Y252361D01*
X-38585Y253148D02*
Y249999D01*
X-37011Y248425D01*
X-35437Y249999D01*
Y253148D01*
X-44094Y229526D02*
Y224803D01*
X-42520Y226377D01*
X-40946Y224803D01*
Y229526D01*
X-46063Y210235D02*
Y205512D01*
X-44489Y207086D01*
X-42914Y205512D01*
Y210235D01*
X-41340D02*
Y205512D01*
X-39766Y207086D01*
X-38192Y205512D01*
Y210235D01*
X-579921D02*
Y205512D01*
X-578347Y207086D01*
X-576773Y205512D01*
Y210235D01*
X-575198D02*
Y205512D01*
X-573624Y207086D01*
X-572050Y205512D01*
Y210235D01*
X-577953Y229526D02*
Y224803D01*
X-576378Y226377D01*
X-574804Y224803D01*
Y229526D01*
X-581890Y248425D02*
X-580315D01*
X-581103D01*
Y253148D01*
X-581890Y252361D01*
X-574805Y248425D02*
X-577954D01*
X-574805Y251574D01*
Y252361D01*
X-575593Y253148D01*
X-577167D01*
X-577954Y252361D01*
X-573231Y253148D02*
Y249999D01*
X-571657Y248425D01*
X-570083Y249999D01*
Y253148D01*
D46*
X-6693Y92126D02*
X-5906Y91339D01*
X-5118Y92126D01*
X-6693D02*
X-5118D01*
X-6693Y112598D02*
X-5906Y111811D01*
X-5118Y112598D01*
X-6693D02*
X-5118D01*
X-6693Y102756D02*
X-5906Y101969D01*
X-5118Y102756D01*
X-6693D02*
X-5118D01*
X-4724Y269291D02*
X21654D01*
X-4724Y230709D02*
X21654D01*
X-4724D02*
Y269291D01*
X-29134Y132283D02*
Y170866D01*
Y132283D02*
X21654D01*
X-29134Y170866D02*
X21654D01*
X10590Y63465D02*
X16890D01*
X10590Y27087D02*
X16890D01*
X-52913Y114173D02*
Y118504D01*
X-73386Y114173D02*
X-52913D01*
X-78110Y118898D02*
Y122835D01*
X-73386Y127559D02*
X-52913D01*
Y123228D02*
Y127559D01*
X-56850D02*
X-52913Y124803D01*
X-54213Y108071D02*
X-46535D01*
X-54213Y99016D02*
X-46535D01*
X-102054Y120982D02*
X-100384Y122652D01*
X-98714Y120982D01*
X-110841Y112215D02*
X-109171Y113885D01*
X-110841Y112215D02*
X-109171Y110544D01*
X-102074Y103427D02*
X-100403Y101757D01*
X-98733Y103427D01*
X-91616Y110525D02*
X-89946Y112195D01*
X-91616Y113865D02*
X-89946Y112195D01*
X-50394Y90551D02*
Y93307D01*
Y52362D02*
Y53937D01*
X-567717Y52362D02*
Y53937D01*
Y66535D02*
Y80315D01*
Y90551D02*
Y93307D01*
Y52362D02*
X-50394D01*
X-567717Y93307D02*
X-50394D01*
X-567717Y72835D02*
Y74803D01*
Y72835D02*
X-565748D01*
X-564961Y68898D02*
X-541339Y92520D01*
X-557087Y53150D02*
X-517717Y92520D01*
X-533465Y53150D02*
X-494095Y92520D01*
X-509842Y53150D02*
X-470472Y92520D01*
X-486221Y53150D02*
X-446850Y92520D01*
X-462598Y53150D02*
X-423228Y92520D01*
X-438976Y53150D02*
X-399606Y92520D01*
X-415354Y53150D02*
X-375984Y92520D01*
X-391732Y53150D02*
X-352362Y92520D01*
X-250000Y53150D02*
X-210630Y92520D01*
X-273622Y53150D02*
X-234252Y92520D01*
X-297244Y53150D02*
X-257874Y92520D01*
X-320866Y53150D02*
X-281496Y92520D01*
X-344488Y53150D02*
X-305118Y92520D01*
X-368110Y53150D02*
X-328740Y92520D01*
X-108268Y53150D02*
X-68898Y92520D01*
X-131890Y53150D02*
X-92520Y92520D01*
X-155512Y53150D02*
X-116142Y92520D01*
X-179134Y53150D02*
X-139764Y92520D01*
X-202756Y53150D02*
X-163386Y92520D01*
X-226378Y53150D02*
X-187008Y92520D01*
X-84646Y53150D02*
X-57087Y80709D01*
X-50394Y66535D02*
Y80315D01*
Y145276D02*
Y159055D01*
X-84646Y131890D02*
X-57087Y159449D01*
X-226378Y131890D02*
X-187008Y171260D01*
X-202756Y131890D02*
X-163386Y171260D01*
X-179134Y131890D02*
X-139764Y171260D01*
X-155512Y131890D02*
X-116142Y171260D01*
X-131890Y131890D02*
X-92520Y171260D01*
X-108268Y131890D02*
X-68898Y171260D01*
X-368110Y131890D02*
X-328740Y171260D01*
X-344488Y131890D02*
X-305118Y171260D01*
X-320866Y131890D02*
X-281496Y171260D01*
X-297244Y131890D02*
X-257874Y171260D01*
X-273622Y131890D02*
X-234252Y171260D01*
X-250000Y131890D02*
X-210630Y171260D01*
X-391732Y131890D02*
X-352362Y171260D01*
X-415354Y131890D02*
X-375984Y171260D01*
X-438976Y131890D02*
X-399606Y171260D01*
X-462598Y131890D02*
X-423228Y171260D01*
X-486221Y131890D02*
X-446850Y171260D01*
X-509842Y131890D02*
X-470472Y171260D01*
X-533465Y131890D02*
X-494095Y171260D01*
X-557087Y131890D02*
X-517717Y171260D01*
X-564961Y147638D02*
X-541339Y171260D01*
X-567717Y151575D02*
X-565748D01*
X-567717D02*
Y153543D01*
Y172047D02*
X-50394D01*
X-567717Y131102D02*
X-50394D01*
X-567717Y169291D02*
Y172047D01*
Y145276D02*
Y159055D01*
Y131102D02*
Y132677D01*
X-50394Y131102D02*
Y132677D01*
Y169291D02*
Y172047D01*
Y248031D02*
Y250787D01*
Y209842D02*
Y211417D01*
X-567717Y209842D02*
Y211417D01*
Y224016D02*
Y237795D01*
Y248031D02*
Y250787D01*
Y209842D02*
X-50394D01*
X-567717Y250787D02*
X-50394D01*
X-567717Y230315D02*
Y232283D01*
Y230315D02*
X-565748D01*
X-564961Y226378D02*
X-541339Y250000D01*
X-557087Y210630D02*
X-517717Y250000D01*
X-533465Y210630D02*
X-494095Y250000D01*
X-509842Y210630D02*
X-470472Y250000D01*
X-486221Y210630D02*
X-446850Y250000D01*
X-462598Y210630D02*
X-423228Y250000D01*
X-438976Y210630D02*
X-399606Y250000D01*
X-415354Y210630D02*
X-375984Y250000D01*
X-391732Y210630D02*
X-352362Y250000D01*
X-250000Y210630D02*
X-210630Y250000D01*
X-273622Y210630D02*
X-234252Y250000D01*
X-297244Y210630D02*
X-257874Y250000D01*
X-320866Y210630D02*
X-281496Y250000D01*
X-344488Y210630D02*
X-305118Y250000D01*
X-368110Y210630D02*
X-328740Y250000D01*
X-108268Y210630D02*
X-68898Y250000D01*
X-131890Y210630D02*
X-92520Y250000D01*
X-155512Y210630D02*
X-116142Y250000D01*
X-179134Y210630D02*
X-139764Y250000D01*
X-202756Y210630D02*
X-163386Y250000D01*
X-226378Y210630D02*
X-187008Y250000D01*
X-84646Y210630D02*
X-57087Y238189D01*
X-50394Y224016D02*
Y237795D01*
X-44094Y-7480D02*
Y-394D01*
X-49606Y-8661D02*
Y-394D01*
Y-8661D02*
X-48031D01*
X-59449Y11811D02*
X-57874D01*
Y3543D02*
Y11811D01*
X-63386Y3543D02*
Y10630D01*
D55*
X-45276Y97638D02*
D03*
D56*
X-42126Y24409D02*
Y25984D01*
X-29528Y24409D02*
Y25984D01*
X-35433Y-2559D02*
Y1772D01*
X-42520Y-2559D02*
Y1772D01*
X-22244Y25197D02*
X-17913D01*
X-22244Y32283D02*
X-17913D01*
X-56890Y5118D02*
Y10236D01*
X-53937D01*
X-48425D02*
X-45472D01*
Y5118D02*
Y10236D01*
X-52362Y3150D02*
X-50197D01*
X-54921Y-4921D02*
X-54528D01*
X-54921Y-7677D02*
X-54528D01*
X-49016Y18307D02*
Y18701D01*
X-51772Y18307D02*
Y18701D01*
X-34055Y100591D02*
X-33661D01*
X-34055Y97835D02*
X-33661D01*
X-63189Y103347D02*
Y103740D01*
X-60433Y103347D02*
Y103740D01*
X-62402Y-7677D02*
X-62008D01*
X-62402Y-4921D02*
X-62008D01*
X-62402Y-591D02*
X-62008D01*
X-62402Y-3347D02*
X-62008D01*
X-56890Y103347D02*
Y103740D01*
X-59646Y103347D02*
Y103740D01*
X-56890Y18307D02*
Y18701D01*
X-59646Y18307D02*
Y18701D01*
X-52953Y18307D02*
Y18701D01*
X-55709Y18307D02*
Y18701D01*
X-45079Y18307D02*
Y18701D01*
X-47835Y18307D02*
Y18701D01*
X-24606Y58858D02*
Y59252D01*
X-21850Y58858D02*
Y59252D01*
X-21260Y54823D02*
Y55216D01*
X-18504Y54823D02*
Y55216D01*
X-4134Y91339D02*
Y92323D01*
X-7677Y91142D02*
Y92126D01*
X-4134Y111811D02*
Y112795D01*
X-7677Y111614D02*
Y112598D01*
X-4134Y101969D02*
Y102953D01*
X-7677Y101772D02*
Y102756D01*
X-12008Y102165D02*
Y102559D01*
X-9252Y102165D02*
Y102559D01*
X-13189Y102165D02*
Y102559D01*
X-15945Y102165D02*
Y102559D01*
X-12008Y112008D02*
Y112402D01*
X-9252Y112008D02*
Y112402D01*
X-13189Y112008D02*
Y112402D01*
X-15945Y112008D02*
Y112402D01*
X-1772Y64764D02*
Y65158D01*
X984Y64764D02*
Y65158D01*
X-12795Y87598D02*
X-12402D01*
X-12795Y90354D02*
X-12402D01*
X-7283Y125394D02*
X-6890D01*
X-7283Y122638D02*
X-6890D01*
X-7283Y120669D02*
X-6890D01*
X-7283Y117913D02*
X-6890D01*
X-21063Y117126D02*
X-20669D01*
X-21063Y119882D02*
X-20669D01*
X-21063Y122638D02*
X-20669D01*
X-21063Y125394D02*
X-20669D01*
X-21063Y128150D02*
X-20669D01*
X-21063Y130905D02*
X-20669D01*
X-163779Y32874D02*
Y34055D01*
X-167717Y32874D02*
Y34055D01*
X-163779Y44685D02*
Y45866D01*
X-167717Y44685D02*
Y45866D01*
X-156299Y36713D02*
X-154331D01*
Y32283D02*
Y36713D01*
X-162205Y32283D02*
Y36713D01*
X-160236D01*
X-158858Y31693D02*
X-157677D01*
X-156299Y48524D02*
X-154331D01*
Y44094D02*
Y48524D01*
X-162205Y44094D02*
Y48524D01*
X-160236D01*
X-158858Y43504D02*
X-157677D01*
X-169685Y32874D02*
Y34055D01*
X-173622Y32874D02*
Y34055D01*
X-169291Y44685D02*
Y45866D01*
X-173228Y44685D02*
Y45866D01*
X-38976Y116732D02*
X-36614D01*
X-43504Y118307D02*
Y123425D01*
X-40354D01*
X-35236D02*
X-32087D01*
Y118307D02*
Y123425D01*
X-14370Y258858D02*
Y259252D01*
X-11614Y258858D02*
Y259252D01*
X-17913Y258858D02*
Y259252D01*
X-15157Y258858D02*
Y259252D01*
X1378Y176181D02*
Y176575D01*
X-1378Y176181D02*
Y176575D01*
X-4921Y176181D02*
Y176575D01*
X-2165Y176181D02*
Y176575D01*
X-8071Y258858D02*
Y259252D01*
X-10827Y258858D02*
Y259252D01*
X-8465Y176181D02*
Y176575D01*
X-5709Y176181D02*
Y176575D01*
X2165Y176181D02*
Y176575D01*
X4921Y176181D02*
Y176575D01*
X-17520Y176181D02*
Y176575D01*
X-20276Y176181D02*
Y176575D01*
X-23425D02*
Y177756D01*
X-28445Y181101D02*
X-25394D01*
X-28445Y179134D02*
Y181101D01*
Y173227D02*
Y175197D01*
Y173227D02*
X-25394D01*
X-82480Y18701D02*
Y19094D01*
X-85236Y18701D02*
Y19094D01*
X-75787Y41929D02*
X-75394D01*
X-75787Y44685D02*
X-75394D01*
X-85236Y10827D02*
Y11220D01*
X-82480Y10827D02*
Y11220D01*
X-132087Y49803D02*
X-131693D01*
X-132087Y47047D02*
X-131693D01*
X-83661Y38386D02*
X-83268D01*
X-83661Y35630D02*
X-83268D01*
X-70669Y17520D02*
X-70276D01*
X-70669Y14764D02*
X-70276D01*
X-70669Y13976D02*
X-70276D01*
X-70669Y11220D02*
X-70276D01*
X-79724Y18701D02*
Y19094D01*
X-76968Y18701D02*
Y19094D01*
X-130905Y38583D02*
X-126575D01*
X-130905Y45669D02*
X-126575D01*
X-70669Y18307D02*
X-70276D01*
X-70669Y21063D02*
X-70276D01*
X-111614Y119095D02*
X-111221D01*
X-111614Y116339D02*
X-111221D01*
X-95079Y101772D02*
Y102165D01*
X-92323Y101772D02*
Y102165D01*
X-119488Y119882D02*
Y120276D01*
X-122244Y119882D02*
Y120276D01*
X-118307Y119882D02*
Y120276D01*
X-115551Y119882D02*
Y120276D01*
X-92323Y124606D02*
X-91929D01*
X-92323Y127362D02*
X-91929D01*
X-75000Y104528D02*
X-74606D01*
X-75000Y101772D02*
X-74606D01*
X-75000Y105709D02*
X-74606D01*
X-75000Y108465D02*
X-74606D01*
X-75000Y109252D02*
X-74606D01*
X-75000Y112008D02*
X-74606D01*
X-123425Y119882D02*
Y120276D01*
X-126181Y119882D02*
Y120276D01*
X-26870Y16535D02*
Y18898D01*
X-21949Y16535D02*
Y18898D01*
X-37795Y11319D02*
X-35433D01*
X-37795Y16240D02*
X-35433D01*
X-43406Y102362D02*
Y104724D01*
X-38484Y102362D02*
Y104724D01*
X-87402Y40059D02*
X-85039D01*
X-87402Y44980D02*
X-85039D01*
X-26422Y69685D02*
X-25030Y68293D01*
X-26422Y69685D02*
X-25030Y71077D01*
X-15565Y80542D02*
X-14173Y81934D01*
X-12781Y80542D01*
X-3316Y71077D02*
X-1924Y69685D01*
X-3316Y68293D02*
X-1924Y69685D01*
X-15565Y58828D02*
X-14173Y57436D01*
X-12781Y58828D01*
X-11811Y43504D02*
Y48622D01*
X0Y43504D02*
Y48622D01*
X-78307Y25787D02*
Y30906D01*
X-87047Y25866D02*
Y30984D01*
X-135827Y-11024D02*
X-87795D01*
X-135827Y37008D02*
X-87795D01*
Y-11024D02*
Y1181D01*
X-135827Y-11024D02*
Y1181D01*
Y24803D02*
Y37008D01*
X-87795Y24803D02*
Y37008D01*
D57*
X-47244Y296457D02*
Y306299D01*
X-73228Y280315D02*
X-48425D01*
X-72236Y306299D02*
X-47244D01*
D58*
X-356299Y79130D02*
Y67323D01*
X-348428D01*
X-336620Y79130D02*
X-344492D01*
Y67323D01*
X-336620D01*
X-344492Y73226D02*
X-340556D01*
X-332685Y79130D02*
Y67323D01*
X-326781D01*
X-324813Y69291D01*
Y77162D01*
X-326781Y79130D01*
X-332685D01*
X-301199Y77162D02*
X-303167Y79130D01*
X-307102D01*
X-309070Y77162D01*
Y75194D01*
X-307102Y73226D01*
X-303167D01*
X-301199Y71259D01*
Y69291D01*
X-303167Y67323D01*
X-307102D01*
X-309070Y69291D01*
X-295295Y77162D02*
Y75194D01*
X-297263D01*
X-293327D01*
X-295295D01*
Y69291D01*
X-293327Y67323D01*
X-287424Y75194D02*
Y67323D01*
Y71259D01*
X-285456Y73226D01*
X-283488Y75194D01*
X-281520D01*
X-275617Y67323D02*
X-271681D01*
X-273649D01*
Y75194D01*
X-275617D01*
X-265777Y63387D02*
Y75194D01*
X-259874D01*
X-257906Y73226D01*
Y69291D01*
X-259874Y67323D01*
X-265777D01*
X-356299Y157870D02*
Y146063D01*
X-348428D01*
X-336620Y157870D02*
X-344492D01*
Y146063D01*
X-336620D01*
X-344492Y151967D02*
X-340556D01*
X-332685Y157870D02*
Y146063D01*
X-326781D01*
X-324813Y148031D01*
Y155902D01*
X-326781Y157870D01*
X-332685D01*
X-301199Y155902D02*
X-303167Y157870D01*
X-307102D01*
X-309070Y155902D01*
Y153935D01*
X-307102Y151967D01*
X-303167D01*
X-301199Y149999D01*
Y148031D01*
X-303167Y146063D01*
X-307102D01*
X-309070Y148031D01*
X-295295Y155902D02*
Y153935D01*
X-297263D01*
X-293327D01*
X-295295D01*
Y148031D01*
X-293327Y146063D01*
X-287424Y153935D02*
Y146063D01*
Y149999D01*
X-285456Y151967D01*
X-283488Y153935D01*
X-281520D01*
X-275617Y146063D02*
X-271681D01*
X-273649D01*
Y153935D01*
X-275617D01*
X-265777Y142127D02*
Y153935D01*
X-259874D01*
X-257906Y151967D01*
Y148031D01*
X-259874Y146063D01*
X-265777D01*
X-356299Y236610D02*
Y224803D01*
X-348428D01*
X-336620Y236610D02*
X-344492D01*
Y224803D01*
X-336620D01*
X-344492Y230707D02*
X-340556D01*
X-332685Y236610D02*
Y224803D01*
X-326781D01*
X-324813Y226771D01*
Y234643D01*
X-326781Y236610D01*
X-332685D01*
X-301199Y234643D02*
X-303167Y236610D01*
X-307102D01*
X-309070Y234643D01*
Y232675D01*
X-307102Y230707D01*
X-303167D01*
X-301199Y228739D01*
Y226771D01*
X-303167Y224803D01*
X-307102D01*
X-309070Y226771D01*
X-295295Y234643D02*
Y232675D01*
X-297263D01*
X-293327D01*
X-295295D01*
Y226771D01*
X-293327Y224803D01*
X-287424Y232675D02*
Y224803D01*
Y228739D01*
X-285456Y230707D01*
X-283488Y232675D01*
X-281520D01*
X-275617Y224803D02*
X-271681D01*
X-273649D01*
Y232675D01*
X-275617D01*
X-265777Y220867D02*
Y232675D01*
X-259874D01*
X-257906Y230707D01*
Y226771D01*
X-259874Y224803D01*
X-265777D01*
D59*
X-1969Y109449D02*
Y113384D01*
X-1Y115352D01*
X1967Y113384D01*
Y109449D01*
Y112401D01*
X-1969D01*
X3935Y115352D02*
X7871D01*
X5903D01*
Y109449D01*
X9839Y115352D02*
X13774D01*
X11807D01*
Y109449D01*
X-1969Y105116D02*
Y100197D01*
X-985Y99213D01*
X983D01*
X1967Y100197D01*
Y105116D01*
X3935Y99213D02*
Y105116D01*
X6887D01*
X7871Y104132D01*
Y102164D01*
X6887Y101181D01*
X3935D01*
X9839Y105116D02*
Y99213D01*
X12790D01*
X13774Y100197D01*
Y104132D01*
X12790Y105116D01*
X9839D01*
X1967Y94486D02*
X-1969D01*
Y88583D01*
X1967D01*
X-1969Y91535D02*
X-1D01*
X3935Y88583D02*
Y94486D01*
X6887D01*
X7871Y93502D01*
Y91535D01*
X6887Y90551D01*
X3935D01*
X5903D02*
X7871Y88583D01*
X9839D02*
Y94486D01*
X12790D01*
X13774Y93502D01*
Y91535D01*
X12790Y90551D01*
X9839D01*
X11807D02*
X13774Y88583D01*
M02*
