G04*
G04 #@! TF.GenerationSoftware,Altium Limited,CircuitStudio,1.5.2 (30)*
G04*
G04 Layer_Color=8150272*
%FSLAX25Y25*%
%MOIN*%
G70*
G01*
G75*
%ADD56C,0.00394*%
%ADD127C,0.07874*%
%ADD128C,0.06299*%
%ADD129C,0.16142*%
%ADD130O,0.06693X0.04331*%
%ADD131C,0.00394*%
G36*
X-65264Y-9904D02*
Y-9908D01*
X-65277Y-9881D01*
X-65264Y-9904D01*
D02*
G37*
G36*
X-52318Y4377D02*
X-52291D01*
X-52236Y4363D01*
X-52154Y4350D01*
X-52045Y4322D01*
X-52018D01*
X-51963Y4309D01*
X-51867Y4295D01*
X-51772Y4268D01*
X-51758D01*
X-51717Y4254D01*
X-51662Y4240D01*
X-51580Y4227D01*
X-51485Y4213D01*
X-51375Y4186D01*
X-51143Y4145D01*
X-51088D01*
X-51033Y4131D01*
X-50951Y4117D01*
X-50869Y4104D01*
X-50760Y4090D01*
X-50541Y4049D01*
X-50418D01*
X-50350Y4035D01*
X-50295D01*
X-50241Y4022D01*
X-50172Y4008D01*
X-50159D01*
X-50131Y3994D01*
X-50049Y3981D01*
X-49940D01*
Y3967D01*
X-49913Y3953D01*
X-49885D01*
Y3943D01*
X-49899Y3940D01*
X-49885D01*
Y3943D01*
X-49844Y3953D01*
Y3940D01*
X-49817Y3926D01*
X-49748Y3871D01*
X-49735D01*
X-49721Y3858D01*
X-49639Y3816D01*
X-49612Y3803D01*
X-49557Y3748D01*
X-49475Y3666D01*
X-49393Y3543D01*
Y3529D01*
X-49379Y3516D01*
X-49352Y3434D01*
X-49325Y3311D01*
X-49338Y3242D01*
X-49352Y3174D01*
Y3147D01*
Y3078D01*
X-49366Y3051D01*
X-49407Y3010D01*
X-49543Y2682D01*
X-49557Y2668D01*
X-49598Y2614D01*
X-49666Y2545D01*
X-49762Y2450D01*
X-49858Y2327D01*
X-49967Y2190D01*
X-50090Y2039D01*
X-50200Y1875D01*
X-50213Y1862D01*
X-50254Y1807D01*
X-50309Y1711D01*
X-50405Y1616D01*
X-50500Y1493D01*
X-50610Y1356D01*
X-50883Y1069D01*
X-50897Y1055D01*
X-50910Y1041D01*
X-50992Y973D01*
X-51115Y864D01*
X-51266Y741D01*
X-51279D01*
X-51307Y713D01*
X-51348Y700D01*
X-51402Y672D01*
X-51553Y618D01*
X-51635Y604D01*
X-51731Y590D01*
X-51826D01*
X-51908Y604D01*
X-52004Y631D01*
X-52031Y645D01*
X-52086Y672D01*
X-52168Y713D01*
X-52264Y768D01*
X-52291Y782D01*
X-52346Y795D01*
X-52414Y836D01*
X-52496Y864D01*
X-52523Y878D01*
X-52578Y905D01*
X-52646Y946D01*
X-52728Y1001D01*
X-52742Y1014D01*
X-52797Y1055D01*
X-52865Y1123D01*
X-52934Y1192D01*
X-52947Y1206D01*
X-53002Y1247D01*
X-53070Y1315D01*
X-53139Y1383D01*
X-53152Y1397D01*
X-53180Y1424D01*
X-53275Y1506D01*
X-53289Y1520D01*
X-53316Y1547D01*
X-53398Y1643D01*
X-53412Y1657D01*
X-53426Y1670D01*
X-53467Y1711D01*
X-53480Y1725D01*
X-53494Y1780D01*
Y1793D01*
X-53508Y1848D01*
X-53494Y1916D01*
X-53467Y2012D01*
Y2026D01*
Y2039D01*
X-53439Y2094D01*
X-53426Y2176D01*
X-53398Y2258D01*
Y2272D01*
X-53371Y2327D01*
X-53357Y2381D01*
X-53344Y2463D01*
Y2477D01*
Y2531D01*
X-53330Y2600D01*
X-53303Y2668D01*
Y2682D01*
X-53289Y2696D01*
X-53262Y2778D01*
X-53234Y2887D01*
X-53180Y2996D01*
Y3010D01*
X-53166Y3024D01*
X-53139Y3092D01*
X-53098Y3201D01*
X-53057Y3324D01*
Y3338D01*
X-53029Y3379D01*
X-53002Y3447D01*
X-52974Y3516D01*
Y3529D01*
X-52947Y3584D01*
X-52934Y3652D01*
X-52906Y3721D01*
Y3734D01*
X-52879Y3776D01*
X-52851Y3830D01*
X-52811Y3898D01*
Y3912D01*
X-52783Y3953D01*
X-52756Y4008D01*
X-52728Y4076D01*
Y4090D01*
X-52715Y4117D01*
X-52701Y4158D01*
X-52660Y4227D01*
X-52646Y4240D01*
X-52633Y4281D01*
X-52592Y4336D01*
X-52551Y4377D01*
X-52537D01*
X-52510Y4391D01*
X-52387D01*
X-52318Y4377D01*
D02*
G37*
G36*
X-52127Y-13216D02*
X-52154D01*
Y-13208D01*
X-52145Y-13207D01*
X-52127Y-13216D01*
D02*
G37*
G36*
X-51020Y-12970D02*
X-51061D01*
Y-12964D01*
X-51034Y-12960D01*
X-51020Y-12970D01*
D02*
G37*
G36*
X-72441Y11121D02*
Y10321D01*
Y9521D01*
Y8721D01*
Y7921D01*
Y7121D01*
Y6321D01*
Y5521D01*
Y4721D01*
Y3921D01*
Y3121D01*
Y2321D01*
Y1521D01*
Y721D01*
Y-79D01*
Y-879D01*
Y-1679D01*
Y-2479D01*
Y-3279D01*
Y-4079D01*
Y-4879D01*
Y-5679D01*
Y-6479D01*
Y-7279D01*
Y-8079D01*
Y-8879D01*
Y-9679D01*
Y-10479D01*
Y-11279D01*
Y-12079D01*
Y-12879D01*
Y-13679D01*
Y-14479D01*
Y-15279D01*
Y-16079D01*
Y-16879D01*
Y-17679D01*
Y-18479D01*
Y-19279D01*
Y-20079D01*
X-104441D01*
Y-19279D01*
Y-18479D01*
Y-17679D01*
Y-16879D01*
X-101241D01*
Y-16079D01*
Y-15279D01*
Y-14479D01*
Y-13679D01*
X-104441D01*
Y-12879D01*
Y-12079D01*
Y-11279D01*
Y-10479D01*
X-101241D01*
Y-9679D01*
Y-8879D01*
Y-8079D01*
Y-7279D01*
X-104441D01*
Y-6479D01*
Y-5679D01*
Y-4879D01*
Y-4079D01*
X-94841D01*
Y-3279D01*
Y-2479D01*
Y-1679D01*
Y-879D01*
Y-79D01*
Y721D01*
Y1521D01*
Y2321D01*
X-98041D01*
Y1521D01*
Y721D01*
Y-79D01*
Y-879D01*
X-104441D01*
Y-79D01*
Y721D01*
Y1521D01*
Y2321D01*
X-101241D01*
Y3121D01*
Y3921D01*
Y4721D01*
Y5521D01*
X-104441D01*
Y6321D01*
Y7121D01*
Y7921D01*
Y8721D01*
X-101241D01*
Y7921D01*
Y7121D01*
Y6321D01*
Y5521D01*
X-98041D01*
Y6321D01*
Y7121D01*
Y7921D01*
Y8721D01*
X-101241D01*
Y9521D01*
Y10321D01*
Y11121D01*
Y11921D01*
X-98041D01*
Y11121D01*
Y10321D01*
Y9521D01*
Y8721D01*
X-94841D01*
Y7921D01*
Y7121D01*
Y6321D01*
Y5521D01*
X-91641D01*
Y4721D01*
Y3921D01*
Y3121D01*
Y2321D01*
Y1521D01*
Y721D01*
Y-79D01*
Y-879D01*
Y-1679D01*
Y-2479D01*
Y-3279D01*
Y-4079D01*
X-88441D01*
Y-4879D01*
Y-5679D01*
Y-6479D01*
Y-7279D01*
X-85241D01*
Y-8079D01*
Y-8879D01*
Y-9679D01*
Y-10479D01*
Y-11279D01*
Y-12079D01*
Y-12879D01*
Y-13679D01*
X-88441D01*
Y-12879D01*
Y-12079D01*
Y-11279D01*
Y-10479D01*
Y-9679D01*
Y-8879D01*
Y-8079D01*
Y-7279D01*
X-94841D01*
Y-8079D01*
Y-8879D01*
Y-9679D01*
Y-10479D01*
X-91641D01*
Y-11279D01*
Y-12079D01*
Y-12879D01*
Y-13679D01*
Y-14479D01*
Y-15279D01*
Y-16079D01*
Y-16879D01*
X-78841D01*
Y-16079D01*
Y-15279D01*
Y-14479D01*
Y-13679D01*
Y-12879D01*
Y-12079D01*
Y-11279D01*
Y-10479D01*
X-82041D01*
Y-9679D01*
Y-8879D01*
Y-8079D01*
Y-7279D01*
X-78841D01*
Y-6479D01*
Y-5679D01*
Y-4879D01*
Y-4079D01*
X-75641D01*
Y-3279D01*
Y-2479D01*
Y-1679D01*
Y-879D01*
Y-79D01*
Y721D01*
Y1521D01*
Y2321D01*
X-78841D01*
Y1521D01*
Y721D01*
Y-79D01*
Y-879D01*
X-82041D01*
Y-1679D01*
Y-2479D01*
Y-3279D01*
Y-4079D01*
X-88441D01*
Y-3279D01*
Y-2479D01*
Y-1679D01*
Y-879D01*
Y-79D01*
Y721D01*
Y1521D01*
Y2321D01*
X-82041D01*
Y3121D01*
Y3921D01*
Y4721D01*
Y5521D01*
X-75641D01*
Y6321D01*
Y7121D01*
Y7921D01*
Y8721D01*
Y9521D01*
Y10321D01*
Y11121D01*
Y11921D01*
X-72441D01*
Y11121D01*
D02*
G37*
G36*
X-85241D02*
Y10321D01*
Y9521D01*
Y8721D01*
Y7921D01*
Y7121D01*
Y6321D01*
Y5521D01*
X-91641D01*
Y6321D01*
Y7121D01*
Y7921D01*
Y8721D01*
X-94841D01*
Y9521D01*
Y10321D01*
Y11121D01*
Y11921D01*
X-91641D01*
Y11121D01*
Y10321D01*
Y9521D01*
Y8721D01*
X-88441D01*
Y9521D01*
Y10321D01*
Y11121D01*
Y11921D01*
X-85241D01*
Y11121D01*
D02*
G37*
G36*
X-78841D02*
Y10321D01*
Y9521D01*
Y8721D01*
X-82041D01*
Y9521D01*
Y10321D01*
Y11121D01*
Y11921D01*
X-78841D01*
Y11121D01*
D02*
G37*
G36*
X-55394Y6222D02*
X-55244D01*
X-55052Y6195D01*
X-54834Y6168D01*
X-54588Y6127D01*
X-54328Y6058D01*
X-54068Y5990D01*
X-54041D01*
X-53945Y5963D01*
X-53822Y5935D01*
X-53685Y5894D01*
X-53672D01*
X-53658Y5881D01*
X-53576Y5853D01*
X-53453Y5812D01*
X-53330Y5758D01*
X-53316D01*
X-53289Y5744D01*
X-53234D01*
X-53180Y5730D01*
X-53166D01*
X-53139Y5717D01*
X-53111Y5703D01*
X-53070Y5662D01*
X-53029D01*
X-52988Y5635D01*
X-52920Y5607D01*
X-52906D01*
X-52879Y5580D01*
X-52838Y5553D01*
X-52811Y5525D01*
X-52797Y5512D01*
X-52742Y5484D01*
X-52660Y5443D01*
X-52578Y5389D01*
X-52564Y5375D01*
X-52523Y5347D01*
X-52455Y5320D01*
X-52387Y5266D01*
X-52359Y5252D01*
X-52305Y5211D01*
X-52277Y5197D01*
X-52223Y5129D01*
X-52209D01*
X-52182Y5102D01*
Y5088D01*
X-52168Y5074D01*
X-51963Y4855D01*
X-51608Y4377D01*
X-51621D01*
X-51635Y4391D01*
X-51717Y4404D01*
X-51826Y4432D01*
X-51949Y4459D01*
X-51963D01*
X-51977Y4473D01*
X-52059Y4486D01*
X-52182Y4514D01*
X-52318Y4527D01*
X-52414D01*
X-52469Y4541D01*
X-52564D01*
X-52619Y4514D01*
X-52633Y4500D01*
X-52660Y4486D01*
X-52674Y4445D01*
X-52688D01*
X-52701Y4418D01*
X-52742Y4363D01*
X-52756Y4350D01*
X-52783Y4309D01*
X-52811Y4240D01*
X-52838Y4158D01*
X-52851Y4145D01*
X-52865Y4090D01*
X-52893Y4022D01*
X-52934Y3940D01*
X-52947Y3912D01*
X-53002Y3844D01*
X-53043Y3748D01*
X-53098Y3625D01*
Y3611D01*
X-53111Y3598D01*
X-53139Y3516D01*
X-53180Y3406D01*
X-53234Y3283D01*
X-53248Y3256D01*
X-53275Y3188D01*
X-53303Y3092D01*
X-53344Y2983D01*
X-53357Y2955D01*
X-53371Y2901D01*
X-53412Y2805D01*
X-53439Y2709D01*
X-53453Y2696D01*
X-53467Y2655D01*
X-53480Y2586D01*
Y2518D01*
Y2504D01*
X-53494Y2463D01*
X-53508Y2409D01*
X-53535Y2340D01*
Y2327D01*
X-53549Y2272D01*
X-53562Y2204D01*
X-53576Y2121D01*
X-53590Y2108D01*
X-53603Y2053D01*
X-53617Y1985D01*
X-53631Y1903D01*
X-53644Y1875D01*
X-53658Y1807D01*
X-53672Y1780D01*
Y1739D01*
X-53658Y1725D01*
X-53617Y1670D01*
X-53590Y1643D01*
X-53549Y1616D01*
X-53535Y1602D01*
X-53508Y1561D01*
X-53453Y1493D01*
X-53398Y1424D01*
X-53385Y1411D01*
X-53357Y1370D01*
X-53303Y1315D01*
X-53234Y1260D01*
X-53221Y1247D01*
X-53180Y1206D01*
X-53111Y1137D01*
X-53029Y1055D01*
X-53016Y1041D01*
X-52961Y1001D01*
X-52893Y946D01*
X-52811Y878D01*
X-52797Y864D01*
X-52742Y836D01*
X-52674Y795D01*
X-52578Y741D01*
X-52564Y727D01*
X-52510Y713D01*
X-52428Y672D01*
X-52346Y631D01*
X-52332D01*
X-52305Y618D01*
X-52264Y604D01*
X-52209Y577D01*
X-52086Y522D01*
X-51936Y467D01*
X-51922D01*
X-51908Y454D01*
X-51676D01*
X-51498Y481D01*
X-51485D01*
X-51457Y495D01*
X-51416D01*
X-51362Y522D01*
X-51225Y577D01*
X-51156Y631D01*
X-51088Y686D01*
X-51074Y700D01*
X-51061Y713D01*
X-50979Y795D01*
X-50869Y905D01*
X-50746Y1001D01*
Y987D01*
Y973D01*
X-50760Y891D01*
Y878D01*
X-50774Y850D01*
Y823D01*
X-50787Y809D01*
Y795D01*
Y754D01*
X-50801Y700D01*
X-50815Y631D01*
Y618D01*
X-50828Y577D01*
X-50869Y481D01*
Y467D01*
X-50883Y454D01*
X-50897Y385D01*
X-50938Y276D01*
X-50965Y167D01*
X-50979Y139D01*
X-51006Y85D01*
X-51047Y-11D01*
X-51088Y-120D01*
Y-134D01*
X-51102Y-161D01*
X-51129Y-203D01*
X-51143Y-271D01*
Y-285D01*
X-51156Y-312D01*
X-51184Y-353D01*
X-51211Y-394D01*
X-51225Y-462D01*
X-51307Y-626D01*
X-51498Y-927D01*
X-51580Y-1077D01*
X-51594Y-1091D01*
X-51635Y-1159D01*
X-51649D01*
X-51662Y-1187D01*
X-51690Y-1241D01*
X-51703Y-1255D01*
X-51744Y-1310D01*
X-51785Y-1405D01*
X-51813Y-1515D01*
Y-1542D01*
Y-1610D01*
Y-1692D01*
X-51772Y-1788D01*
Y-1802D01*
X-51744Y-1829D01*
X-51676Y-1925D01*
X-51649Y-1952D01*
X-51594Y-2021D01*
X-51580D01*
X-51553Y-2034D01*
X-51525Y-2048D01*
X-51471Y-2089D01*
X-51457Y-2103D01*
X-51443Y-2130D01*
X-51402Y-2157D01*
X-51362Y-2171D01*
X-51334Y-2185D01*
X-51266Y-2226D01*
X-51170Y-2294D01*
X-51047Y-2362D01*
X-51033D01*
X-51020Y-2376D01*
X-50951Y-2417D01*
X-50842Y-2472D01*
X-50733Y-2540D01*
X-50719D01*
X-50692Y-2554D01*
X-50651Y-2581D01*
X-50582Y-2608D01*
X-50569D01*
X-50541Y-2622D01*
X-50500Y-2649D01*
X-50473Y-2690D01*
X-50446D01*
X-50391Y-2704D01*
X-50309Y-2731D01*
X-50200Y-2800D01*
X-50172Y-2813D01*
X-50117Y-2868D01*
X-50036Y-2923D01*
X-49940Y-2977D01*
X-49913Y-2991D01*
X-49844Y-3032D01*
X-49830D01*
X-49817Y-3046D01*
X-49748Y-3114D01*
X-49543Y-3251D01*
Y-3292D01*
X-49502D01*
X-49461Y-3306D01*
X-49420Y-3333D01*
X-49393Y-3360D01*
X-49366Y-3388D01*
X-49133Y-3579D01*
X-48942Y-3757D01*
X-48901D01*
X-48832Y-3866D01*
X-48764Y-3893D01*
X-48750Y-3948D01*
X-48600Y-4057D01*
X-48614D01*
Y-4085D01*
X-48586D01*
X-48559Y-4098D01*
X-48532Y-4126D01*
X-48518Y-4139D01*
X-48504Y-4194D01*
X-48491D01*
X-48463Y-4208D01*
X-48422Y-4235D01*
X-48381Y-4276D01*
Y-4290D01*
X-48354Y-4317D01*
X-48313Y-4386D01*
Y-4426D01*
X-48286Y-4413D01*
X-48176Y-4563D01*
X-48040Y-4727D01*
X-47766Y-5137D01*
X-47794Y-5178D01*
X-47780Y-5192D01*
X-47753Y-5206D01*
X-47698Y-5260D01*
X-47657Y-5329D01*
Y-5342D01*
X-47630Y-5397D01*
X-47602Y-5452D01*
X-47575Y-5520D01*
Y-5534D01*
X-47561Y-5561D01*
X-47534Y-5616D01*
X-47506Y-5671D01*
X-47438Y-5835D01*
X-47356Y-6012D01*
Y-6026D01*
X-47343Y-6053D01*
X-47315Y-6108D01*
X-47288Y-6163D01*
X-47219Y-6327D01*
X-47151Y-6518D01*
X-47137Y-6545D01*
X-47124Y-6627D01*
X-47083Y-6750D01*
X-47042Y-6914D01*
X-47001Y-7119D01*
X-46960Y-7338D01*
X-46932Y-7598D01*
X-46905Y-7858D01*
Y-7871D01*
Y-7885D01*
Y-7926D01*
Y-7981D01*
Y-8117D01*
Y-8295D01*
Y-8500D01*
X-46932Y-8733D01*
X-46960Y-8979D01*
X-47001Y-9211D01*
Y-9225D01*
X-47014Y-9279D01*
X-47042Y-9361D01*
X-47083Y-9471D01*
X-47110Y-9594D01*
X-47165Y-9730D01*
X-47274Y-10018D01*
X-47288Y-10031D01*
X-47302Y-10086D01*
X-47343Y-10154D01*
X-47383Y-10250D01*
X-47438Y-10359D01*
X-47506Y-10482D01*
X-47671Y-10756D01*
Y-10769D01*
X-47698Y-10797D01*
X-47725Y-10838D01*
X-47753Y-10892D01*
X-47848Y-11029D01*
X-47958Y-11193D01*
X-47971Y-11207D01*
X-47985Y-11234D01*
X-48012Y-11261D01*
X-48067Y-11316D01*
X-48163Y-11453D01*
X-48286Y-11590D01*
X-48299Y-11603D01*
X-48327Y-11631D01*
X-48368Y-11685D01*
X-48409Y-11740D01*
X-48422Y-11754D01*
X-48450Y-11781D01*
X-48504Y-11822D01*
X-48559Y-11863D01*
X-48532Y-11904D01*
X-48559Y-11918D01*
X-48627Y-11959D01*
X-48846Y-12150D01*
X-49707Y-12560D01*
X-49967Y-12615D01*
X-50582Y-12847D01*
X-50610D01*
Y-12875D01*
X-50678D01*
X-50733Y-12916D01*
X-50774Y-12929D01*
X-51034Y-12960D01*
X-51061Y-12943D01*
Y-12964D01*
X-51115Y-12970D01*
X-51129Y-13011D01*
X-51211D01*
X-51307Y-13025D01*
X-51416Y-13039D01*
X-51443D01*
X-51512Y-13066D01*
X-51608Y-13093D01*
X-51703Y-13134D01*
X-51813D01*
X-51854Y-13148D01*
X-51881Y-13175D01*
X-52145Y-13207D01*
X-52154Y-13203D01*
Y-13208D01*
X-52223Y-13216D01*
X-52236D01*
X-52277Y-13230D01*
X-52359D01*
X-52400Y-13244D01*
X-52455Y-13257D01*
X-52688D01*
X-52701Y-13271D01*
X-52742Y-13285D01*
X-52797Y-13298D01*
X-53002D01*
X-53070Y-13312D01*
X-53316D01*
X-53398Y-13326D01*
X-53412D01*
X-53426Y-13339D01*
X-53480Y-13353D01*
X-53508D01*
X-53535Y-13367D01*
X-53781D01*
Y-13394D01*
X-53890D01*
X-53986Y-13408D01*
X-54014D01*
X-54068Y-13421D01*
X-54150Y-13435D01*
X-54615D01*
X-54793Y-13421D01*
X-54998D01*
X-55422Y-13408D01*
X-55517D01*
X-55640Y-13394D01*
X-55955D01*
X-56160Y-13380D01*
X-56378Y-13367D01*
X-56597Y-13353D01*
X-56611D01*
X-56665Y-13339D01*
X-56980D01*
X-57076Y-13326D01*
X-57130D01*
X-57185Y-13312D01*
X-57253D01*
X-57349Y-13298D01*
X-57445Y-13285D01*
X-57663Y-13257D01*
X-57677D01*
X-57718Y-13244D01*
X-57773D01*
X-57855Y-13230D01*
X-57937Y-13216D01*
X-58046Y-13203D01*
X-58265Y-13175D01*
X-58333D01*
X-58388Y-13162D01*
X-58470Y-13148D01*
X-58620D01*
X-58702Y-13162D01*
X-58730D01*
X-58757Y-13148D01*
X-58798D01*
X-58825Y-13162D01*
X-58839Y-13148D01*
X-58866Y-13134D01*
X-58907Y-13121D01*
X-58976Y-13107D01*
X-59085D01*
X-59126Y-13121D01*
X-59290D01*
X-59304Y-13107D01*
X-59331Y-13093D01*
X-59372Y-13080D01*
X-59440Y-13066D01*
X-59495D01*
X-59605Y-13039D01*
X-59645D01*
X-59686Y-13025D01*
X-59755D01*
X-59905Y-12998D01*
X-60069Y-12984D01*
X-60110D01*
X-60165Y-12970D01*
X-60220D01*
X-60370Y-12943D01*
X-60548Y-12916D01*
X-60561D01*
X-60602Y-12902D01*
X-60671Y-12875D01*
X-60766Y-12861D01*
X-60794D01*
X-60848Y-12847D01*
X-60958D01*
X-61286Y-12752D01*
X-61846Y-12587D01*
Y-12560D01*
X-61874D01*
X-61928Y-12547D01*
X-62010Y-12533D01*
X-62106Y-12506D01*
X-62134Y-12492D01*
X-62188Y-12465D01*
X-62284Y-12437D01*
X-62379Y-12396D01*
X-62393Y-12382D01*
X-62434Y-12369D01*
X-62502Y-12355D01*
X-62571Y-12328D01*
X-62585D01*
X-62626Y-12314D01*
X-62694Y-12300D01*
X-62762Y-12273D01*
X-62790Y-12259D01*
X-62844Y-12246D01*
X-62926Y-12218D01*
X-63008Y-12177D01*
X-63036Y-12164D01*
X-63077Y-12136D01*
X-63159Y-12095D01*
X-63227Y-12041D01*
X-63241Y-12027D01*
X-63295Y-12013D01*
X-63364Y-11972D01*
X-63446Y-11931D01*
X-63459Y-11918D01*
X-63514Y-11890D01*
X-63569Y-11836D01*
X-63610Y-11767D01*
X-63623Y-11795D01*
X-63705Y-11754D01*
Y-11713D01*
X-63733D01*
X-63747Y-11699D01*
X-63788Y-11658D01*
X-63856Y-11631D01*
X-63993Y-11480D01*
X-64047D01*
X-64088Y-11384D01*
X-64116D01*
X-64157Y-11371D01*
X-64184Y-11344D01*
X-64198Y-11330D01*
X-64225Y-11316D01*
X-64307Y-11248D01*
X-64321Y-11234D01*
X-64375Y-11180D01*
X-64430Y-11111D01*
X-64498Y-11029D01*
X-64512Y-11002D01*
X-64553Y-10947D01*
X-64621Y-10865D01*
X-64690Y-10769D01*
X-64703Y-10756D01*
X-64731Y-10742D01*
X-64799Y-10660D01*
X-64813Y-10646D01*
X-64826Y-10619D01*
X-64840Y-10578D01*
X-64854Y-10523D01*
X-64895Y-10482D01*
X-64936Y-10428D01*
X-64950Y-10414D01*
X-64977Y-10387D01*
X-65018Y-10346D01*
X-65059Y-10277D01*
X-65073Y-10250D01*
X-65100Y-10209D01*
X-65107Y-10195D01*
X-65114D01*
Y-10182D01*
X-65127Y-10154D01*
X-65141Y-10100D01*
X-65168D01*
X-65182Y-10086D01*
X-65196Y-10058D01*
Y-10045D01*
X-65209Y-10031D01*
Y-10004D01*
X-65223D01*
X-65237Y-9990D01*
Y-9977D01*
Y-9949D01*
X-65264Y-9904D01*
Y-9881D01*
X-65277D01*
X-65291Y-9854D01*
X-65332Y-9826D01*
X-65360Y-9785D01*
X-65373Y-9771D01*
X-65387Y-9744D01*
X-65401Y-9689D01*
Y-9635D01*
X-65414Y-9648D01*
Y-9635D01*
Y-9621D01*
X-65428Y-9607D01*
X-65442Y-9594D01*
Y-9580D01*
X-65469Y-9457D01*
X-65496Y-9484D01*
Y-9443D01*
X-65510Y-9457D01*
X-65496Y-9430D01*
X-65510Y-9443D01*
X-65537Y-9430D01*
Y-9361D01*
X-65551D01*
Y-9348D01*
X-65537D01*
X-65551Y-9334D01*
Y-9293D01*
X-65565D01*
X-65578Y-9279D01*
X-65592Y-9266D01*
X-65606Y-9225D01*
Y-9211D01*
X-65619Y-9184D01*
X-65633Y-9115D01*
Y-9129D01*
X-65647D01*
Y-9061D01*
X-65660D01*
Y-9020D01*
X-65701Y-8979D01*
X-65688D01*
X-65701Y-8965D01*
X-65715Y-8951D01*
X-65729Y-8910D01*
Y-8883D01*
Y-8869D01*
X-65742Y-8842D01*
Y-8774D01*
X-65756Y-8787D01*
Y-8719D01*
X-65797Y-8733D01*
X-65783Y-8678D01*
X-65797D01*
Y-8692D01*
X-65819Y-8637D01*
X-65824D01*
Y-8623D01*
X-65819Y-8637D01*
X-65797D01*
X-65838Y-8596D01*
X-65824Y-8555D01*
X-65838Y-8582D01*
Y-8568D01*
Y-8555D01*
Y-8541D01*
X-65852D01*
Y-8528D01*
X-65838Y-8514D01*
X-65852D01*
Y-8500D01*
X-65838Y-8473D01*
Y-8459D01*
X-65879D01*
X-65852Y-8405D01*
X-65879D01*
Y-8391D01*
X-65893D01*
X-65879Y-8350D01*
X-65893Y-8364D01*
Y-8350D01*
Y-8322D01*
X-65920D01*
Y-8309D01*
X-65906Y-8268D01*
Y-8254D01*
Y-8240D01*
Y-8227D01*
X-65934D01*
X-65920Y-8172D01*
X-65934D01*
Y-8158D01*
X-65961D01*
Y-8063D01*
X-65975D01*
X-65988Y-7789D01*
X-66057Y-7639D01*
X-66029Y-7557D01*
X-66057Y-7584D01*
Y-7461D01*
X-66070Y-7366D01*
X-66084D01*
Y-7352D01*
Y-7338D01*
X-66070Y-7311D01*
X-66084Y-7297D01*
X-66098Y-7283D01*
Y-7270D01*
Y-7256D01*
X-66084Y-7229D01*
X-66098Y-7215D01*
X-66111Y-7202D01*
Y-7188D01*
X-66084Y-7133D01*
X-66125Y-6996D01*
X-66152Y-6668D01*
X-66125Y-6614D01*
X-66152D01*
Y-6573D01*
Y-6532D01*
Y-6395D01*
Y-6245D01*
Y-6231D01*
Y-6204D01*
Y-6163D01*
Y-6122D01*
Y-5985D01*
Y-5835D01*
Y-5821D01*
Y-5780D01*
Y-5725D01*
Y-5657D01*
Y-5643D01*
Y-5602D01*
X-66139Y-5547D01*
X-66111Y-5506D01*
Y-5493D01*
Y-5452D01*
Y-5397D01*
X-66098Y-5329D01*
Y-5315D01*
Y-5260D01*
X-66084Y-5192D01*
Y-5124D01*
Y-5110D01*
Y-5096D01*
X-66070Y-5014D01*
X-66057Y-4905D01*
X-66029Y-4782D01*
Y-4768D01*
Y-4755D01*
X-66016Y-4673D01*
X-66002Y-4563D01*
X-65975Y-4440D01*
Y-4413D01*
X-65961Y-4344D01*
X-65947Y-4249D01*
X-65920Y-4126D01*
X-65879Y-3962D01*
X-65838Y-3798D01*
X-65742Y-3442D01*
Y-3415D01*
X-65715Y-3360D01*
X-65688Y-3264D01*
X-65647Y-3142D01*
X-65592Y-2991D01*
X-65524Y-2827D01*
X-65360Y-2472D01*
Y-2458D01*
X-65332Y-2417D01*
X-65305Y-2362D01*
X-65264Y-2280D01*
X-65141Y-2089D01*
X-64991Y-1884D01*
X-64977Y-1870D01*
X-64950Y-1829D01*
X-64908Y-1788D01*
X-64854Y-1720D01*
X-64772Y-1638D01*
X-64690Y-1556D01*
X-64471Y-1405D01*
X-64444Y-1392D01*
X-64389Y-1364D01*
X-64293Y-1310D01*
X-64170Y-1255D01*
X-64020Y-1214D01*
X-63842Y-1173D01*
X-63665Y-1159D01*
X-63446D01*
X-63391Y-1173D01*
X-63282Y-1187D01*
X-63159Y-1228D01*
X-63008Y-1269D01*
X-62844Y-1323D01*
X-62667Y-1405D01*
X-62489Y-1501D01*
X-62475Y-1515D01*
X-62434Y-1542D01*
X-62366Y-1570D01*
X-62297Y-1624D01*
X-62284Y-1638D01*
X-62243Y-1651D01*
X-62134Y-1733D01*
X-62106Y-1747D01*
X-62051Y-1774D01*
X-62024Y-1788D01*
X-61997Y-1829D01*
X-61969D01*
X-61928Y-1856D01*
X-61915Y-1870D01*
X-61860Y-1884D01*
X-61846D01*
X-61819Y-1911D01*
X-61737Y-1966D01*
X-61723D01*
X-61696Y-1993D01*
X-61614Y-2048D01*
X-61600D01*
X-61587Y-2075D01*
X-61546Y-2089D01*
X-61491Y-2130D01*
X-61354Y-2198D01*
X-61204Y-2294D01*
X-61190D01*
X-61163Y-2308D01*
X-61122Y-2335D01*
X-61081Y-2362D01*
X-60944Y-2444D01*
X-60780Y-2526D01*
X-60766D01*
X-60725Y-2554D01*
X-60671Y-2581D01*
X-60589Y-2608D01*
X-60575D01*
X-60534Y-2636D01*
X-60479Y-2663D01*
X-60438Y-2718D01*
X-60384D01*
X-60315Y-2731D01*
X-60233Y-2772D01*
X-60220Y-2786D01*
X-60165Y-2813D01*
X-60097Y-2841D01*
X-60028Y-2868D01*
X-60015D01*
X-59987Y-2882D01*
X-59946Y-2895D01*
X-59878D01*
X-59837Y-2882D01*
X-59741Y-2868D01*
X-59673D01*
X-59618Y-2854D01*
X-59482D01*
X-59331Y-2841D01*
X-59290D01*
X-59263Y-2827D01*
X-59208Y-2813D01*
X-59071Y-2800D01*
X-58935Y-2759D01*
X-58921D01*
X-58894Y-2745D01*
X-58798Y-2704D01*
X-58784Y-2690D01*
X-58757Y-2677D01*
X-58730Y-2622D01*
X-58689Y-2567D01*
Y-2554D01*
Y-2513D01*
Y-2472D01*
X-58702Y-2417D01*
X-58716Y-2403D01*
X-58730Y-2376D01*
X-58757Y-2335D01*
X-58798Y-2294D01*
X-58812D01*
X-58825Y-2267D01*
X-58894Y-2212D01*
X-58989Y-2144D01*
X-59099Y-2048D01*
X-59112D01*
X-59126Y-2021D01*
X-59194Y-1966D01*
X-59290Y-1898D01*
X-59399Y-1815D01*
X-59413Y-1802D01*
X-59468Y-1761D01*
X-59536Y-1692D01*
X-59632Y-1610D01*
X-59741Y-1501D01*
X-59851Y-1378D01*
X-60083Y-1118D01*
X-60097Y-1105D01*
X-60138Y-1050D01*
X-60192Y-968D01*
X-60261Y-872D01*
X-60343Y-749D01*
X-60425Y-613D01*
X-60589Y-298D01*
X-60602Y-285D01*
X-60616Y-243D01*
X-60657Y-175D01*
X-60684Y-107D01*
X-60698Y-93D01*
X-60712Y-38D01*
X-60739Y16D01*
X-60766Y98D01*
X-60780Y112D01*
X-60794Y139D01*
X-60821Y208D01*
Y221D01*
X-60835Y249D01*
Y290D01*
Y344D01*
X-60848D01*
X-60862Y358D01*
X-60876Y385D01*
X-60890Y426D01*
Y440D01*
X-60903Y481D01*
X-60917Y577D01*
Y590D01*
X-60931Y631D01*
Y700D01*
X-60944Y768D01*
Y782D01*
X-60958Y836D01*
X-60985Y919D01*
X-60999Y1001D01*
Y1014D01*
X-61013Y1041D01*
X-61026Y1137D01*
Y1151D01*
X-61040Y1192D01*
Y1247D01*
Y1301D01*
X-61054Y1315D01*
Y1329D01*
Y1370D01*
Y1383D01*
Y1411D01*
Y1479D01*
Y1506D01*
Y1561D01*
Y1657D01*
Y1766D01*
Y1780D01*
Y1793D01*
Y1862D01*
Y1944D01*
X-61040Y2039D01*
Y1944D01*
X-61013Y2067D01*
X-61039D01*
X-61040Y2053D01*
Y2067D01*
X-61039D01*
X-61013Y2381D01*
X-60999D01*
Y2422D01*
X-60985Y2477D01*
X-60971Y2627D01*
X-60917Y2805D01*
Y2819D01*
X-60903Y2846D01*
X-60890Y2901D01*
X-60862Y2955D01*
X-60808Y3106D01*
X-60739Y3283D01*
Y3297D01*
X-60725Y3324D01*
X-60712Y3379D01*
X-60671Y3447D01*
Y3461D01*
X-60643Y3502D01*
X-60616Y3557D01*
X-60575Y3584D01*
Y3598D01*
Y3611D01*
X-60561Y3652D01*
X-60548Y3666D01*
X-60534Y3721D01*
Y3734D01*
X-60507Y3762D01*
X-60479Y3816D01*
X-60438Y3885D01*
X-60425Y3898D01*
X-60411Y3940D01*
X-60370Y3981D01*
X-60315Y4008D01*
Y4022D01*
Y4035D01*
X-60302Y4076D01*
X-60288Y4090D01*
X-60247Y4131D01*
X-60165Y4240D01*
Y4254D01*
Y4268D01*
X-60138Y4309D01*
X-60110Y4350D01*
X-60097Y4363D01*
X-60083Y4391D01*
X-60042Y4404D01*
X-60015Y4418D01*
X-59960Y4527D01*
X-59905Y4609D01*
X-59823Y4664D01*
X-59632Y4896D01*
X-59605Y4883D01*
Y4910D01*
X-59591D01*
X-59563Y4937D01*
X-59522Y4965D01*
X-59468Y5006D01*
X-59454Y5020D01*
X-59427Y5060D01*
X-59386Y5102D01*
X-59358Y5142D01*
X-59345D01*
X-59304Y5170D01*
X-59235Y5211D01*
X-59153Y5266D01*
X-59140Y5279D01*
X-59099Y5320D01*
X-59044Y5375D01*
X-58976Y5416D01*
X-58948Y5430D01*
X-58907Y5443D01*
X-58894Y5457D01*
X-58839Y5471D01*
X-58771Y5525D01*
Y5539D01*
X-58757Y5553D01*
X-58689Y5580D01*
X-58661Y5594D01*
X-58593Y5648D01*
X-58579Y5662D01*
X-58525Y5676D01*
X-58443Y5717D01*
X-58360Y5744D01*
X-58347Y5758D01*
X-58292Y5771D01*
X-58210Y5799D01*
X-58128Y5840D01*
X-58101Y5853D01*
X-58032Y5894D01*
X-58019D01*
X-58005Y5908D01*
X-57964Y5922D01*
X-57923D01*
X-57909Y5935D01*
X-57896Y5949D01*
X-57855Y5963D01*
X-57800Y5976D01*
X-57786D01*
X-57759Y5990D01*
X-57650D01*
X-57636Y6004D01*
X-57568Y6017D01*
X-57458Y6058D01*
X-57335Y6086D01*
X-57322D01*
X-57308Y6099D01*
X-57226Y6113D01*
X-57117Y6140D01*
X-56980Y6168D01*
X-56953D01*
X-56911Y6181D01*
X-56857D01*
X-56720Y6195D01*
X-56529Y6209D01*
X-56310Y6222D01*
X-56064Y6236D01*
X-55449D01*
X-55394Y6222D01*
D02*
G37*
%LPC*%
G36*
X-65114Y-10168D02*
Y-10182D01*
X-65107Y-10195D01*
X-65086D01*
X-65114Y-10168D01*
D02*
G37*
G36*
X-56939Y3379D02*
X-57103D01*
X-57212Y3365D01*
X-57335Y3324D01*
X-57472Y3270D01*
X-57609Y3174D01*
X-57732Y3051D01*
X-57745Y3037D01*
X-57786Y2983D01*
X-57827Y2901D01*
X-57882Y2805D01*
X-57923Y2682D01*
X-57950Y2545D01*
Y2395D01*
X-57923Y2231D01*
Y2217D01*
X-57909Y2204D01*
X-57896Y2121D01*
X-57855Y2026D01*
X-57786Y1930D01*
X-57773Y1916D01*
X-57732Y1862D01*
X-57650Y1793D01*
X-57554Y1725D01*
X-57527Y1698D01*
X-57458Y1643D01*
X-57431Y1629D01*
X-57363Y1616D01*
X-57349D01*
X-57322Y1602D01*
X-57240Y1588D01*
X-57117D01*
X-57089Y1575D01*
X-57034Y1561D01*
X-57007D01*
X-56953Y1547D01*
X-56939Y1561D01*
X-56911Y1575D01*
X-56898Y1588D01*
X-56857Y1616D01*
X-56748D01*
X-56734Y1629D01*
X-56693Y1657D01*
X-56679Y1670D01*
X-56652Y1711D01*
X-56624Y1725D01*
X-56583D01*
X-56570Y1739D01*
X-56529Y1766D01*
X-56515Y1780D01*
X-56488Y1807D01*
X-56447Y1862D01*
X-56392Y1930D01*
X-56337Y2026D01*
X-56283Y2135D01*
X-56242Y2245D01*
X-56201Y2381D01*
Y2395D01*
X-56187Y2450D01*
Y2518D01*
Y2614D01*
X-56201Y2709D01*
X-56242Y2832D01*
X-56283Y2942D01*
X-56365Y3051D01*
X-56378Y3065D01*
X-56392Y3092D01*
X-56433Y3133D01*
X-56474Y3174D01*
X-56488Y3188D01*
X-56529Y3215D01*
X-56624Y3283D01*
X-56638Y3297D01*
X-56679Y3311D01*
X-56775Y3338D01*
X-56788D01*
X-56830Y3352D01*
X-56884Y3365D01*
X-56939Y3379D01*
D02*
G37*
G36*
X-65182Y-10018D02*
X-65209D01*
X-65182Y-10045D01*
Y-10018D01*
D02*
G37*
%LPD*%
D56*
X-21063Y-9253D02*
Y-11090D01*
X-21981Y-12008D01*
X-22900Y-11090D01*
Y-9253D01*
X-23818Y-12008D02*
X-24736D01*
X-24277D01*
Y-9253D01*
X-23818Y-9712D01*
X-26114Y-12008D02*
Y-11549D01*
X-26573D01*
Y-12008D01*
X-26114D01*
X-28410Y-9712D02*
X-28869Y-9253D01*
X-29787D01*
X-30246Y-9712D01*
Y-11549D01*
X-29787Y-12008D01*
X-28869D01*
X-28410Y-11549D01*
Y-9712D01*
X-22900Y-18898D02*
X-21063D01*
X-22900Y-17061D01*
Y-16602D01*
X-22441Y-16143D01*
X-21522D01*
X-21063Y-16602D01*
X-23818D02*
X-24277Y-16143D01*
X-25196D01*
X-25655Y-16602D01*
Y-18439D01*
X-25196Y-18898D01*
X-24277D01*
X-23818Y-18439D01*
Y-16602D01*
X-28410Y-18898D02*
X-26573D01*
X-28410Y-17061D01*
Y-16602D01*
X-27951Y-16143D01*
X-27032D01*
X-26573Y-16602D01*
X-30706Y-18898D02*
Y-16143D01*
X-29328Y-17520D01*
X-31165D01*
X-32083D02*
X-33920D01*
X-34838Y-16602D02*
X-35297Y-16143D01*
X-36216D01*
X-36675Y-16602D01*
Y-18439D01*
X-36216Y-18898D01*
X-35297D01*
X-34838Y-18439D01*
Y-16602D01*
X-37593Y-18898D02*
X-38511D01*
X-38052D01*
Y-16143D01*
X-37593Y-16602D01*
X-42644Y-18898D02*
X-44481Y-17061D01*
X-49991Y-16143D02*
X-48154D01*
Y-17520D01*
X-49072D01*
X-48154D01*
Y-18898D01*
X-50909Y-17061D02*
Y-18898D01*
Y-17979D01*
X-51368Y-17520D01*
X-51827Y-17061D01*
X-52286D01*
X-55042Y-18898D02*
X-54123D01*
X-53664Y-18439D01*
Y-17520D01*
X-54123Y-17061D01*
X-55042D01*
X-55501Y-17520D01*
Y-17979D01*
X-53664D01*
X-56419Y-18898D02*
X-57337D01*
X-56878D01*
Y-17061D01*
X-56419D01*
X-58715Y-16143D02*
Y-18898D01*
X-60092D01*
X-60552Y-18439D01*
Y-17979D01*
Y-17520D01*
X-60092Y-17061D01*
X-58715D01*
X-61470D02*
Y-18439D01*
X-61929Y-18898D01*
X-63307D01*
Y-17061D01*
X-64225D02*
Y-18898D01*
Y-17979D01*
X-64684Y-17520D01*
X-65143Y-17061D01*
X-65602D01*
X-67898Y-19816D02*
X-68357D01*
X-68817Y-19357D01*
Y-17061D01*
X-67439D01*
X-66980Y-17520D01*
Y-18439D01*
X-67439Y-18898D01*
X-68817D01*
X-21063Y-5118D02*
Y-2363D01*
X-21981Y-3281D01*
X-22900Y-2363D01*
Y-5118D01*
X-23818D02*
Y-4659D01*
X-24277D01*
Y-5118D01*
X-23818D01*
X-26114Y-2363D02*
X-27951D01*
X-27032D01*
Y-5118D01*
X-30246D02*
X-29328D01*
X-28869Y-4659D01*
Y-3741D01*
X-29328Y-3281D01*
X-30246D01*
X-30706Y-3741D01*
Y-4200D01*
X-28869D01*
X-32083Y-2822D02*
Y-3281D01*
X-31624D01*
X-32542D01*
X-32083D01*
Y-4659D01*
X-32542Y-5118D01*
X-34379Y-3281D02*
X-35297D01*
X-35756Y-3741D01*
Y-5118D01*
X-34379D01*
X-33920Y-4659D01*
X-34379Y-4200D01*
X-35756D01*
X-36675Y-3281D02*
Y-5118D01*
Y-4200D01*
X-37134Y-3741D01*
X-37593Y-3281D01*
X-38052D01*
X-41267Y-2363D02*
Y-5118D01*
X-39889D01*
X-39430Y-4659D01*
Y-3741D01*
X-39889Y-3281D01*
X-41267D01*
X-21063Y4527D02*
Y1772D01*
X-22900D01*
X-25655Y4527D02*
X-23818D01*
Y1772D01*
X-25655D01*
X-23818Y3149D02*
X-24736D01*
X-26573Y4527D02*
Y1772D01*
X-27951D01*
X-28410Y2231D01*
Y4067D01*
X-27951Y4527D01*
X-26573D01*
X-32083Y1772D02*
Y4527D01*
X-33461D01*
X-33920Y4067D01*
Y3149D01*
X-33461Y2690D01*
X-32083D01*
X-35297Y3608D02*
X-36216D01*
X-36675Y3149D01*
Y1772D01*
X-35297D01*
X-34838Y2231D01*
X-35297Y2690D01*
X-36675D01*
X-37593Y1772D02*
Y3608D01*
X-38971D01*
X-39430Y3149D01*
Y1772D01*
X-41726D02*
X-40807D01*
X-40348Y2231D01*
Y3149D01*
X-40807Y3608D01*
X-41726D01*
X-42185Y3149D01*
Y2690D01*
X-40348D01*
X-43103Y1772D02*
X-44021D01*
X-43562D01*
Y4527D01*
X-43103D01*
D127*
X-11811Y11811D02*
D03*
X-606299Y291339D02*
D03*
Y11811D02*
D03*
D128*
X3937Y240158D02*
D03*
Y250000D02*
D03*
Y259842D02*
D03*
X-20669Y161417D02*
D03*
Y141732D02*
D03*
X3937Y161417D02*
D03*
Y151575D02*
D03*
Y141732D02*
D03*
D129*
X-456693Y299213D02*
D03*
X-161417D02*
D03*
Y3937D02*
D03*
X-456693D02*
D03*
X-618110Y303150D02*
D03*
X0D02*
D03*
Y0D02*
D03*
X-618110D02*
D03*
D130*
X6260Y28268D02*
D03*
Y62283D02*
D03*
X21220Y28268D02*
D03*
Y62283D02*
D03*
D131*
X-55512Y120866D02*
D03*
X-75512Y116866D02*
D03*
Y124866D02*
D03*
M02*
