G04*
G04 #@! TF.GenerationSoftware,Altium Limited,CircuitStudio,1.5.2 (30)*
G04*
G04 Layer_Physical_Order=1*
G04 Layer_Color=11767835*
%FSLAX25Y25*%
%MOIN*%
G70*
G01*
G75*
G04:AMPARAMS|DCode=10|XSize=51.18mil|YSize=133.86mil|CornerRadius=12.8mil|HoleSize=0mil|Usage=FLASHONLY|Rotation=270.000|XOffset=0mil|YOffset=0mil|HoleType=Round|Shape=RoundedRectangle|*
%AMROUNDEDRECTD10*
21,1,0.05118,0.10827,0,0,270.0*
21,1,0.02559,0.13386,0,0,270.0*
1,1,0.02559,-0.05413,-0.01280*
1,1,0.02559,-0.05413,0.01280*
1,1,0.02559,0.05413,0.01280*
1,1,0.02559,0.05413,-0.01280*
%
%ADD10ROUNDEDRECTD10*%
G04:AMPARAMS|DCode=11|XSize=41.34mil|YSize=70.87mil|CornerRadius=10.34mil|HoleSize=0mil|Usage=FLASHONLY|Rotation=270.000|XOffset=0mil|YOffset=0mil|HoleType=Round|Shape=RoundedRectangle|*
%AMROUNDEDRECTD11*
21,1,0.04134,0.05020,0,0,270.0*
21,1,0.02067,0.07087,0,0,270.0*
1,1,0.02067,-0.02510,-0.01034*
1,1,0.02067,-0.02510,0.01034*
1,1,0.02067,0.02510,0.01034*
1,1,0.02067,0.02510,-0.01034*
%
%ADD11ROUNDEDRECTD11*%
G04:AMPARAMS|DCode=12|XSize=41.34mil|YSize=70.87mil|CornerRadius=10.34mil|HoleSize=0mil|Usage=FLASHONLY|Rotation=180.000|XOffset=0mil|YOffset=0mil|HoleType=Round|Shape=RoundedRectangle|*
%AMROUNDEDRECTD12*
21,1,0.04134,0.05020,0,0,180.0*
21,1,0.02067,0.07087,0,0,180.0*
1,1,0.02067,-0.01034,0.02510*
1,1,0.02067,0.01034,0.02510*
1,1,0.02067,0.01034,-0.02510*
1,1,0.02067,-0.01034,-0.02510*
%
%ADD12ROUNDEDRECTD12*%
G04:AMPARAMS|DCode=13|XSize=35.43mil|YSize=31.5mil|CornerRadius=7.87mil|HoleSize=0mil|Usage=FLASHONLY|Rotation=90.000|XOffset=0mil|YOffset=0mil|HoleType=Round|Shape=RoundedRectangle|*
%AMROUNDEDRECTD13*
21,1,0.03543,0.01575,0,0,90.0*
21,1,0.01969,0.03150,0,0,90.0*
1,1,0.01575,0.00787,0.00984*
1,1,0.01575,0.00787,-0.00984*
1,1,0.01575,-0.00787,-0.00984*
1,1,0.01575,-0.00787,0.00984*
%
%ADD13ROUNDEDRECTD13*%
G04:AMPARAMS|DCode=14|XSize=23.62mil|YSize=23.62mil|CornerRadius=5.91mil|HoleSize=0mil|Usage=FLASHONLY|Rotation=0.000|XOffset=0mil|YOffset=0mil|HoleType=Round|Shape=RoundedRectangle|*
%AMROUNDEDRECTD14*
21,1,0.02362,0.01181,0,0,0.0*
21,1,0.01181,0.02362,0,0,0.0*
1,1,0.01181,0.00591,-0.00591*
1,1,0.01181,-0.00591,-0.00591*
1,1,0.01181,-0.00591,0.00591*
1,1,0.01181,0.00591,0.00591*
%
%ADD14ROUNDEDRECTD14*%
G04:AMPARAMS|DCode=15|XSize=23.62mil|YSize=23.62mil|CornerRadius=5.91mil|HoleSize=0mil|Usage=FLASHONLY|Rotation=270.000|XOffset=0mil|YOffset=0mil|HoleType=Round|Shape=RoundedRectangle|*
%AMROUNDEDRECTD15*
21,1,0.02362,0.01181,0,0,270.0*
21,1,0.01181,0.02362,0,0,270.0*
1,1,0.01181,-0.00591,-0.00591*
1,1,0.01181,-0.00591,0.00591*
1,1,0.01181,0.00591,0.00591*
1,1,0.01181,0.00591,-0.00591*
%
%ADD15ROUNDEDRECTD15*%
%ADD16R,0.03150X0.02165*%
G04:AMPARAMS|DCode=17|XSize=29.53mil|YSize=39.37mil|CornerRadius=7.38mil|HoleSize=0mil|Usage=FLASHONLY|Rotation=270.000|XOffset=0mil|YOffset=0mil|HoleType=Round|Shape=RoundedRectangle|*
%AMROUNDEDRECTD17*
21,1,0.02953,0.02461,0,0,270.0*
21,1,0.01476,0.03937,0,0,270.0*
1,1,0.01476,-0.01230,-0.00738*
1,1,0.01476,-0.01230,0.00738*
1,1,0.01476,0.01230,0.00738*
1,1,0.01476,0.01230,-0.00738*
%
%ADD17ROUNDEDRECTD17*%
G04:AMPARAMS|DCode=18|XSize=25.51mil|YSize=22.01mil|CornerRadius=5.5mil|HoleSize=0mil|Usage=FLASHONLY|Rotation=90.000|XOffset=0mil|YOffset=0mil|HoleType=Round|Shape=RoundedRectangle|*
%AMROUNDEDRECTD18*
21,1,0.02551,0.01100,0,0,90.0*
21,1,0.01451,0.02201,0,0,90.0*
1,1,0.01100,0.00550,0.00725*
1,1,0.01100,0.00550,-0.00725*
1,1,0.01100,-0.00550,-0.00725*
1,1,0.01100,-0.00550,0.00725*
%
%ADD18ROUNDEDRECTD18*%
G04:AMPARAMS|DCode=19|XSize=27.56mil|YSize=27.56mil|CornerRadius=6.89mil|HoleSize=0mil|Usage=FLASHONLY|Rotation=90.000|XOffset=0mil|YOffset=0mil|HoleType=Round|Shape=RoundedRectangle|*
%AMROUNDEDRECTD19*
21,1,0.02756,0.01378,0,0,90.0*
21,1,0.01378,0.02756,0,0,90.0*
1,1,0.01378,0.00689,0.00689*
1,1,0.01378,0.00689,-0.00689*
1,1,0.01378,-0.00689,-0.00689*
1,1,0.01378,-0.00689,0.00689*
%
%ADD19ROUNDEDRECTD19*%
G04:AMPARAMS|DCode=20|XSize=32.68mil|YSize=20.47mil|CornerRadius=5.12mil|HoleSize=0mil|Usage=FLASHONLY|Rotation=180.000|XOffset=0mil|YOffset=0mil|HoleType=Round|Shape=RoundedRectangle|*
%AMROUNDEDRECTD20*
21,1,0.03268,0.01024,0,0,180.0*
21,1,0.02244,0.02047,0,0,180.0*
1,1,0.01024,-0.01122,0.00512*
1,1,0.01024,0.01122,0.00512*
1,1,0.01024,0.01122,-0.00512*
1,1,0.01024,-0.01122,-0.00512*
%
%ADD20ROUNDEDRECTD20*%
G04:AMPARAMS|DCode=21|XSize=236.22mil|YSize=43.31mil|CornerRadius=10.83mil|HoleSize=0mil|Usage=FLASHONLY|Rotation=180.000|XOffset=0mil|YOffset=0mil|HoleType=Round|Shape=RoundedRectangle|*
%AMROUNDEDRECTD21*
21,1,0.23622,0.02165,0,0,180.0*
21,1,0.21457,0.04331,0,0,180.0*
1,1,0.02165,-0.10728,0.01083*
1,1,0.02165,0.10728,0.01083*
1,1,0.02165,0.10728,-0.01083*
1,1,0.02165,-0.10728,-0.01083*
%
%ADD21ROUNDEDRECTD21*%
G04:AMPARAMS|DCode=22|XSize=236.22mil|YSize=78.74mil|CornerRadius=19.69mil|HoleSize=0mil|Usage=FLASHONLY|Rotation=180.000|XOffset=0mil|YOffset=0mil|HoleType=Round|Shape=RoundedRectangle|*
%AMROUNDEDRECTD22*
21,1,0.23622,0.03937,0,0,180.0*
21,1,0.19685,0.07874,0,0,180.0*
1,1,0.03937,-0.09843,0.01969*
1,1,0.03937,0.09843,0.01969*
1,1,0.03937,0.09843,-0.01969*
1,1,0.03937,-0.09843,-0.01969*
%
%ADD22ROUNDEDRECTD22*%
G04:AMPARAMS|DCode=23|XSize=31.5mil|YSize=62.99mil|CornerRadius=4.72mil|HoleSize=0mil|Usage=FLASHONLY|Rotation=270.000|XOffset=0mil|YOffset=0mil|HoleType=Round|Shape=RoundedRectangle|*
%AMROUNDEDRECTD23*
21,1,0.03150,0.05354,0,0,270.0*
21,1,0.02205,0.06299,0,0,270.0*
1,1,0.00945,-0.02677,-0.01102*
1,1,0.00945,-0.02677,0.01102*
1,1,0.00945,0.02677,0.01102*
1,1,0.00945,0.02677,-0.01102*
%
%ADD23ROUNDEDRECTD23*%
G04:AMPARAMS|DCode=24|XSize=29.92mil|YSize=62.99mil|CornerRadius=4.49mil|HoleSize=0mil|Usage=FLASHONLY|Rotation=90.000|XOffset=0mil|YOffset=0mil|HoleType=Round|Shape=RoundedRectangle|*
%AMROUNDEDRECTD24*
21,1,0.02992,0.05402,0,0,90.0*
21,1,0.02095,0.06299,0,0,90.0*
1,1,0.00898,0.02701,0.01047*
1,1,0.00898,0.02701,-0.01047*
1,1,0.00898,-0.02701,-0.01047*
1,1,0.00898,-0.02701,0.01047*
%
%ADD24ROUNDEDRECTD24*%
G04:AMPARAMS|DCode=25|XSize=27.56mil|YSize=62.99mil|CornerRadius=4.13mil|HoleSize=0mil|Usage=FLASHONLY|Rotation=90.000|XOffset=0mil|YOffset=0mil|HoleType=Round|Shape=RoundedRectangle|*
%AMROUNDEDRECTD25*
21,1,0.02756,0.05472,0,0,90.0*
21,1,0.01929,0.06299,0,0,90.0*
1,1,0.00827,0.02736,0.00965*
1,1,0.00827,0.02736,-0.00965*
1,1,0.00827,-0.02736,-0.00965*
1,1,0.00827,-0.02736,0.00965*
%
%ADD25ROUNDEDRECTD25*%
%ADD26C,0.03937*%
G04:AMPARAMS|DCode=27|XSize=37.4mil|YSize=57.09mil|CornerRadius=9.35mil|HoleSize=0mil|Usage=FLASHONLY|Rotation=90.000|XOffset=0mil|YOffset=0mil|HoleType=Round|Shape=RoundedRectangle|*
%AMROUNDEDRECTD27*
21,1,0.03740,0.03839,0,0,90.0*
21,1,0.01870,0.05709,0,0,90.0*
1,1,0.01870,0.01919,0.00935*
1,1,0.01870,0.01919,-0.00935*
1,1,0.01870,-0.01919,-0.00935*
1,1,0.01870,-0.01919,0.00935*
%
%ADD27ROUNDEDRECTD27*%
G04:AMPARAMS|DCode=28|XSize=37.4mil|YSize=57.09mil|CornerRadius=9.35mil|HoleSize=0mil|Usage=FLASHONLY|Rotation=0.000|XOffset=0mil|YOffset=0mil|HoleType=Round|Shape=RoundedRectangle|*
%AMROUNDEDRECTD28*
21,1,0.03740,0.03839,0,0,0.0*
21,1,0.01870,0.05709,0,0,0.0*
1,1,0.01870,0.00935,-0.01919*
1,1,0.01870,-0.00935,-0.01919*
1,1,0.01870,-0.00935,0.01919*
1,1,0.01870,0.00935,0.01919*
%
%ADD28ROUNDEDRECTD28*%
%ADD29O,0.03098X0.02980*%
G04:AMPARAMS|DCode=30|XSize=23.62mil|YSize=9.84mil|CornerRadius=2.46mil|HoleSize=0mil|Usage=FLASHONLY|Rotation=45.000|XOffset=0mil|YOffset=0mil|HoleType=Round|Shape=RoundedRectangle|*
%AMROUNDEDRECTD30*
21,1,0.02362,0.00492,0,0,45.0*
21,1,0.01870,0.00984,0,0,45.0*
1,1,0.00492,0.00835,0.00487*
1,1,0.00492,-0.00487,-0.00835*
1,1,0.00492,-0.00835,-0.00487*
1,1,0.00492,0.00487,0.00835*
%
%ADD30ROUNDEDRECTD30*%
G04:AMPARAMS|DCode=31|XSize=23.62mil|YSize=9.84mil|CornerRadius=2.46mil|HoleSize=0mil|Usage=FLASHONLY|Rotation=315.000|XOffset=0mil|YOffset=0mil|HoleType=Round|Shape=RoundedRectangle|*
%AMROUNDEDRECTD31*
21,1,0.02362,0.00492,0,0,315.0*
21,1,0.01870,0.00984,0,0,315.0*
1,1,0.00492,0.00487,-0.00835*
1,1,0.00492,-0.00835,0.00487*
1,1,0.00492,-0.00487,0.00835*
1,1,0.00492,0.00835,-0.00487*
%
%ADD31ROUNDEDRECTD31*%
%ADD32P,0.15033X4X90.0*%
G04:AMPARAMS|DCode=33|XSize=39.37mil|YSize=27.56mil|CornerRadius=6.89mil|HoleSize=0mil|Usage=FLASHONLY|Rotation=90.000|XOffset=0mil|YOffset=0mil|HoleType=Round|Shape=RoundedRectangle|*
%AMROUNDEDRECTD33*
21,1,0.03937,0.01378,0,0,90.0*
21,1,0.02559,0.02756,0,0,90.0*
1,1,0.01378,0.00689,0.01280*
1,1,0.01378,0.00689,-0.01280*
1,1,0.01378,-0.00689,-0.01280*
1,1,0.01378,-0.00689,0.01280*
%
%ADD33ROUNDEDRECTD33*%
G04:AMPARAMS|DCode=34|XSize=26.38mil|YSize=11.81mil|CornerRadius=1.77mil|HoleSize=0mil|Usage=FLASHONLY|Rotation=270.000|XOffset=0mil|YOffset=0mil|HoleType=Round|Shape=RoundedRectangle|*
%AMROUNDEDRECTD34*
21,1,0.02638,0.00827,0,0,270.0*
21,1,0.02284,0.01181,0,0,270.0*
1,1,0.00354,-0.00413,-0.01142*
1,1,0.00354,-0.00413,0.01142*
1,1,0.00354,0.00413,0.01142*
1,1,0.00354,0.00413,-0.01142*
%
%ADD34ROUNDEDRECTD34*%
G04:AMPARAMS|DCode=35|XSize=114.17mil|YSize=212.6mil|CornerRadius=17.13mil|HoleSize=0mil|Usage=FLASHONLY|Rotation=180.000|XOffset=0mil|YOffset=0mil|HoleType=Round|Shape=RoundedRectangle|*
%AMROUNDEDRECTD35*
21,1,0.11417,0.17835,0,0,180.0*
21,1,0.07992,0.21260,0,0,180.0*
1,1,0.03425,-0.03996,0.08917*
1,1,0.03425,0.03996,0.08917*
1,1,0.03425,0.03996,-0.08917*
1,1,0.03425,-0.03996,-0.08917*
%
%ADD35ROUNDEDRECTD35*%
G04:AMPARAMS|DCode=36|XSize=13.78mil|YSize=11.81mil|CornerRadius=0mil|HoleSize=0mil|Usage=FLASHONLY|Rotation=315.000|XOffset=0mil|YOffset=0mil|HoleType=Round|Shape=Rectangle|*
%AMROTATEDRECTD36*
4,1,4,-0.00905,0.00070,-0.00070,0.00905,0.00905,-0.00070,0.00070,-0.00905,-0.00905,0.00070,0.0*
%
%ADD36ROTATEDRECTD36*%

G04:AMPARAMS|DCode=37|XSize=27.56mil|YSize=11.81mil|CornerRadius=0mil|HoleSize=0mil|Usage=FLASHONLY|Rotation=45.000|XOffset=0mil|YOffset=0mil|HoleType=Round|Shape=Rectangle|*
%AMROTATEDRECTD37*
4,1,4,-0.00557,-0.01392,-0.01392,-0.00557,0.00557,0.01392,0.01392,0.00557,-0.00557,-0.01392,0.0*
%
%ADD37ROTATEDRECTD37*%

G04:AMPARAMS|DCode=38|XSize=27.56mil|YSize=11.81mil|CornerRadius=0mil|HoleSize=0mil|Usage=FLASHONLY|Rotation=135.000|XOffset=0mil|YOffset=0mil|HoleType=Round|Shape=Rectangle|*
%AMROTATEDRECTD38*
4,1,4,0.01392,-0.00557,0.00557,-0.01392,-0.01392,0.00557,-0.00557,0.01392,0.01392,-0.00557,0.0*
%
%ADD38ROTATEDRECTD38*%

G04:AMPARAMS|DCode=39|XSize=13.78mil|YSize=11.81mil|CornerRadius=0mil|HoleSize=0mil|Usage=FLASHONLY|Rotation=225.000|XOffset=0mil|YOffset=0mil|HoleType=Round|Shape=Rectangle|*
%AMROTATEDRECTD39*
4,1,4,0.00070,0.00905,0.00905,0.00070,-0.00070,-0.00905,-0.00905,-0.00070,0.00070,0.00905,0.0*
%
%ADD39ROTATEDRECTD39*%

%ADD40R,0.02992X0.08661*%
%ADD41R,0.01772X0.01575*%
%ADD42R,0.04409X0.06772*%
%ADD43C,0.02953*%
%ADD44C,0.01181*%
%ADD45C,0.00787*%
%ADD46C,0.00591*%
%ADD47C,0.03937*%
%ADD48C,0.05906*%
%ADD49C,0.01969*%
%ADD50C,0.05906*%
%ADD51C,0.15748*%
%ADD52O,0.06299X0.03937*%
%ADD53C,0.03150*%
%ADD54C,0.02756*%
G36*
X-2235Y334510D02*
X1400Y333971D01*
X4965Y333078D01*
X8425Y331840D01*
X11747Y330269D01*
X14899Y328380D01*
X17850Y326191D01*
X20573Y323723D01*
X23041Y321000D01*
X25230Y318048D01*
X27119Y314896D01*
X28691Y311574D01*
X29929Y308114D01*
X30822Y304550D01*
X31361Y300915D01*
X31539Y297289D01*
X31496Y297244D01*
X31496D01*
X31541Y5906D01*
X31361Y2235D01*
X30822Y-1400D01*
X29929Y-4965D01*
X28691Y-8425D01*
X27119Y-11747D01*
X25230Y-14899D01*
X23041Y-17850D01*
X20573Y-20573D01*
X17850Y-23041D01*
X14899Y-25230D01*
X11747Y-27119D01*
X8425Y-28691D01*
X4965Y-29929D01*
X1400Y-30822D01*
X-2235Y-31361D01*
X-5861Y-31539D01*
X-5906Y-31496D01*
Y-31496D01*
X-612205Y-31541D01*
X-615875Y-31361D01*
X-619510Y-30822D01*
X-623075Y-29929D01*
X-626535Y-28691D01*
X-629857Y-27119D01*
X-633009Y-25230D01*
X-635961Y-23041D01*
X-638684Y-20573D01*
X-641151Y-17850D01*
X-643340Y-14899D01*
X-645230Y-11747D01*
X-646801Y-8425D01*
X-648039Y-4965D01*
X-648932Y-1400D01*
X-649471Y2235D01*
X-649649Y5861D01*
X-649606Y5906D01*
X-649606D01*
X-649651Y297244D01*
X-649471Y300915D01*
X-648932Y304550D01*
X-648039Y308114D01*
X-646801Y311574D01*
X-645230Y314896D01*
X-643340Y318048D01*
X-641151Y321000D01*
X-638684Y323723D01*
X-635961Y326191D01*
X-633009Y328380D01*
X-629857Y330269D01*
X-626535Y331840D01*
X-623075Y333078D01*
X-619510Y333971D01*
X-615875Y334510D01*
X-612250Y334689D01*
X-612205Y334646D01*
Y334646D01*
X-5906Y334691D01*
X-2235Y334510D01*
D02*
G37*
%LPC*%
G36*
X-21457Y145203D02*
X-21594Y145184D01*
X-22456Y144827D01*
X-23196Y144259D01*
X-23764Y143519D01*
X-24121Y142657D01*
X-24139Y142520D01*
X-21457D01*
Y145203D01*
D02*
G37*
G36*
X-19882D02*
Y142520D01*
X-17199D01*
X-17217Y142657D01*
X-17574Y143519D01*
X-18142Y144259D01*
X-18882Y144827D01*
X-19744Y145184D01*
X-19882Y145203D01*
D02*
G37*
G36*
X-32579Y144517D02*
X-54035D01*
X-54070Y144510D01*
X-131693D01*
X-132361Y144422D01*
X-132984Y144165D01*
X-133518Y143754D01*
X-133928Y143220D01*
X-134186Y142597D01*
X-134274Y141929D01*
X-134186Y141261D01*
X-133928Y140639D01*
X-133518Y140104D01*
X-132984Y139694D01*
X-132361Y139436D01*
X-131693Y139348D01*
X-54070D01*
X-54035Y139341D01*
X-32579D01*
X-32003Y139456D01*
X-31514Y139782D01*
X-31188Y140270D01*
X-31073Y140847D01*
Y143012D01*
X-31188Y143588D01*
X-31514Y144076D01*
X-32003Y144403D01*
X-32579Y144517D01*
D02*
G37*
G36*
X3150Y140945D02*
X467D01*
X485Y140807D01*
X842Y139945D01*
X1410Y139205D01*
X2150Y138637D01*
X3012Y138280D01*
X3150Y138262D01*
Y140945D01*
D02*
G37*
G36*
X-564075Y144517D02*
X-585532D01*
X-586107Y144403D01*
X-586596Y144076D01*
X-586922Y143588D01*
X-587037Y143012D01*
Y140847D01*
X-586922Y140270D01*
X-586596Y139782D01*
X-586107Y139456D01*
X-585532Y139341D01*
X-564075D01*
X-563499Y139456D01*
X-563010Y139782D01*
X-562684Y140270D01*
X-562570Y140847D01*
Y143012D01*
X-562684Y143588D01*
X-563010Y144076D01*
X-563499Y144403D01*
X-564075Y144517D01*
D02*
G37*
G36*
X3150Y145203D02*
X3012Y145184D01*
X2150Y144827D01*
X1410Y144259D01*
X842Y143519D01*
X485Y142657D01*
X467Y142520D01*
X3150D01*
Y145203D01*
D02*
G37*
G36*
X-564075Y223257D02*
X-585532D01*
X-586107Y223143D01*
X-586596Y222816D01*
X-586922Y222328D01*
X-587037Y221752D01*
Y219587D01*
X-586922Y219011D01*
X-586596Y218522D01*
X-586107Y218196D01*
X-585532Y218081D01*
X-564075D01*
X-563499Y218196D01*
X-563010Y218522D01*
X-562684Y219011D01*
X-562570Y219587D01*
Y221752D01*
X-562684Y222328D01*
X-563010Y222816D01*
X-563499Y223143D01*
X-564075Y223257D01*
D02*
G37*
G36*
X-32579D02*
X-54035D01*
X-54070Y223250D01*
X-131693D01*
X-132361Y223163D01*
X-132984Y222905D01*
X-133518Y222494D01*
X-133928Y221960D01*
X-134186Y221337D01*
X-134274Y220669D01*
X-134186Y220001D01*
X-133928Y219379D01*
X-133518Y218844D01*
X-132984Y218434D01*
X-132361Y218176D01*
X-131693Y218088D01*
X-54070D01*
X-54035Y218081D01*
X-32579D01*
X-32003Y218196D01*
X-31514Y218522D01*
X-31188Y219011D01*
X-31073Y219587D01*
Y221752D01*
X-31188Y222328D01*
X-31514Y222816D01*
X-32003Y223143D01*
X-32579Y223257D01*
D02*
G37*
G36*
Y217352D02*
X-54035D01*
X-54070Y217345D01*
X-121850D01*
X-122518Y217257D01*
X-123141Y216999D01*
X-123676Y216589D01*
X-124086Y216054D01*
X-124344Y215432D01*
X-124432Y214764D01*
X-124344Y214096D01*
X-124086Y213473D01*
X-123676Y212939D01*
X-123141Y212528D01*
X-122518Y212271D01*
X-121850Y212183D01*
X-54070D01*
X-54035Y212176D01*
X-32579D01*
X-32003Y212290D01*
X-31514Y212617D01*
X-31188Y213105D01*
X-31073Y213681D01*
Y215846D01*
X-31188Y216423D01*
X-31514Y216911D01*
X-32003Y217237D01*
X-32579Y217352D01*
D02*
G37*
G36*
X-564961Y168550D02*
X-584646D01*
X-585567Y168367D01*
X-586349Y167845D01*
X-586871Y167063D01*
X-587054Y166142D01*
Y162205D01*
X-586871Y161283D01*
X-586349Y160502D01*
X-585567Y159980D01*
X-584646Y159796D01*
X-564961D01*
X-564039Y159980D01*
X-563258Y160502D01*
X-562736Y161283D01*
X-562552Y162205D01*
Y166142D01*
X-562736Y167063D01*
X-563258Y167845D01*
X-564039Y168367D01*
X-564961Y168550D01*
D02*
G37*
G36*
X-564075Y217352D02*
X-585532D01*
X-586107Y217237D01*
X-586596Y216911D01*
X-586922Y216423D01*
X-587037Y215846D01*
Y213681D01*
X-586922Y213105D01*
X-586596Y212617D01*
X-586107Y212290D01*
X-585532Y212176D01*
X-564075D01*
X-563499Y212290D01*
X-563010Y212617D01*
X-562684Y213105D01*
X-562570Y213681D01*
Y215846D01*
X-562684Y216423D01*
X-563010Y216911D01*
X-563499Y217237D01*
X-564075Y217352D01*
D02*
G37*
G36*
X-17199Y140945D02*
X-19882D01*
Y138262D01*
X-19744Y138280D01*
X-18882Y138637D01*
X-18142Y139205D01*
X-17574Y139945D01*
X-17217Y140807D01*
X-17199Y140945D01*
D02*
G37*
G36*
X-61417Y6299D02*
X-62795D01*
Y6232D01*
X-65059D01*
X-65674Y6109D01*
X-66194Y5761D01*
X-66543Y5240D01*
X-66665Y4626D01*
X-66543Y4011D01*
X-66194Y3491D01*
X-65674Y3143D01*
X-65059Y3020D01*
X-62795D01*
Y2953D01*
X-61417D01*
Y4626D01*
Y6299D01*
D02*
G37*
G36*
X-564075Y59871D02*
X-585532D01*
X-586107Y59757D01*
X-586596Y59431D01*
X-586922Y58942D01*
X-587037Y58366D01*
Y56201D01*
X-586922Y55625D01*
X-586596Y55136D01*
X-586107Y54810D01*
X-585532Y54695D01*
X-564075D01*
X-563499Y54810D01*
X-563010Y55136D01*
X-562684Y55625D01*
X-562570Y56201D01*
Y58366D01*
X-562684Y58942D01*
X-563010Y59431D01*
X-563499Y59757D01*
X-564075Y59871D01*
D02*
G37*
G36*
X-63681Y-374D02*
X-64862D01*
X-65246Y-451D01*
X-65572Y-668D01*
X-65789Y-994D01*
X-65866Y-1378D01*
Y-2559D01*
X-65789Y-2943D01*
X-65572Y-3269D01*
X-65476Y-3333D01*
Y-4935D01*
X-65572Y-4999D01*
X-65636Y-5095D01*
X-67255D01*
X-67588Y-4596D01*
X-68370Y-4074D01*
X-69291Y-3891D01*
X-70213Y-4074D01*
X-70994Y-4596D01*
X-71517Y-5378D01*
X-71700Y-6299D01*
X-71517Y-7221D01*
X-70994Y-8002D01*
X-70213Y-8524D01*
X-69291Y-8708D01*
X-68370Y-8524D01*
X-67588Y-8002D01*
X-67255Y-7503D01*
X-65636D01*
X-65572Y-7599D01*
X-65246Y-7817D01*
X-64862Y-7893D01*
X-63681D01*
X-63297Y-7817D01*
X-62972Y-7599D01*
X-62754Y-7274D01*
X-62678Y-6890D01*
Y-5709D01*
X-62754Y-5325D01*
X-62972Y-4999D01*
X-63067Y-4935D01*
Y-3333D01*
X-62972Y-3269D01*
X-62754Y-2943D01*
X-62678Y-2559D01*
Y-1378D01*
X-62754Y-994D01*
X-62972Y-668D01*
X-63297Y-451D01*
X-63681Y-374D01*
D02*
G37*
G36*
X-618110Y24349D02*
X-620836Y24196D01*
X-623528Y23739D01*
X-626152Y22983D01*
X-628675Y21938D01*
X-631065Y20617D01*
X-633292Y19037D01*
X-635328Y17218D01*
X-637147Y15182D01*
X-638727Y12955D01*
X-640048Y10565D01*
X-641093Y8042D01*
X-641849Y5418D01*
X-642307Y2726D01*
X-642460Y0D01*
X-642307Y-2726D01*
X-641849Y-5418D01*
X-641093Y-8042D01*
X-640048Y-10565D01*
X-638727Y-12955D01*
X-637147Y-15182D01*
X-635328Y-17218D01*
X-633292Y-19037D01*
X-631065Y-20617D01*
X-628675Y-21938D01*
X-626152Y-22983D01*
X-623528Y-23739D01*
X-620836Y-24196D01*
X-618110Y-24349D01*
X-615384Y-24196D01*
X-612692Y-23739D01*
X-610068Y-22983D01*
X-607546Y-21938D01*
X-605156Y-20617D01*
X-602929Y-19037D01*
X-600893Y-17218D01*
X-599073Y-15182D01*
X-597493Y-12955D01*
X-596172Y-10565D01*
X-595127Y-8042D01*
X-594371Y-5418D01*
X-593914Y-2726D01*
X-593761Y0D01*
X-593914Y2726D01*
X-594371Y5418D01*
X-595127Y8042D01*
X-596172Y10565D01*
X-597493Y12955D01*
X-599073Y15182D01*
X-600893Y17218D01*
X-602929Y19037D01*
X-605156Y20617D01*
X-607546Y21938D01*
X-610068Y22983D01*
X-612692Y23739D01*
X-615384Y24196D01*
X-618110Y24349D01*
D02*
G37*
G36*
X-456693Y28286D02*
X-459419Y28133D01*
X-462111Y27676D01*
X-464735Y26920D01*
X-467258Y25875D01*
X-469648Y24554D01*
X-471875Y22974D01*
X-473911Y21155D01*
X-475730Y19119D01*
X-477310Y16892D01*
X-478631Y14502D01*
X-479676Y11979D01*
X-480432Y9355D01*
X-480889Y6663D01*
X-481042Y3937D01*
X-480889Y1211D01*
X-480432Y-1481D01*
X-479676Y-4105D01*
X-478631Y-6628D01*
X-477310Y-9018D01*
X-475730Y-11244D01*
X-473911Y-13281D01*
X-471875Y-15100D01*
X-469648Y-16680D01*
X-467258Y-18001D01*
X-464735Y-19046D01*
X-462111Y-19802D01*
X-459419Y-20259D01*
X-456693Y-20412D01*
X-453967Y-20259D01*
X-451275Y-19802D01*
X-448651Y-19046D01*
X-446128Y-18001D01*
X-443738Y-16680D01*
X-441511Y-15100D01*
X-439475Y-13281D01*
X-437656Y-11244D01*
X-436076Y-9018D01*
X-434755Y-6628D01*
X-433710Y-4105D01*
X-432954Y-1481D01*
X-432497Y1211D01*
X-432344Y3937D01*
X-432497Y6663D01*
X-432954Y9355D01*
X-433710Y11979D01*
X-434755Y14502D01*
X-436076Y16892D01*
X-437656Y19119D01*
X-439475Y21155D01*
X-441511Y22974D01*
X-443738Y24554D01*
X-446128Y25875D01*
X-448651Y26920D01*
X-451275Y27676D01*
X-453967Y28133D01*
X-456693Y28286D01*
D02*
G37*
G36*
X-564075Y65777D02*
X-585532D01*
X-586107Y65662D01*
X-586596Y65336D01*
X-586922Y64848D01*
X-587037Y64272D01*
Y62106D01*
X-586922Y61530D01*
X-586596Y61042D01*
X-586107Y60716D01*
X-585532Y60601D01*
X-564075D01*
X-563499Y60716D01*
X-563010Y61042D01*
X-562684Y61530D01*
X-562570Y62106D01*
Y64272D01*
X-562684Y64848D01*
X-563010Y65336D01*
X-563499Y65662D01*
X-564075Y65777D01*
D02*
G37*
G36*
Y138612D02*
X-585532D01*
X-586107Y138497D01*
X-586596Y138171D01*
X-586922Y137682D01*
X-587037Y137106D01*
Y134941D01*
X-586922Y134365D01*
X-586596Y133877D01*
X-586107Y133550D01*
X-585532Y133436D01*
X-564075D01*
X-563499Y133550D01*
X-563010Y133877D01*
X-562684Y134365D01*
X-562570Y134941D01*
Y137106D01*
X-562684Y137682D01*
X-563010Y138171D01*
X-563499Y138497D01*
X-564075Y138612D01*
D02*
G37*
G36*
X-21457Y140945D02*
X-24139D01*
X-24121Y140807D01*
X-23764Y139945D01*
X-23196Y139205D01*
X-22456Y138637D01*
X-21594Y138280D01*
X-21457Y138262D01*
Y140945D01*
D02*
G37*
G36*
X-37470Y106595D02*
X-40157D01*
Y104891D01*
X-39026D01*
X-38430Y105010D01*
X-37926Y105347D01*
X-37589Y105852D01*
X-37470Y106447D01*
Y106595D01*
D02*
G37*
G36*
X-564961Y89810D02*
X-584646D01*
X-585567Y89627D01*
X-586349Y89105D01*
X-586871Y88323D01*
X-587054Y87402D01*
Y83465D01*
X-586871Y82543D01*
X-586349Y81761D01*
X-585567Y81239D01*
X-584646Y81056D01*
X-564961D01*
X-564039Y81239D01*
X-563258Y81761D01*
X-562736Y82543D01*
X-562552Y83465D01*
Y87402D01*
X-562736Y88323D01*
X-563258Y89105D01*
X-564039Y89627D01*
X-564961Y89810D01*
D02*
G37*
G36*
X-27559Y100971D02*
X-28250Y100833D01*
X-28836Y100442D01*
X-28885Y100369D01*
X-30395D01*
X-30491Y100513D01*
X-30817Y100730D01*
X-31201Y100807D01*
X-32382D01*
X-32766Y100730D01*
X-33092Y100513D01*
X-33309Y100187D01*
X-33385Y99803D01*
Y98622D01*
X-33309Y98238D01*
X-33092Y97913D01*
X-32766Y97695D01*
X-32382Y97619D01*
X-31201D01*
X-30817Y97695D01*
X-30491Y97913D01*
X-30459Y97960D01*
X-28885D01*
X-28836Y97887D01*
X-28250Y97496D01*
X-27559Y97358D01*
X-26868Y97496D01*
X-26282Y97887D01*
X-25890Y98473D01*
X-25753Y99164D01*
X-25890Y99856D01*
X-26282Y100442D01*
X-26868Y100833D01*
X-27559Y100971D01*
D02*
G37*
G36*
X-564961Y247290D02*
X-584646D01*
X-585567Y247107D01*
X-586349Y246585D01*
X-586871Y245804D01*
X-587054Y244882D01*
Y240945D01*
X-586871Y240023D01*
X-586349Y239242D01*
X-585567Y238720D01*
X-584646Y238536D01*
X-564961D01*
X-564039Y238720D01*
X-563258Y239242D01*
X-562736Y240023D01*
X-562552Y240945D01*
Y244882D01*
X-562736Y245804D01*
X-563258Y246585D01*
X-564039Y247107D01*
X-564961Y247290D01*
D02*
G37*
G36*
X-63346Y290748D02*
X-67126D01*
Y281299D01*
X-63346D01*
Y290748D01*
D02*
G37*
G36*
X-58346D02*
X-62126D01*
Y281299D01*
X-58346D01*
Y290748D01*
D02*
G37*
G36*
X0Y327499D02*
X-2726Y327346D01*
X-5418Y326888D01*
X-8042Y326132D01*
X-10565Y325088D01*
X-12955Y323767D01*
X-15182Y322187D01*
X-17218Y320367D01*
X-19037Y318331D01*
X-20617Y316104D01*
X-21938Y313714D01*
X-22983Y311192D01*
X-23739Y308568D01*
X-24196Y305876D01*
X-24349Y303150D01*
X-24196Y300423D01*
X-23739Y297731D01*
X-22983Y295108D01*
X-21938Y292585D01*
X-20617Y290195D01*
X-19037Y287968D01*
X-17218Y285932D01*
X-15182Y284113D01*
X-12955Y282533D01*
X-10565Y281212D01*
X-8042Y280167D01*
X-5418Y279411D01*
X-2726Y278953D01*
X0Y278800D01*
X2726Y278953D01*
X5418Y279411D01*
X8042Y280167D01*
X10565Y281212D01*
X12955Y282533D01*
X15182Y284113D01*
X17218Y285932D01*
X19037Y287968D01*
X20617Y290195D01*
X21938Y292585D01*
X22983Y295108D01*
X23739Y297731D01*
X24196Y300423D01*
X24349Y303150D01*
X24196Y305876D01*
X23739Y308568D01*
X22983Y311192D01*
X21938Y313714D01*
X20617Y316104D01*
X19037Y318331D01*
X17218Y320367D01*
X15182Y322187D01*
X12955Y323767D01*
X10565Y325088D01*
X8042Y326132D01*
X5418Y326888D01*
X2726Y327346D01*
X0Y327499D01*
D02*
G37*
G36*
X-48346Y305315D02*
X-52126D01*
Y295866D01*
X-51759D01*
X-51441Y295512D01*
X-51349Y295051D01*
X-51088Y294660D01*
X-48055Y291627D01*
Y291127D01*
X-48346Y290748D01*
X-52126D01*
Y281299D01*
X-51441D01*
Y275504D01*
X-51609Y275378D01*
X-51919Y275275D01*
X-54032Y277389D01*
Y281299D01*
X-53347D01*
Y290748D01*
X-57126D01*
Y281299D01*
X-56441D01*
Y276890D01*
X-56441Y276890D01*
X-56851Y276392D01*
X-56957Y276377D01*
X-60172Y279592D01*
X-60563Y279853D01*
X-61024Y279944D01*
X-61024Y279944D01*
X-67611D01*
X-68528Y280861D01*
X-68347Y281299D01*
X-68346D01*
X-68347Y281299D01*
Y290748D01*
X-72126D01*
Y281299D01*
X-71631D01*
X-71441Y280866D01*
X-71349Y280405D01*
X-71088Y280015D01*
X-68962Y277889D01*
X-68571Y277628D01*
X-68110Y277536D01*
X-68110Y277536D01*
X-61523D01*
X-30338Y246352D01*
Y207585D01*
X-48924Y188999D01*
X-64361D01*
X-64821Y189307D01*
X-65512Y189444D01*
X-66203Y189307D01*
X-66789Y188915D01*
X-67181Y188329D01*
X-67318Y187638D01*
X-67181Y186946D01*
X-67045Y186744D01*
X-67312Y186244D01*
X-68910D01*
X-69053Y186459D01*
X-69704Y186894D01*
X-70472Y187046D01*
X-71241Y186894D01*
X-71892Y186459D01*
X-72327Y185807D01*
X-72479Y185039D01*
X-72327Y184271D01*
X-71892Y183620D01*
X-71241Y183185D01*
X-70472Y183032D01*
X-69704Y183185D01*
X-69053Y183620D01*
X-68910Y183835D01*
X-61807D01*
X-61656Y183335D01*
X-61907Y183167D01*
X-62299Y182581D01*
X-62436Y181890D01*
X-62299Y181199D01*
X-61907Y180613D01*
X-61321Y180221D01*
X-60630Y180083D01*
X-59939Y180221D01*
X-59353Y180613D01*
X-59304Y180685D01*
X-57995D01*
X-57727Y180185D01*
X-57968Y179825D01*
X-58106Y179134D01*
X-57968Y178443D01*
X-57577Y177857D01*
X-56990Y177465D01*
X-56299Y177328D01*
X-55608Y177465D01*
X-55022Y177857D01*
X-54973Y177930D01*
X-42126D01*
X-42126Y177930D01*
X-41665Y178021D01*
X-41274Y178282D01*
X-19227Y200330D01*
X-18966Y200720D01*
X-18875Y201181D01*
X-18875Y201181D01*
Y248819D01*
X-18966Y249280D01*
X-19071Y249436D01*
X-19227Y249670D01*
X-19227Y249670D01*
X-45646Y276089D01*
Y292126D01*
X-45738Y292587D01*
X-45999Y292977D01*
X-45999Y292977D01*
X-48434Y295412D01*
X-48346Y295866D01*
X-48346D01*
X-48346Y295866D01*
Y305315D01*
D02*
G37*
G36*
X-618110Y327499D02*
X-620836Y327346D01*
X-623528Y326888D01*
X-626152Y326132D01*
X-628675Y325088D01*
X-631065Y323767D01*
X-633292Y322187D01*
X-635328Y320367D01*
X-637147Y318331D01*
X-638727Y316104D01*
X-640048Y313714D01*
X-641093Y311192D01*
X-641849Y308568D01*
X-642307Y305876D01*
X-642460Y303150D01*
X-642307Y300423D01*
X-641849Y297731D01*
X-641093Y295108D01*
X-640048Y292585D01*
X-638727Y290195D01*
X-637147Y287968D01*
X-635328Y285932D01*
X-633292Y284113D01*
X-631065Y282533D01*
X-628675Y281212D01*
X-626152Y280167D01*
X-623528Y279411D01*
X-620836Y278953D01*
X-618110Y278800D01*
X-615384Y278953D01*
X-612692Y279411D01*
X-610068Y280167D01*
X-607546Y281212D01*
X-605156Y282533D01*
X-602929Y284113D01*
X-600893Y285932D01*
X-599073Y287968D01*
X-597493Y290195D01*
X-596172Y292585D01*
X-595127Y295108D01*
X-594371Y297731D01*
X-593914Y300423D01*
X-593761Y303150D01*
X-593914Y305876D01*
X-594371Y308568D01*
X-595127Y311192D01*
X-596172Y313714D01*
X-597493Y316104D01*
X-599073Y318331D01*
X-600893Y320367D01*
X-602929Y322187D01*
X-605156Y323767D01*
X-607546Y325088D01*
X-610068Y326132D01*
X-612692Y326888D01*
X-615384Y327346D01*
X-618110Y327499D01*
D02*
G37*
G36*
X-61024Y299803D02*
X-62323D01*
Y295669D01*
X-61024D01*
Y299803D01*
D02*
G37*
G36*
X-53150D02*
X-54449D01*
Y295669D01*
X-53150D01*
Y299803D01*
D02*
G37*
G36*
X-56024D02*
X-57323D01*
Y295669D01*
X-56024D01*
Y299803D01*
D02*
G37*
G36*
X-68150D02*
X-69449D01*
Y295669D01*
X-68150D01*
Y299803D01*
D02*
G37*
G36*
X-71024D02*
X-72323D01*
Y295669D01*
X-71024D01*
Y299803D01*
D02*
G37*
G36*
X-63346Y305315D02*
X-67126D01*
Y295866D01*
X-63346D01*
Y305315D01*
D02*
G37*
G36*
X-70079Y310259D02*
X-70540Y310168D01*
X-70930Y309907D01*
X-71191Y309516D01*
X-71283Y309055D01*
Y305512D01*
X-72323D01*
Y301378D01*
X-70236D01*
X-68150D01*
Y305512D01*
X-68875D01*
Y309055D01*
X-68966Y309516D01*
X-69227Y309907D01*
X-69618Y310168D01*
X-70079Y310259D01*
D02*
G37*
G36*
X-58150Y299803D02*
X-59449D01*
Y295669D01*
X-58150D01*
Y299803D01*
D02*
G37*
G36*
X-33465Y247290D02*
X-53150D01*
X-54071Y247107D01*
X-54853Y246585D01*
X-54918Y246487D01*
X-110236D01*
X-111161Y246365D01*
X-112023Y246008D01*
X-112763Y245441D01*
X-113331Y244700D01*
X-113688Y243838D01*
X-113810Y242913D01*
X-113688Y241988D01*
X-113331Y241126D01*
X-112763Y240386D01*
X-112023Y239818D01*
X-111161Y239461D01*
X-110236Y239339D01*
X-54918D01*
X-54853Y239242D01*
X-54071Y238720D01*
X-53150Y238536D01*
X-33465D01*
X-32543Y238720D01*
X-31762Y239242D01*
X-31239Y240023D01*
X-31056Y240945D01*
Y244882D01*
X-31239Y245804D01*
X-31762Y246585D01*
X-32543Y247107D01*
X-33465Y247290D01*
D02*
G37*
G36*
X-60236Y310653D02*
X-60697Y310561D01*
X-61088Y310300D01*
X-61349Y309910D01*
X-61440Y309449D01*
Y305512D01*
X-62323D01*
Y301378D01*
X-60236D01*
X-58150D01*
Y305512D01*
X-59032D01*
Y309449D01*
X-59124Y309910D01*
X-59385Y310300D01*
X-59775Y310561D01*
X-60236Y310653D01*
D02*
G37*
G36*
X-55118D02*
X-55579Y310561D01*
X-55970Y310300D01*
X-56231Y309910D01*
X-56322Y309449D01*
Y305512D01*
X-57323D01*
Y301378D01*
X-55236D01*
X-53150D01*
Y305512D01*
X-53914D01*
Y309449D01*
X-54005Y309910D01*
X-54267Y310300D01*
X-54657Y310561D01*
X-55118Y310653D01*
D02*
G37*
G36*
X-9449Y268550D02*
X-10370Y268367D01*
X-11152Y267845D01*
X-11674Y267063D01*
X-11857Y266142D01*
X-11674Y265220D01*
X-11152Y264439D01*
X-10653Y264105D01*
Y262486D01*
X-10749Y262422D01*
X-10965Y262099D01*
X-10976Y262097D01*
X-11465D01*
X-11476Y262099D01*
X-11692Y262422D01*
X-12017Y262640D01*
X-12402Y262716D01*
X-13583D01*
X-13967Y262640D01*
X-14292Y262422D01*
X-14491Y262126D01*
X-15037D01*
X-15235Y262422D01*
X-15561Y262640D01*
X-15945Y262716D01*
X-17126D01*
X-17510Y262640D01*
X-17836Y262422D01*
X-18053Y262097D01*
X-18129Y261713D01*
Y260531D01*
X-18053Y260148D01*
X-17836Y259822D01*
X-17510Y259604D01*
X-17126Y259528D01*
X-15945D01*
X-15561Y259604D01*
X-15235Y259822D01*
X-15037Y260119D01*
X-14491D01*
X-14292Y259822D01*
X-13967Y259604D01*
X-13583Y259528D01*
X-12402D01*
X-12017Y259604D01*
X-11692Y259822D01*
X-11476Y260145D01*
X-11465Y260148D01*
X-10976D01*
X-10965Y260145D01*
X-10749Y259822D01*
X-10423Y259604D01*
X-10039Y259528D01*
X-8858D01*
X-8474Y259604D01*
X-8149Y259822D01*
X-7950Y260119D01*
X320D01*
X562Y259842D01*
X677Y258969D01*
X1014Y258155D01*
X1550Y257456D01*
X2249Y256919D01*
X3063Y256582D01*
X3937Y256467D01*
X4811Y256582D01*
X5625Y256919D01*
X6324Y257456D01*
X6860Y258155D01*
X7197Y258969D01*
X7312Y259842D01*
X7197Y260716D01*
X6860Y261530D01*
X6324Y262229D01*
X5625Y262766D01*
X4811Y263103D01*
X3937Y263218D01*
X3063Y263103D01*
X2249Y262766D01*
X1550Y262229D01*
X1471Y262126D01*
X-7950D01*
X-8149Y262422D01*
X-8245Y262486D01*
Y264105D01*
X-7746Y264439D01*
X-7224Y265220D01*
X-7040Y266142D01*
X-7224Y267063D01*
X-7746Y267845D01*
X-8527Y268367D01*
X-9449Y268550D01*
D02*
G37*
G36*
X-456693Y323562D02*
X-459419Y323409D01*
X-462111Y322952D01*
X-464735Y322196D01*
X-467258Y321151D01*
X-469648Y319830D01*
X-471875Y318250D01*
X-473911Y316430D01*
X-475730Y314394D01*
X-477310Y312167D01*
X-478631Y309777D01*
X-479676Y307255D01*
X-480432Y304631D01*
X-480889Y301939D01*
X-481042Y299213D01*
X-480889Y296486D01*
X-480432Y293794D01*
X-479676Y291171D01*
X-478631Y288648D01*
X-477310Y286258D01*
X-475730Y284031D01*
X-473911Y281995D01*
X-471875Y280175D01*
X-469648Y278595D01*
X-467258Y277275D01*
X-464735Y276230D01*
X-462111Y275474D01*
X-459419Y275016D01*
X-456693Y274863D01*
X-453967Y275016D01*
X-451275Y275474D01*
X-448651Y276230D01*
X-446128Y277275D01*
X-443738Y278595D01*
X-441511Y280175D01*
X-439475Y281995D01*
X-437656Y284031D01*
X-436076Y286258D01*
X-434755Y288648D01*
X-433710Y291171D01*
X-432954Y293794D01*
X-432497Y296486D01*
X-432344Y299213D01*
X-432497Y301939D01*
X-432954Y304631D01*
X-433710Y307255D01*
X-434755Y309777D01*
X-436076Y312167D01*
X-437656Y314394D01*
X-439475Y316430D01*
X-441511Y318250D01*
X-443738Y319830D01*
X-446128Y321151D01*
X-448651Y322196D01*
X-451275Y322952D01*
X-453967Y323409D01*
X-456693Y323562D01*
D02*
G37*
G36*
X-161417D02*
X-164144Y323409D01*
X-166836Y322952D01*
X-169459Y322196D01*
X-171982Y321151D01*
X-174372Y319830D01*
X-176599Y318250D01*
X-178635Y316430D01*
X-180454Y314394D01*
X-182035Y312167D01*
X-183355Y309777D01*
X-184400Y307255D01*
X-185156Y304631D01*
X-185614Y301939D01*
X-185767Y299213D01*
X-185614Y296486D01*
X-185156Y293794D01*
X-184400Y291171D01*
X-183355Y288648D01*
X-182035Y286258D01*
X-180454Y284031D01*
X-178635Y281995D01*
X-176599Y280175D01*
X-174372Y278595D01*
X-171982Y277275D01*
X-169459Y276230D01*
X-166836Y275474D01*
X-164144Y275016D01*
X-161417Y274863D01*
X-158691Y275016D01*
X-155999Y275474D01*
X-153375Y276230D01*
X-150853Y277275D01*
X-148463Y278595D01*
X-146236Y280175D01*
X-144200Y281995D01*
X-142380Y284031D01*
X-140800Y286258D01*
X-139479Y288648D01*
X-138434Y291171D01*
X-137679Y293794D01*
X-137221Y296486D01*
X-137068Y299213D01*
X-137221Y301939D01*
X-137679Y304631D01*
X-138434Y307255D01*
X-139479Y309777D01*
X-140800Y312167D01*
X-142380Y314394D01*
X-144200Y316430D01*
X-146236Y318250D01*
X-148463Y319830D01*
X-150853Y321151D01*
X-153375Y322196D01*
X-155999Y322952D01*
X-158691Y323409D01*
X-161417Y323562D01*
D02*
G37*
G36*
X-8858Y258582D02*
X-10039D01*
X-10423Y258506D01*
X-10749Y258288D01*
X-10947Y257992D01*
X-11494D01*
X-11692Y258288D01*
X-12017Y258506D01*
X-12402Y258582D01*
X-13583D01*
X-13967Y258506D01*
X-14292Y258288D01*
X-14508Y257965D01*
X-14520Y257963D01*
X-15008D01*
X-15019Y257965D01*
X-15235Y258288D01*
X-15561Y258506D01*
X-15945Y258582D01*
X-17126D01*
X-17510Y258506D01*
X-17836Y258288D01*
X-18053Y257963D01*
X-18129Y257579D01*
Y256398D01*
X-18053Y256014D01*
X-17836Y255688D01*
X-17740Y255624D01*
Y255118D01*
X-17740Y255118D01*
X-17648Y254657D01*
X-17387Y254267D01*
X-16600Y253479D01*
X-16600Y253479D01*
X-16209Y253218D01*
X-15748Y253127D01*
X-15748Y253127D01*
X-9988D01*
X-9939Y252626D01*
X-9977Y252619D01*
X-10758Y252097D01*
X-11280Y251315D01*
X-11464Y250394D01*
X-11280Y249472D01*
X-10758Y248691D01*
X-10259Y248357D01*
Y203255D01*
X-33529Y179985D01*
X-33790Y179595D01*
X-33881Y179134D01*
X-33881Y179134D01*
Y171260D01*
X-33881Y171260D01*
X-33790Y170799D01*
X-33529Y170408D01*
X-31814Y168694D01*
X-31843Y168500D01*
X-32384Y168261D01*
X-32543Y168367D01*
X-33465Y168550D01*
X-53150D01*
X-54071Y168367D01*
X-54853Y167845D01*
X-54918Y167747D01*
X-110236D01*
X-111161Y167625D01*
X-112023Y167268D01*
X-112763Y166700D01*
X-113331Y165960D01*
X-113688Y165098D01*
X-113810Y164173D01*
X-113688Y163248D01*
X-113331Y162386D01*
X-112763Y161646D01*
X-112023Y161078D01*
X-111161Y160721D01*
X-110236Y160599D01*
X-54918D01*
X-54853Y160502D01*
X-54071Y159980D01*
X-53150Y159796D01*
X-33465D01*
X-32543Y159980D01*
X-32019Y160329D01*
X-31519Y160062D01*
Y158766D01*
X-35144Y155141D01*
X-101036D01*
X-101085Y155214D01*
X-101671Y155606D01*
X-102362Y155743D01*
X-103053Y155606D01*
X-103639Y155214D01*
X-104031Y154628D01*
X-104169Y153937D01*
X-104108Y153632D01*
X-104223Y153491D01*
X-104545Y153267D01*
X-105118Y153381D01*
X-105809Y153244D01*
X-106395Y152852D01*
X-106787Y152266D01*
X-106924Y151575D01*
X-106787Y150883D01*
X-106395Y150297D01*
X-105809Y149906D01*
X-105118Y149768D01*
X-104427Y149906D01*
X-103841Y150297D01*
X-103658Y150571D01*
X-28990D01*
X-28722Y150071D01*
X-28834Y149904D01*
X-28972Y149213D01*
X-28834Y148521D01*
X-28443Y147935D01*
X-28169Y147752D01*
Y137030D01*
X-30640Y134559D01*
X-31100Y134805D01*
X-31073Y134941D01*
Y137106D01*
X-31188Y137682D01*
X-31514Y138171D01*
X-32003Y138497D01*
X-32579Y138612D01*
X-54035D01*
X-54070Y138605D01*
X-121850D01*
X-122518Y138517D01*
X-123141Y138259D01*
X-123676Y137849D01*
X-124086Y137314D01*
X-124344Y136692D01*
X-124432Y136024D01*
X-124344Y135356D01*
X-124086Y134733D01*
X-123676Y134198D01*
X-123141Y133788D01*
X-122672Y133594D01*
X-122771Y133094D01*
X-124409D01*
X-124409Y133094D01*
X-124870Y133002D01*
X-125261Y132741D01*
X-125261Y132741D01*
X-128411Y129592D01*
X-128672Y129201D01*
X-128763Y128740D01*
X-128763Y128740D01*
Y119291D01*
X-128763Y119291D01*
X-128672Y118831D01*
X-128411Y118440D01*
X-127131Y117160D01*
X-126740Y116899D01*
X-126279Y116808D01*
X-126279Y116808D01*
X-126167D01*
X-126103Y116712D01*
X-125778Y116494D01*
X-125394Y116418D01*
X-124213D01*
X-123829Y116494D01*
X-123503Y116712D01*
X-123285Y117037D01*
X-123209Y117421D01*
Y118602D01*
X-123285Y118986D01*
X-123503Y119312D01*
X-123829Y119529D01*
X-124213Y119606D01*
X-125394D01*
X-125778Y119529D01*
X-125967Y119403D01*
X-126355Y119790D01*
Y120412D01*
X-125855Y120679D01*
X-125778Y120628D01*
X-125394Y120552D01*
X-124213D01*
X-123829Y120628D01*
X-123503Y120845D01*
X-123305Y121142D01*
X-122364D01*
X-122166Y120845D01*
X-121841Y120628D01*
X-121457Y120552D01*
X-120453D01*
X-120227Y120079D01*
X-120226Y120071D01*
X-120691Y119606D01*
X-121457D01*
X-121841Y119529D01*
X-122166Y119312D01*
X-122384Y118986D01*
X-122460Y118602D01*
Y117421D01*
X-122384Y117037D01*
X-122166Y116712D01*
X-121841Y116494D01*
X-121457Y116418D01*
X-120276D01*
X-119892Y116494D01*
X-119566Y116712D01*
X-119349Y117037D01*
X-119272Y117421D01*
Y117714D01*
X-119224Y117746D01*
X-118724Y117478D01*
Y117421D01*
X-118632Y116960D01*
X-118371Y116570D01*
X-118133Y116411D01*
Y114567D01*
X-118042Y114106D01*
X-117781Y113715D01*
X-117390Y113454D01*
X-116929Y113363D01*
X-116468Y113454D01*
X-116078Y113715D01*
X-115817Y114106D01*
X-115725Y114567D01*
Y116411D01*
X-115573Y116512D01*
X-115085D01*
X-114926Y116274D01*
X-114536Y116013D01*
X-114075Y115922D01*
X-113641D01*
X-113586Y115842D01*
X-113717Y115163D01*
X-113876Y115057D01*
X-114267Y114471D01*
X-114405Y113779D01*
X-114267Y113088D01*
X-113890Y112524D01*
X-113928Y112426D01*
X-114157Y112091D01*
X-114961Y112251D01*
X-115882Y112068D01*
X-116664Y111546D01*
X-116997Y111047D01*
X-121260D01*
X-121260Y111047D01*
X-121721Y110955D01*
X-122111Y110694D01*
X-122111Y110694D01*
X-130379Y102426D01*
X-130640Y102036D01*
X-130732Y101575D01*
X-130732Y101575D01*
Y87507D01*
X-155617Y62622D01*
X-170079D01*
X-170079Y62622D01*
X-170540Y62530D01*
X-170930Y62269D01*
X-170930Y62269D01*
X-181167Y52033D01*
X-181428Y51642D01*
X-181519Y51181D01*
X-181519Y51181D01*
Y39370D01*
X-181519Y39370D01*
X-181428Y38909D01*
X-181167Y38519D01*
X-178214Y35566D01*
X-177823Y35305D01*
X-177362Y35213D01*
X-177362Y35213D01*
X-173934D01*
X-173700Y34863D01*
X-173326Y34613D01*
X-172884Y34525D01*
X-172542D01*
X-172460Y34470D01*
X-171653Y34310D01*
X-165748D01*
X-164942Y34470D01*
X-164860Y34525D01*
X-164518D01*
X-164076Y34613D01*
X-163702Y34863D01*
X-163452Y35238D01*
X-163364Y35679D01*
Y37156D01*
X-163452Y37597D01*
X-163702Y37972D01*
X-164076Y38222D01*
X-164518Y38310D01*
X-164860D01*
X-164942Y38364D01*
X-165748Y38525D01*
X-171653D01*
X-172460Y38364D01*
X-172542Y38310D01*
X-172884D01*
X-173326Y38222D01*
X-173700Y37972D01*
X-173934Y37622D01*
X-176863D01*
X-179111Y39869D01*
Y41656D01*
X-178611Y41808D01*
X-178475Y41604D01*
X-177693Y41082D01*
X-176772Y40899D01*
X-175850Y41082D01*
X-175069Y41604D01*
X-174735Y42103D01*
X-173644D01*
Y41585D01*
X-173556Y41143D01*
X-173306Y40769D01*
X-172932Y40518D01*
X-172490Y40431D01*
X-172148D01*
X-172066Y40376D01*
X-171260Y40215D01*
X-161799D01*
X-161523Y40031D01*
X-160716Y39871D01*
X-160270Y39960D01*
X-159970Y39510D01*
X-160215Y39143D01*
X-160375Y38337D01*
X-160215Y37530D01*
X-159758Y36846D01*
X-159074Y36390D01*
X-158268Y36229D01*
X-157567D01*
X-157420Y35810D01*
X-157404Y35729D01*
X-157852Y35058D01*
X-158013Y34252D01*
Y30256D01*
X-157852Y29449D01*
X-157396Y28766D01*
X-157307Y28677D01*
X-156761Y28313D01*
X-156950Y27837D01*
X-158691Y28133D01*
X-159106Y28157D01*
X-159244Y28665D01*
X-159226Y28677D01*
X-158770Y29361D01*
X-158609Y30167D01*
X-158770Y30974D01*
X-159226Y31657D01*
X-159571Y32002D01*
X-160255Y32459D01*
X-161061Y32619D01*
X-165748D01*
X-165748Y32619D01*
X-171653D01*
X-172069Y32537D01*
X-172177Y32609D01*
X-172638Y32700D01*
X-172638Y32700D01*
X-175129D01*
X-175462Y33199D01*
X-176244Y33721D01*
X-177165Y33904D01*
X-178087Y33721D01*
X-178868Y33199D01*
X-179391Y32418D01*
X-179574Y31496D01*
X-179391Y30574D01*
X-178868Y29793D01*
X-178087Y29271D01*
X-177165Y29088D01*
X-176244Y29271D01*
X-175462Y29793D01*
X-175129Y30292D01*
X-174038D01*
Y29774D01*
X-173950Y29332D01*
X-173700Y28958D01*
X-173326Y28707D01*
X-172884Y28620D01*
X-172542D01*
X-172460Y28565D01*
X-171653Y28404D01*
X-165748D01*
X-165748Y28404D01*
X-165533D01*
X-165491Y27904D01*
X-166836Y27676D01*
X-169459Y26920D01*
X-171982Y25875D01*
X-174372Y24554D01*
X-176599Y22974D01*
X-178635Y21155D01*
X-180454Y19119D01*
X-182035Y16892D01*
X-183355Y14502D01*
X-184400Y11979D01*
X-185156Y9355D01*
X-185614Y6663D01*
X-185767Y3937D01*
X-185614Y1211D01*
X-185156Y-1481D01*
X-184400Y-4105D01*
X-183355Y-6628D01*
X-182035Y-9018D01*
X-180454Y-11244D01*
X-178635Y-13281D01*
X-176599Y-15100D01*
X-174372Y-16680D01*
X-171982Y-18001D01*
X-169459Y-19046D01*
X-166836Y-19802D01*
X-164144Y-20259D01*
X-161417Y-20412D01*
X-158691Y-20259D01*
X-155999Y-19802D01*
X-153375Y-19046D01*
X-150853Y-18001D01*
X-148463Y-16680D01*
X-146236Y-15100D01*
X-144200Y-13281D01*
X-142380Y-11244D01*
X-140800Y-9018D01*
X-139479Y-6628D01*
X-138434Y-4105D01*
X-137679Y-1481D01*
X-137221Y1211D01*
X-137163Y2247D01*
X-136651Y2447D01*
X-136117Y2091D01*
X-135295Y1927D01*
X-132303D01*
Y-1772D01*
X-132226Y-2156D01*
X-132009Y-2481D01*
X-127875Y-6615D01*
X-127549Y-6833D01*
X-127165Y-6909D01*
X-77953D01*
X-77569Y-6833D01*
X-77243Y-6615D01*
X-71338Y-710D01*
X-71120Y-384D01*
X-71107Y-320D01*
X-71044Y0D01*
Y5310D01*
X-70344Y5777D01*
X-69822Y6559D01*
X-69639Y7480D01*
X-69756Y8069D01*
X-67554Y10271D01*
X-67554Y10271D01*
X-67293Y10661D01*
X-67201Y11122D01*
X-67201Y11122D01*
Y11234D01*
X-67105Y11298D01*
X-66888Y11624D01*
X-66811Y12008D01*
Y13189D01*
X-66888Y13573D01*
X-67105Y13899D01*
X-67201Y13963D01*
Y14777D01*
X-67105Y14842D01*
X-66888Y15167D01*
X-66811Y15551D01*
Y16732D01*
X-66888Y17116D01*
X-67105Y17442D01*
X-67218Y17517D01*
X-67238Y17586D01*
X-67200Y18085D01*
X-66963Y18243D01*
X-66702Y18634D01*
X-66650Y18898D01*
X-68405D01*
Y20472D01*
X-66650D01*
X-66702Y20736D01*
X-66963Y21127D01*
X-66959Y21145D01*
X-66404Y21298D01*
X-65887Y20781D01*
Y12697D01*
X-65727Y11890D01*
X-65270Y11207D01*
X-62598Y8535D01*
Y8071D01*
X-62134D01*
X-62120Y8057D01*
X-61436Y7600D01*
X-60630Y7440D01*
X-59078D01*
Y6299D01*
X-59842D01*
Y4626D01*
Y2492D01*
X-59842Y2491D01*
X-60989Y1344D01*
X-61250Y953D01*
X-61342Y492D01*
X-61342Y492D01*
Y-604D01*
X-61438Y-668D01*
X-61655Y-994D01*
X-61732Y-1378D01*
Y-2559D01*
X-61655Y-2943D01*
X-61438Y-3269D01*
X-61112Y-3486D01*
X-60728Y-3563D01*
X-59547D01*
X-59163Y-3486D01*
X-58838Y-3269D01*
X-58797Y-3207D01*
X-58189Y-3117D01*
X-57996Y-3277D01*
Y-4935D01*
X-58091Y-4999D01*
X-58156Y-5095D01*
X-58774D01*
X-58838Y-4999D01*
X-59163Y-4781D01*
X-59547Y-4705D01*
X-60728D01*
X-61112Y-4781D01*
X-61438Y-4999D01*
X-61655Y-5325D01*
X-61732Y-5709D01*
Y-6890D01*
X-61655Y-7274D01*
X-61438Y-7599D01*
X-61112Y-7817D01*
X-60728Y-7893D01*
X-59547D01*
X-59163Y-7817D01*
X-58838Y-7599D01*
X-58774Y-7503D01*
X-58156D01*
X-58091Y-7599D01*
X-57766Y-7817D01*
X-57382Y-7893D01*
X-56201D01*
X-55817Y-7817D01*
X-55491Y-7599D01*
X-55274Y-7274D01*
X-55197Y-6890D01*
Y-5709D01*
X-55274Y-5325D01*
X-55491Y-4999D01*
X-55587Y-4935D01*
Y-4314D01*
X-54984Y-4194D01*
X-54203Y-3672D01*
X-53680Y-2890D01*
X-53497Y-1969D01*
X-53680Y-1047D01*
X-54203Y-265D01*
X-54300Y-200D01*
Y371D01*
X-54134D01*
X-53673Y462D01*
X-53282Y723D01*
X-53021Y1114D01*
X-52958Y1432D01*
X-52886Y1446D01*
X-52495Y1708D01*
X-47374Y6829D01*
X-46874Y6622D01*
Y4829D01*
X-46955Y4747D01*
X-48228D01*
X-48689Y4656D01*
X-49080Y4395D01*
X-49341Y4004D01*
X-49348Y3968D01*
X-49757Y3694D01*
X-49757Y3694D01*
X-52316Y1135D01*
X-52665Y614D01*
X-52685Y513D01*
X-52787Y0D01*
X-52787Y-0D01*
Y-4705D01*
X-53248D01*
X-53632Y-4781D01*
X-53958Y-4999D01*
X-54175Y-5325D01*
X-54252Y-5709D01*
Y-6890D01*
X-54175Y-7274D01*
X-53958Y-7599D01*
X-53862Y-7664D01*
Y-8760D01*
X-53862Y-8760D01*
X-53770Y-9221D01*
X-53509Y-9611D01*
X-50852Y-12269D01*
X-50461Y-12530D01*
X-50000Y-12622D01*
X-50000Y-12622D01*
X12992D01*
X12992Y-12622D01*
X13453Y-12530D01*
X13844Y-12269D01*
X27229Y1117D01*
X27229Y1117D01*
X27490Y1508D01*
X27582Y1969D01*
Y94882D01*
X27582Y94882D01*
X27490Y95343D01*
X27229Y95733D01*
X23292Y99670D01*
X22902Y99932D01*
X22441Y100023D01*
X22441Y100023D01*
X8806D01*
X8758Y100096D01*
X8172Y100488D01*
X7480Y100625D01*
X6789Y100488D01*
X6521Y100309D01*
X6021Y100576D01*
Y124803D01*
X5953Y125149D01*
X5757Y125442D01*
X5757Y125442D01*
X1032Y130166D01*
X739Y130362D01*
X394Y130431D01*
X-9706D01*
X-9714Y130443D01*
X-10496Y130965D01*
X-11417Y131149D01*
X-12339Y130965D01*
X-13120Y130443D01*
X-13129Y130431D01*
X-17267D01*
X-17281Y130502D01*
X-17499Y130828D01*
X-17825Y131045D01*
X-18209Y131122D01*
X-19390D01*
X-19774Y131045D01*
X-20099Y130828D01*
X-20317Y130502D01*
X-20393Y130118D01*
Y128937D01*
X-20317Y128553D01*
X-20099Y128227D01*
X-19774Y128010D01*
X-19390Y127934D01*
X-18209D01*
X-17825Y128010D01*
X-17499Y128227D01*
X-17281Y128553D01*
X-17267Y128624D01*
X-13803D01*
X-13643Y127819D01*
X-13120Y127037D01*
X-12339Y126515D01*
X-11417Y126332D01*
X-10496Y126515D01*
X-9714Y127037D01*
X-9192Y127819D01*
X-9032Y128624D01*
X20D01*
X4215Y124429D01*
Y122179D01*
X3715Y121972D01*
X-2117Y127804D01*
X-2410Y128000D01*
X-2756Y128068D01*
X-6004D01*
X-6350Y128000D01*
X-6643Y127804D01*
X-8837Y125610D01*
X-9744D01*
X-10128Y125533D01*
X-10454Y125316D01*
X-10671Y124990D01*
X-10685Y124919D01*
X-11944D01*
X-11948Y124937D01*
X-12470Y125719D01*
X-13251Y126241D01*
X-14173Y126424D01*
X-15095Y126241D01*
X-15876Y125719D01*
X-16398Y124937D01*
X-16402Y124919D01*
X-17267D01*
X-17281Y124990D01*
X-17499Y125316D01*
X-17825Y125533D01*
X-18209Y125610D01*
X-19390D01*
X-19774Y125533D01*
X-20099Y125316D01*
X-20317Y124990D01*
X-20393Y124606D01*
Y123425D01*
X-20317Y123041D01*
X-20099Y122716D01*
X-19774Y122498D01*
X-19390Y122422D01*
X-18209D01*
X-17825Y122498D01*
X-17499Y122716D01*
X-17281Y123041D01*
X-17267Y123113D01*
X-16402D01*
X-16398Y123094D01*
X-15876Y122313D01*
X-15095Y121791D01*
X-14173Y121607D01*
X-13251Y121791D01*
X-12470Y122313D01*
X-11948Y123094D01*
X-11944Y123113D01*
X-10685D01*
X-10671Y123041D01*
X-10454Y122716D01*
X-10128Y122498D01*
X-9744Y122422D01*
X-8563D01*
X-8146Y121995D01*
X-8130Y121887D01*
X-9132Y120885D01*
X-9744D01*
X-10128Y120809D01*
X-10454Y120591D01*
X-10671Y120266D01*
X-10685Y120194D01*
X-12462D01*
X-12470Y120207D01*
X-13251Y120729D01*
X-14173Y120912D01*
X-15095Y120729D01*
X-15876Y120207D01*
X-16398Y119426D01*
X-16402Y119407D01*
X-17267D01*
X-17281Y119478D01*
X-17499Y119804D01*
X-17825Y120022D01*
X-18209Y120098D01*
X-19390D01*
X-19774Y120022D01*
X-20099Y119804D01*
X-20317Y119478D01*
X-20393Y119095D01*
Y117913D01*
X-20317Y117529D01*
X-20099Y117204D01*
X-19774Y116986D01*
X-19390Y116910D01*
X-18209D01*
X-17825Y116986D01*
X-17499Y117204D01*
X-17281Y117529D01*
X-17267Y117601D01*
X-16402D01*
X-16398Y117582D01*
X-15876Y116801D01*
X-15199Y116349D01*
X-15196Y116315D01*
X-15271Y115850D01*
X-15274Y115843D01*
X-15541Y115789D01*
X-15867Y115572D01*
X-16085Y115246D01*
X-16161Y114862D01*
Y113681D01*
X-16085Y113297D01*
X-15867Y112971D01*
X-15541Y112754D01*
X-15157Y112678D01*
X-14011D01*
X-13942Y112597D01*
X-13774Y112208D01*
X-14250Y111732D01*
X-15157D01*
X-15541Y111655D01*
X-15867Y111438D01*
X-16085Y111112D01*
X-16099Y111041D01*
X-17280D01*
X-17460Y111945D01*
X-17982Y112727D01*
X-18763Y113249D01*
X-19685Y113432D01*
X-20607Y113249D01*
X-21388Y112727D01*
X-21910Y111945D01*
X-22094Y111024D01*
X-21910Y110102D01*
X-21388Y109321D01*
X-20607Y108799D01*
X-19685Y108615D01*
X-18763Y108799D01*
X-18111Y109235D01*
X-16099D01*
X-16085Y109163D01*
X-15867Y108838D01*
X-15541Y108620D01*
X-15157Y108544D01*
X-13976D01*
X-13592Y108620D01*
X-13267Y108838D01*
X-13049Y109163D01*
X-12973Y109547D01*
Y110299D01*
X-12724Y110491D01*
X-12224Y110261D01*
Y109547D01*
X-12148Y109163D01*
X-11930Y108838D01*
X-11935Y108240D01*
X-12185Y107990D01*
X-18110D01*
X-18110Y107990D01*
X-18456Y107921D01*
X-18747Y107726D01*
X-18763Y107737D01*
X-19685Y107920D01*
X-20607Y107737D01*
X-21388Y107215D01*
X-21910Y106433D01*
X-22094Y105512D01*
X-21910Y104590D01*
X-21388Y103809D01*
X-20607Y103287D01*
X-19685Y103103D01*
X-18763Y103287D01*
X-17982Y103809D01*
X-17460Y104590D01*
X-17277Y105512D01*
X-17333Y105797D01*
X-17016Y106183D01*
X-16087D01*
X-15950Y105901D01*
X-15898Y105683D01*
X-16085Y105404D01*
X-16161Y105020D01*
Y103839D01*
X-16085Y103455D01*
X-15867Y103129D01*
X-15541Y102911D01*
X-15157Y102835D01*
X-13976D01*
X-13592Y102911D01*
X-13267Y103129D01*
X-13049Y103455D01*
X-13035Y103526D01*
X-12162D01*
X-12148Y103455D01*
X-11930Y103129D01*
X-11604Y102911D01*
X-11220Y102835D01*
X-10039D01*
X-9655Y102911D01*
X-9330Y103129D01*
X-9112Y103455D01*
X-9036Y103839D01*
Y105020D01*
X-9112Y105404D01*
X-9330Y105729D01*
X-9655Y105947D01*
X-10039Y106023D01*
X-10908D01*
X-11034Y106225D01*
X-11097Y106523D01*
X-9991Y107629D01*
X-9796Y107922D01*
X-9727Y108268D01*
X-9655Y108620D01*
X-9330Y108838D01*
X-9112Y109163D01*
X-9098Y109235D01*
X-8290D01*
Y108514D01*
X-8202Y108072D01*
X-7952Y107698D01*
X-7748Y107561D01*
X-7742Y107547D01*
Y107020D01*
X-7748Y107006D01*
X-7952Y106869D01*
X-8202Y106495D01*
X-8290Y106053D01*
Y104577D01*
X-8202Y104135D01*
X-7952Y103761D01*
X-7577Y103511D01*
X-7136Y103423D01*
X-4675D01*
X-4234Y103511D01*
X-3859Y103761D01*
X-3609Y104135D01*
X-3574Y104311D01*
X-3346D01*
X-3078Y104365D01*
X-2711Y104162D01*
X-2578Y104043D01*
Y96872D01*
X-3239Y96211D01*
X-3859Y96239D01*
X-4234Y96490D01*
X-4675Y96577D01*
X-7136D01*
X-7577Y96490D01*
X-7952Y96239D01*
X-8202Y95865D01*
X-8290Y95423D01*
Y93947D01*
X-8202Y93505D01*
X-7952Y93131D01*
X-7577Y92881D01*
X-7136Y92793D01*
X-4675D01*
X-4234Y92881D01*
X-3859Y93131D01*
X-3609Y93505D01*
X-3574Y93682D01*
X-3347D01*
X-2962Y93758D01*
X-2637Y93976D01*
X-865Y95747D01*
X-648Y96073D01*
X-635Y96136D01*
X-616Y96233D01*
X-116Y96184D01*
Y89196D01*
X-10200Y79112D01*
X-10505Y79200D01*
X-11807Y77898D01*
X-12920Y79011D01*
X-11804Y80128D01*
X-11876Y80142D01*
X-11926Y80133D01*
X-13535Y81741D01*
X-13828Y81937D01*
X-14173Y82006D01*
X-14519Y81937D01*
X-14812Y81741D01*
X-16420Y80133D01*
X-16470Y80142D01*
X-16796Y80077D01*
X-17073Y79893D01*
X-17101Y79865D01*
X-17601Y80072D01*
Y82284D01*
X-17670Y82629D01*
X-17865Y82922D01*
X-19541Y84598D01*
X-19454Y85039D01*
X-19591Y85731D01*
X-19829Y86087D01*
X-19777Y86259D01*
X-19565Y86592D01*
X-18763Y86751D01*
X-17982Y87273D01*
X-17460Y88055D01*
X-17456Y88073D01*
X-16197D01*
X-16183Y88002D01*
X-15966Y87676D01*
X-15640Y87459D01*
X-15256Y87382D01*
X-14075D01*
X-13691Y87459D01*
X-13365Y87676D01*
X-13148Y88002D01*
X-13071Y88386D01*
Y89532D01*
X-12991Y89602D01*
X-12602Y89769D01*
X-12126Y89293D01*
Y88386D01*
X-12049Y88002D01*
X-11832Y87676D01*
X-11506Y87459D01*
X-11122Y87382D01*
X-9941D01*
X-9557Y87459D01*
X-9231Y87676D01*
X-9098Y87876D01*
X-8257D01*
X-8202Y87600D01*
X-7952Y87225D01*
X-7577Y86975D01*
X-7136Y86887D01*
X-4675D01*
X-4234Y86975D01*
X-3859Y87225D01*
X-3609Y87600D01*
X-3521Y88041D01*
Y89518D01*
X-3609Y89959D01*
X-3859Y90334D01*
X-4234Y90584D01*
X-4675Y90672D01*
X-7136D01*
X-7577Y90584D01*
X-7952Y90334D01*
X-8202Y89959D01*
X-8257Y89683D01*
X-8961D01*
X-9014Y89951D01*
X-9231Y90276D01*
X-9557Y90494D01*
X-9941Y90570D01*
X-10848D01*
X-11972Y91694D01*
X-11808Y92237D01*
X-11677Y92263D01*
X-10895Y92785D01*
X-10373Y93567D01*
X-10190Y94488D01*
X-10373Y95410D01*
X-10384Y95426D01*
X-9991Y95818D01*
X-9796Y96111D01*
X-9727Y96457D01*
Y98763D01*
X-9655Y98778D01*
X-9330Y98995D01*
X-9112Y99321D01*
X-9098Y99392D01*
X-8290D01*
Y98671D01*
X-8202Y98230D01*
X-7952Y97855D01*
X-7577Y97605D01*
X-7136Y97517D01*
X-4675D01*
X-4234Y97605D01*
X-3859Y97855D01*
X-3609Y98230D01*
X-3521Y98671D01*
Y100148D01*
X-3609Y100589D01*
X-3859Y100964D01*
X-4234Y101214D01*
X-4675Y101302D01*
X-7136D01*
X-7577Y101214D01*
X-7600Y101198D01*
X-9098D01*
X-9112Y101270D01*
X-9330Y101595D01*
X-9655Y101813D01*
X-10039Y101889D01*
X-11220D01*
X-11604Y101813D01*
X-11930Y101595D01*
X-12148Y101270D01*
X-12224Y100886D01*
Y99705D01*
X-12148Y99321D01*
X-11930Y98995D01*
X-11604Y98778D01*
X-11533Y98763D01*
Y97173D01*
X-12012Y96780D01*
X-12598Y96897D01*
X-13520Y96713D01*
X-14301Y96191D01*
X-14824Y95410D01*
X-15007Y94488D01*
X-14824Y93567D01*
X-14301Y92785D01*
X-14237Y92742D01*
X-14388Y92242D01*
X-16949D01*
X-17786Y93079D01*
X-17460Y93567D01*
X-17277Y94488D01*
X-17460Y95410D01*
X-17982Y96191D01*
X-18763Y96713D01*
X-19685Y96897D01*
X-20607Y96713D01*
X-21388Y96191D01*
X-21738Y95667D01*
X-21744Y95667D01*
X-22239Y95818D01*
X-22347Y96361D01*
X-22738Y96947D01*
X-23113Y97197D01*
Y98445D01*
X-22460Y99097D01*
X-21914D01*
X-21910Y99078D01*
X-21388Y98297D01*
X-20607Y97775D01*
X-19685Y97592D01*
X-18763Y97775D01*
X-17982Y98297D01*
X-17460Y99078D01*
X-17398Y99392D01*
X-16099D01*
X-16085Y99321D01*
X-15867Y98995D01*
X-15541Y98778D01*
X-15157Y98701D01*
X-13976D01*
X-13592Y98778D01*
X-13267Y98995D01*
X-13049Y99321D01*
X-12973Y99705D01*
Y100886D01*
X-13049Y101270D01*
X-13267Y101595D01*
X-13592Y101813D01*
X-13976Y101889D01*
X-15157D01*
X-15541Y101813D01*
X-15867Y101595D01*
X-16085Y101270D01*
X-16099Y101198D01*
X-17645D01*
X-17982Y101703D01*
X-18763Y102225D01*
X-19685Y102409D01*
X-20607Y102225D01*
X-21388Y101703D01*
X-21910Y100922D01*
X-21914Y100903D01*
X-22835D01*
X-22835Y100903D01*
X-23180Y100834D01*
X-23473Y100639D01*
X-24654Y99458D01*
X-24850Y99164D01*
X-24919Y98819D01*
Y97197D01*
X-25293Y96947D01*
X-25685Y96361D01*
X-25822Y95669D01*
X-25685Y94978D01*
X-25573Y94811D01*
X-25840Y94311D01*
X-32428D01*
X-32695Y94811D01*
X-32583Y94978D01*
X-32446Y95669D01*
X-32583Y96361D01*
X-32975Y96947D01*
X-33561Y97338D01*
X-34252Y97476D01*
X-34433Y97440D01*
X-34628Y97911D01*
X-34625Y97913D01*
X-34407Y98238D01*
X-34331Y98622D01*
Y99154D01*
X-34319Y99213D01*
X-34331Y99271D01*
Y99803D01*
X-34407Y100187D01*
X-34625Y100513D01*
X-34721Y100577D01*
Y104029D01*
X-34324Y104377D01*
X-33858Y104284D01*
X-32937Y104468D01*
X-32155Y104990D01*
X-31633Y105771D01*
X-31450Y106693D01*
X-31633Y107615D01*
X-32155Y108396D01*
X-32937Y108918D01*
X-33858Y109101D01*
X-34780Y108918D01*
X-35561Y108396D01*
X-36083Y107615D01*
X-36267Y106693D01*
X-36150Y106105D01*
X-36777Y105477D01*
X-37038Y105087D01*
X-37130Y104626D01*
X-37129Y104626D01*
Y100818D01*
X-37706D01*
X-37774Y101158D01*
X-38068Y101598D01*
X-38507Y101891D01*
X-39026Y101995D01*
X-41630D01*
X-41724Y102057D01*
X-42185Y102149D01*
X-42185Y102149D01*
X-44782D01*
X-45276Y102165D01*
Y102756D01*
X-46752D01*
Y104331D01*
X-45276D01*
Y104764D01*
Y104938D01*
X-43096D01*
X-42864Y104891D01*
X-41732D01*
Y107382D01*
X-40945D01*
Y108169D01*
X-37470D01*
Y108317D01*
X-37589Y108912D01*
X-37926Y109417D01*
X-38430Y109754D01*
X-39026Y109872D01*
X-40134D01*
Y111811D01*
X-40226Y112272D01*
X-40487Y112663D01*
X-40878Y112924D01*
X-41339Y113015D01*
X-41799Y112924D01*
X-42190Y112663D01*
X-42451Y112272D01*
X-42543Y111811D01*
Y109872D01*
X-42864D01*
X-43459Y109754D01*
X-43964Y109417D01*
X-44301Y108912D01*
X-44420Y108317D01*
Y107346D01*
X-45276D01*
Y107520D01*
X-45965D01*
Y106142D01*
X-47539D01*
Y107520D01*
X-48228D01*
Y107520D01*
X-49606D01*
Y103543D01*
Y99567D01*
X-47598D01*
Y99764D01*
X-46868D01*
X-46752Y99741D01*
X-44219D01*
Y98770D01*
X-44116Y98251D01*
X-43822Y97812D01*
X-43383Y97518D01*
X-42864Y97415D01*
X-39026D01*
X-38507Y97518D01*
X-38374Y97607D01*
X-35925D01*
X-35867Y97619D01*
X-35424D01*
X-35299Y97407D01*
X-35253Y97131D01*
X-35529Y96947D01*
X-35712Y96673D01*
X-67695D01*
X-70628Y99606D01*
X-69407Y100827D01*
X-68910Y100617D01*
X-68761Y99866D01*
X-68239Y99084D01*
X-67457Y98562D01*
X-66535Y98379D01*
X-65614Y98562D01*
X-64832Y99084D01*
X-64310Y99866D01*
X-64229Y100272D01*
X-63175D01*
X-63111Y100176D01*
X-62786Y99959D01*
X-62402Y99882D01*
X-61221D01*
X-60836Y99959D01*
X-60511Y100176D01*
X-60447Y100272D01*
X-59632D01*
X-59568Y100176D01*
X-59242Y99959D01*
X-58858Y99882D01*
X-57677D01*
X-57293Y99959D01*
X-57003Y100152D01*
X-56521Y100093D01*
X-56287Y99937D01*
X-56130Y99832D01*
X-55669Y99741D01*
X-54035D01*
X-53919Y99764D01*
X-53189D01*
Y99567D01*
X-51181D01*
Y103543D01*
Y107520D01*
X-52559D01*
Y107520D01*
X-53248D01*
Y106142D01*
X-54823D01*
Y107520D01*
X-55512D01*
Y107299D01*
X-55736Y107254D01*
X-55893Y107150D01*
X-56127Y106993D01*
X-56127Y106993D01*
X-56214Y106906D01*
X-56753Y106943D01*
X-56826Y107052D01*
X-57064Y107211D01*
Y109055D01*
X-57155Y109516D01*
X-57416Y109907D01*
X-57807Y110168D01*
X-58268Y110259D01*
X-58729Y110168D01*
X-59119Y109907D01*
X-59380Y109516D01*
X-59472Y109055D01*
Y107211D01*
X-59710Y107052D01*
X-59868Y106815D01*
X-60367Y106778D01*
X-60435Y106798D01*
X-60511Y106910D01*
X-60836Y107128D01*
X-61221Y107204D01*
X-61451D01*
X-61500Y107704D01*
X-61120Y107780D01*
X-60534Y108171D01*
X-60142Y108758D01*
X-60005Y109449D01*
X-60069Y109772D01*
X-59033Y110808D01*
X-56567D01*
X-54893Y109133D01*
X-54675Y108988D01*
X-54567Y108915D01*
X-54183Y108839D01*
X-48228D01*
X-47844Y108915D01*
X-47519Y109133D01*
X-42290Y114362D01*
X-42224Y114349D01*
X-40846D01*
X-40424Y114433D01*
X-40091Y114656D01*
X-39472Y114037D01*
X-39602Y113386D01*
X-39464Y112695D01*
X-39073Y112109D01*
X-38486Y111717D01*
X-37795Y111580D01*
X-37104Y111717D01*
X-36518Y112109D01*
X-36126Y112695D01*
X-35989Y113386D01*
X-36126Y114077D01*
X-36518Y114663D01*
X-37104Y115055D01*
X-37787Y115191D01*
X-39821Y117224D01*
X-39827Y117253D01*
X-40066Y117611D01*
X-40330Y117788D01*
X-40259Y118258D01*
X-40247Y118288D01*
X-35344D01*
X-35332Y118258D01*
X-35260Y117788D01*
X-35525Y117611D01*
X-35764Y117253D01*
X-35848Y116831D01*
Y115453D01*
X-35764Y115030D01*
X-35525Y114672D01*
X-35166Y114433D01*
X-34744Y114349D01*
X-33366D01*
X-32944Y114433D01*
X-32586Y114672D01*
X-32346Y115030D01*
X-32262Y115453D01*
Y116831D01*
X-32346Y117253D01*
X-32586Y117611D01*
X-32850Y117788D01*
X-32778Y118258D01*
X-32767Y118288D01*
X-29924D01*
X-29784Y117582D01*
X-29262Y116801D01*
X-28481Y116279D01*
X-27559Y116095D01*
X-26637Y116279D01*
X-25856Y116801D01*
X-25334Y117582D01*
X-25330Y117601D01*
X-24465D01*
X-24451Y117529D01*
X-24233Y117204D01*
X-23908Y116986D01*
X-23524Y116910D01*
X-22343D01*
X-21959Y116986D01*
X-21633Y117204D01*
X-21415Y117529D01*
X-21339Y117913D01*
Y119095D01*
X-21415Y119478D01*
X-21633Y119804D01*
X-21959Y120022D01*
X-22343Y120098D01*
X-23524D01*
X-23908Y120022D01*
X-24233Y119804D01*
X-24451Y119478D01*
X-24465Y119407D01*
X-25330D01*
X-25334Y119426D01*
X-25856Y120207D01*
X-26637Y120729D01*
X-27559Y120912D01*
X-28481Y120729D01*
X-28767Y120538D01*
X-28877Y120571D01*
X-29019Y121137D01*
X-28384Y121771D01*
X-27559Y121607D01*
X-26637Y121791D01*
X-25856Y122313D01*
X-25334Y123094D01*
X-25330Y123113D01*
X-24465D01*
X-24451Y123041D01*
X-24233Y122716D01*
X-23908Y122498D01*
X-23524Y122422D01*
X-22343D01*
X-21959Y122498D01*
X-21633Y122716D01*
X-21415Y123041D01*
X-21339Y123425D01*
Y124606D01*
X-21415Y124990D01*
X-21633Y125316D01*
X-21959Y125533D01*
X-22343Y125610D01*
X-23524D01*
X-23908Y125533D01*
X-24233Y125316D01*
X-24451Y124990D01*
X-24465Y124919D01*
X-25330D01*
X-25334Y124937D01*
X-25856Y125719D01*
X-26637Y126241D01*
X-27559Y126424D01*
X-28481Y126241D01*
X-29262Y125719D01*
X-29784Y124937D01*
X-29967Y124016D01*
X-29803Y123191D01*
X-31124Y121870D01*
X-36508D01*
X-36520Y121899D01*
X-36591Y122370D01*
X-36327Y122546D01*
X-36087Y122904D01*
X-36003Y123327D01*
Y124705D01*
X-36016Y124770D01*
X-33856Y126931D01*
X-33358Y126882D01*
X-33199Y126643D01*
X-32418Y126121D01*
X-31496Y125938D01*
X-30574Y126121D01*
X-29793Y126643D01*
X-29271Y127425D01*
X-29088Y128347D01*
X-28942Y128524D01*
X-24431D01*
X-24233Y128227D01*
X-23908Y128010D01*
X-23524Y127934D01*
X-22343D01*
X-21959Y128010D01*
X-21633Y128227D01*
X-21415Y128553D01*
X-21339Y128937D01*
Y130118D01*
X-21415Y130502D01*
X-21633Y130828D01*
X-21959Y131045D01*
X-22343Y131122D01*
X-23524D01*
X-23908Y131045D01*
X-24233Y130828D01*
X-24431Y130531D01*
X-30315D01*
X-30468Y130501D01*
X-30574Y130572D01*
X-30997Y130656D01*
X-31162Y131198D01*
X-26456Y135905D01*
X-26238Y136230D01*
X-26162Y136614D01*
Y147752D01*
X-25888Y147935D01*
X-25497Y148521D01*
X-25359Y149213D01*
X-25497Y149904D01*
X-25608Y150071D01*
X-25341Y150571D01*
X730D01*
X1014Y149887D01*
X1550Y149188D01*
X2249Y148652D01*
X3063Y148314D01*
X3937Y148199D01*
X4811Y148314D01*
X5625Y148652D01*
X6324Y149188D01*
X6860Y149887D01*
X6957Y150121D01*
X7457Y150022D01*
Y143747D01*
X7368Y143700D01*
X6957Y143617D01*
X6464Y144259D01*
X5724Y144827D01*
X4862Y145184D01*
X4724Y145203D01*
Y141732D01*
Y138262D01*
X4862Y138280D01*
X5724Y138637D01*
X6464Y139205D01*
X6957Y139848D01*
X7368Y139765D01*
X7457Y139717D01*
Y109200D01*
X7384Y109151D01*
X6993Y108565D01*
X6855Y107874D01*
X6993Y107183D01*
X7384Y106597D01*
X7717Y106375D01*
X7810Y106235D01*
X8201Y105974D01*
X8661Y105882D01*
X9122Y105974D01*
X9513Y106235D01*
X9606Y106375D01*
X9939Y106597D01*
X10330Y107183D01*
X10468Y107874D01*
X10330Y108565D01*
X9939Y109151D01*
X9866Y109200D01*
Y151470D01*
X16993Y158597D01*
X17254Y158988D01*
X17346Y159449D01*
X17346Y159449D01*
Y180315D01*
X17346Y180315D01*
X17254Y180776D01*
X16993Y181167D01*
X16993Y181167D01*
X14301Y183858D01*
X16993Y186550D01*
X16993Y186550D01*
X17254Y186941D01*
X17346Y187402D01*
X17346Y187402D01*
Y247244D01*
X17346Y247244D01*
X17254Y247705D01*
X16993Y248096D01*
X9907Y255182D01*
X9516Y255443D01*
X9055Y255535D01*
X9055Y255535D01*
X-7650D01*
X-7929Y256010D01*
X-7927Y256035D01*
X-7855Y256398D01*
Y257579D01*
X-7931Y257963D01*
X-8149Y258288D01*
X-8474Y258506D01*
X-8858Y258582D01*
D02*
G37*
%LPD*%
G36*
X-23544Y52440D02*
X-23219Y52223D01*
X-23106Y52200D01*
X-22983Y52118D01*
X-22638Y52050D01*
X-21614D01*
X-21585Y51901D01*
X-21324Y51511D01*
X-20933Y51250D01*
X-20472Y51158D01*
X-19859D01*
X-19592Y50658D01*
X-19942Y50134D01*
X-20125Y49213D01*
X-19942Y48291D01*
X-19420Y47510D01*
X-18638Y46988D01*
X-17717Y46804D01*
X-17303Y46886D01*
X-17056Y46426D01*
X-23603Y39880D01*
X-50787D01*
X-51133Y39811D01*
X-51426Y39615D01*
X-53001Y38040D01*
X-53197Y37747D01*
X-53265Y37402D01*
Y37223D01*
X-53765Y37071D01*
X-53809Y37136D01*
X-54590Y37658D01*
X-54609Y37662D01*
Y39390D01*
X-53169Y40829D01*
X-29528D01*
X-29182Y40898D01*
X-28889Y41094D01*
X-27708Y42275D01*
X-27512Y42568D01*
X-27446Y42902D01*
X-27415Y42921D01*
X-26943Y43046D01*
X-26506Y42391D01*
X-25725Y41869D01*
X-24803Y41686D01*
X-23881Y41869D01*
X-23100Y42391D01*
X-22578Y43173D01*
X-22395Y44094D01*
X-22578Y45016D01*
X-23100Y45798D01*
X-23293Y45926D01*
X-23262Y46157D01*
X-23143Y46427D01*
X-22307Y46594D01*
X-21525Y47116D01*
X-21003Y47897D01*
X-20820Y48819D01*
X-21003Y49741D01*
X-21525Y50522D01*
X-22307Y51044D01*
X-23228Y51227D01*
X-23815Y51111D01*
X-24294Y51504D01*
Y52485D01*
X-23794Y52689D01*
X-23544Y52440D01*
D02*
G37*
G36*
X25174Y94383D02*
Y63018D01*
X24674Y62969D01*
X24627Y63205D01*
X24105Y63986D01*
X23323Y64509D01*
X22402Y64692D01*
X20039D01*
X19118Y64509D01*
X18336Y63986D01*
X18003Y63488D01*
X9477D01*
X9144Y63986D01*
X8363Y64509D01*
X8254Y64530D01*
X8149Y65061D01*
X8396Y65226D01*
X8918Y66007D01*
X9101Y66929D01*
X8918Y67851D01*
X8396Y68632D01*
X7615Y69154D01*
X6693Y69338D01*
X5771Y69154D01*
X4990Y68632D01*
X4468Y67851D01*
X4284Y66929D01*
X4468Y66007D01*
X4990Y65226D01*
X5055Y65182D01*
X5060Y65076D01*
X4933Y64663D01*
X4157Y64509D01*
X3376Y63986D01*
X2854Y63205D01*
X2670Y62283D01*
X2854Y61362D01*
X3376Y60580D01*
X4157Y60058D01*
X5079Y59875D01*
X7441D01*
X8363Y60058D01*
X9144Y60580D01*
X9477Y61079D01*
X18003D01*
X18336Y60580D01*
X19118Y60058D01*
X20016Y59880D01*
Y30672D01*
X19118Y30493D01*
X18336Y29971D01*
X18003Y29472D01*
X9477D01*
X9144Y29971D01*
X8363Y30493D01*
X7441Y30676D01*
X5079D01*
X4157Y30493D01*
X3376Y29971D01*
X2854Y29189D01*
X2670Y28268D01*
X2854Y27346D01*
X3376Y26565D01*
X4157Y26043D01*
X5079Y25859D01*
X7441D01*
X8363Y26043D01*
X9144Y26565D01*
X9477Y27064D01*
X18003D01*
X18336Y26565D01*
X19118Y26043D01*
X20039Y25859D01*
X22402D01*
X23323Y26043D01*
X24105Y26565D01*
X24627Y27346D01*
X24674Y27582D01*
X25174Y27533D01*
Y2467D01*
X12493Y-10213D01*
X-49501D01*
X-51211Y-8503D01*
X-51004Y-8003D01*
X-39961D01*
X-39961Y-8003D01*
X-39451Y-7902D01*
X-36467D01*
X-35910Y-7791D01*
X-35438Y-7476D01*
X-35122Y-7004D01*
X-35011Y-6447D01*
Y-4380D01*
X-35122Y-3823D01*
X-35438Y-3351D01*
X-35910Y-3036D01*
X-36467Y-2925D01*
X-41486D01*
X-42043Y-3036D01*
X-42270Y-2612D01*
X-41922Y-2091D01*
X-41800Y-1476D01*
X-41922Y-862D01*
X-42270Y-341D01*
X-42791Y7D01*
X-43406Y129D01*
X-44685D01*
Y197D01*
X-45690D01*
X-45842Y697D01*
X-45802Y723D01*
X-45541Y1114D01*
X-45449Y1575D01*
Y2848D01*
X-44818Y3479D01*
X-44818Y3479D01*
X-44557Y3870D01*
X-44465Y4331D01*
X-44465Y4331D01*
Y8420D01*
X-44411Y8441D01*
X-43965Y8503D01*
X-43765Y8204D01*
X-43374Y7942D01*
X-42913Y7851D01*
X-42453Y7942D01*
X-42062Y8204D01*
X-41801Y8594D01*
X-41735Y8924D01*
X-40354Y10305D01*
X-39518D01*
X-38923Y10423D01*
X-38418Y10760D01*
X-38081Y11265D01*
X-37962Y11860D01*
Y12992D01*
X-42943D01*
Y11860D01*
X-42825Y11265D01*
X-42815Y11250D01*
X-43765Y10300D01*
X-43965Y10001D01*
X-44411Y10063D01*
X-44465Y10084D01*
Y15650D01*
X-44465Y15650D01*
X-44557Y16110D01*
X-44818Y16501D01*
X-44818Y16501D01*
X-44863Y16546D01*
Y17028D01*
X-44939Y17412D01*
X-45156Y17737D01*
X-45482Y17955D01*
X-45866Y18031D01*
X-46398D01*
X-46457Y18043D01*
X-50394D01*
X-50452Y18031D01*
X-50984D01*
X-51368Y17955D01*
X-51694Y17737D01*
X-51911Y17412D01*
X-51988Y17028D01*
Y16495D01*
X-51999Y16437D01*
X-51988Y16379D01*
Y15846D01*
X-51938Y15597D01*
X-52210Y15221D01*
X-52279Y15159D01*
X-52446D01*
X-52514Y15221D01*
X-52786Y15597D01*
X-52737Y15846D01*
Y17028D01*
X-52813Y17412D01*
X-53031Y17737D01*
X-53356Y17955D01*
X-53740Y18031D01*
X-54921D01*
X-55305Y17955D01*
X-55631Y17737D01*
X-55848Y17412D01*
X-55925Y17028D01*
Y15846D01*
X-55848Y15462D01*
X-55631Y15137D01*
X-55535Y15073D01*
Y14173D01*
X-55535Y14173D01*
X-55443Y13712D01*
X-55182Y13322D01*
X-54789Y12928D01*
X-54789Y12928D01*
X-54398Y12667D01*
X-53937Y12575D01*
X-53937Y12575D01*
X-53435D01*
X-53121Y12075D01*
X-53173Y11817D01*
X-53334Y11655D01*
X-57064D01*
Y15073D01*
X-56968Y15137D01*
X-56750Y15462D01*
X-56674Y15846D01*
Y17028D01*
X-56750Y17412D01*
X-56968Y17737D01*
X-57293Y17955D01*
X-57677Y18031D01*
X-58858D01*
X-59242Y17955D01*
X-59568Y17737D01*
X-59785Y17412D01*
X-59862Y17028D01*
Y15846D01*
X-59785Y15462D01*
X-59568Y15137D01*
X-59472Y15073D01*
Y12077D01*
X-59972Y11870D01*
X-61672Y13570D01*
Y21654D01*
X-61721Y21897D01*
X-61260Y22144D01*
X-59862Y20746D01*
Y19980D01*
X-59785Y19596D01*
X-59568Y19271D01*
X-59242Y19053D01*
X-58858Y18977D01*
X-57677D01*
X-57293Y19053D01*
X-56968Y19271D01*
X-56750Y19596D01*
X-56674Y19980D01*
Y20454D01*
X-56174Y20684D01*
X-55925Y20492D01*
Y19980D01*
X-55848Y19596D01*
X-55631Y19271D01*
X-55305Y19053D01*
X-54921Y18977D01*
X-53740D01*
X-53356Y19053D01*
X-53031Y19271D01*
X-52813Y19596D01*
X-52737Y19980D01*
Y20552D01*
X-52237Y20782D01*
X-51988Y20590D01*
Y19980D01*
X-51911Y19596D01*
X-51694Y19271D01*
X-51368Y19053D01*
X-50984Y18977D01*
X-49803D01*
X-49419Y19053D01*
X-49094Y19271D01*
X-48876Y19596D01*
X-48800Y19980D01*
Y21161D01*
X-48876Y21545D01*
X-49094Y21871D01*
X-49419Y22089D01*
X-49803Y22165D01*
X-50569D01*
X-55578Y27174D01*
X-55533Y27470D01*
X-55012Y27668D01*
X-54465Y27302D01*
X-53543Y27119D01*
X-53375Y27153D01*
X-47892Y21669D01*
X-47974Y21545D01*
X-48051Y21161D01*
Y19980D01*
X-47974Y19596D01*
X-47757Y19271D01*
X-47431Y19053D01*
X-47047Y18977D01*
X-45866D01*
X-45482Y19053D01*
X-45156Y19271D01*
X-44939Y19596D01*
X-44863Y19980D01*
Y21161D01*
X-44939Y21545D01*
X-45156Y21871D01*
X-45482Y22089D01*
X-45576Y22107D01*
X-45747Y22363D01*
X-46328Y22944D01*
X-46137Y23406D01*
X-43098D01*
X-42834Y22906D01*
X-42946Y22343D01*
Y19783D01*
X-42816Y19131D01*
X-42447Y18577D01*
X-41893Y18207D01*
X-41240Y18078D01*
X-35822D01*
X-34883Y17139D01*
Y16336D01*
X-34962Y16217D01*
X-35065Y15699D01*
Y11860D01*
X-35008Y11574D01*
X-39468Y7115D01*
X-41486D01*
X-42043Y7004D01*
X-42515Y6688D01*
X-42831Y6216D01*
X-42941Y5660D01*
Y3593D01*
X-42831Y3036D01*
X-42515Y2564D01*
X-42043Y2248D01*
X-41486Y2137D01*
X-36467D01*
X-35910Y2248D01*
X-35438Y2564D01*
X-35122Y3036D01*
X-35011Y3593D01*
Y5611D01*
X-31285Y9337D01*
X-30829Y10020D01*
X-30668Y10827D01*
Y11223D01*
X-30589Y11342D01*
X-30486Y11860D01*
Y15699D01*
X-30589Y16217D01*
X-30668Y16336D01*
Y18012D01*
X-30181Y18124D01*
X-29761Y18207D01*
X-29207Y18577D01*
X-28837Y19131D01*
X-28707Y19783D01*
Y22343D01*
X-28837Y22995D01*
X-29207Y23549D01*
X-29761Y23919D01*
X-30413Y24048D01*
X-37393D01*
X-38464Y25119D01*
X-38789Y25337D01*
X-39173Y25413D01*
X-46435D01*
X-47727Y26705D01*
X-47481Y27166D01*
X-47244Y27119D01*
X-46322Y27302D01*
X-45541Y27825D01*
X-45074Y28524D01*
X-42946D01*
Y28051D01*
X-42816Y27398D01*
X-42447Y26845D01*
X-41893Y26475D01*
X-41240Y26345D01*
X-30413D01*
X-29761Y26475D01*
X-29524Y26633D01*
X-27587D01*
Y26230D01*
X-27476Y25673D01*
X-27206Y25269D01*
Y23502D01*
X-27287Y23448D01*
X-27580Y23009D01*
X-27683Y22490D01*
Y20620D01*
X-27580Y20102D01*
X-27287Y19662D01*
X-26847Y19368D01*
X-26329Y19265D01*
X-22490D01*
X-21972Y19368D01*
X-21532Y19662D01*
X-21238Y20102D01*
X-21135Y20620D01*
Y22490D01*
X-21238Y23009D01*
X-21532Y23448D01*
X-21972Y23742D01*
X-22490Y23845D01*
X-22991D01*
Y25269D01*
X-22721Y25673D01*
X-22610Y26230D01*
Y31250D01*
X-22721Y31807D01*
X-23036Y32279D01*
X-23508Y32594D01*
X-24065Y32705D01*
X-26132D01*
X-26689Y32594D01*
X-27161Y32279D01*
X-27476Y31807D01*
X-27587Y31250D01*
Y30848D01*
X-28755D01*
X-28837Y31263D01*
X-29207Y31817D01*
X-29761Y32186D01*
X-30413Y32316D01*
X-41240D01*
X-41893Y32186D01*
X-42447Y31817D01*
X-42816Y31263D01*
X-42946Y30610D01*
Y30531D01*
X-45074D01*
X-45541Y31231D01*
X-46322Y31753D01*
X-47244Y31936D01*
X-48166Y31753D01*
X-48890Y31269D01*
X-49390Y31399D01*
Y32655D01*
X-48973Y33072D01*
X-48291Y33208D01*
X-47510Y33730D01*
X-46988Y34511D01*
X-46804Y35433D01*
X-46988Y36355D01*
X-47510Y37136D01*
X-48164Y37573D01*
X-48012Y38073D01*
X-23228D01*
X-22883Y38142D01*
X-22590Y38338D01*
X-13141Y47787D01*
X-12945Y48080D01*
X-12876Y48425D01*
Y55118D01*
X-12876Y55118D01*
X-12934Y55406D01*
X-12945Y55464D01*
X-13141Y55757D01*
X-16420Y59035D01*
Y59202D01*
X-15344Y60277D01*
X-15330Y60298D01*
X-14686Y60942D01*
X-14607Y61060D01*
X-14173Y61333D01*
X-13739Y61060D01*
X-13660Y60942D01*
X-13016Y60298D01*
X-13002Y60277D01*
X-10940Y58215D01*
X-10989Y57717D01*
X-11152Y57609D01*
X-11674Y56827D01*
X-11857Y55905D01*
X-11674Y54984D01*
X-11152Y54203D01*
X-10850Y54001D01*
Y53025D01*
X-11115Y52847D01*
X-11355Y52489D01*
X-11439Y52067D01*
Y49508D01*
X-11355Y49085D01*
X-11251Y48931D01*
Y47441D01*
X-11251Y47441D01*
X-11149Y46928D01*
X-11129Y46826D01*
X-10781Y46306D01*
X-9797Y45321D01*
X-9276Y44973D01*
X-9174Y44953D01*
X-8661Y44851D01*
X-8661Y44851D01*
X-2634D01*
X-1966Y44184D01*
X-2158Y43722D01*
X-2854D01*
X-3277Y43638D01*
X-3635Y43399D01*
X-4218Y43426D01*
X-4294Y43541D01*
X-4717Y43823D01*
X-5118Y43903D01*
Y41339D01*
Y38774D01*
X-4717Y38854D01*
X-4294Y39137D01*
X-4218Y39251D01*
X-3635Y39279D01*
X-3277Y39039D01*
X-2854Y38955D01*
X-1476D01*
X-1314Y38987D01*
X-1068Y38527D01*
X-8219Y31376D01*
X-9055Y31542D01*
X-9977Y31359D01*
X-10153Y31241D01*
X-12571D01*
Y31250D01*
X-12681Y31807D01*
X-12997Y32279D01*
X-13469Y32594D01*
X-14026Y32705D01*
X-16093D01*
X-16649Y32594D01*
X-17121Y32279D01*
X-17437Y31807D01*
X-17548Y31250D01*
Y26230D01*
X-17437Y25673D01*
X-17121Y25201D01*
X-16649Y24886D01*
X-16093Y24775D01*
X-14026D01*
X-13469Y24886D01*
X-12997Y25201D01*
X-12681Y25673D01*
X-12571Y26230D01*
Y27026D01*
X-10153D01*
X-9977Y26909D01*
X-9055Y26725D01*
X-8133Y26909D01*
X-7957Y27026D01*
X-7480D01*
X-6674Y27187D01*
X-5990Y27644D01*
X1328Y34962D01*
X1790Y34771D01*
Y33347D01*
X1873Y32932D01*
X2108Y32580D01*
X2459Y32345D01*
X2874Y32263D01*
X4764D01*
Y34449D01*
Y36635D01*
X4203D01*
X3936Y37135D01*
X3968Y37184D01*
X11339D01*
X12145Y37344D01*
X12829Y37801D01*
X13695Y38667D01*
X14152Y39351D01*
X14312Y40157D01*
Y50000D01*
X14152Y50806D01*
X13695Y51490D01*
X12435Y52750D01*
X11751Y53207D01*
X10945Y53367D01*
X5551D01*
X4745Y53207D01*
X4684Y53166D01*
X2850D01*
X2522Y53101D01*
X2243Y52915D01*
X2057Y52636D01*
X1991Y52307D01*
Y50213D01*
X2057Y49884D01*
X2243Y49605D01*
X2264Y49149D01*
X1793Y49100D01*
X-372Y51265D01*
Y52067D01*
X-457Y52489D01*
X-696Y52847D01*
X-961Y53025D01*
Y53738D01*
X-265Y54203D01*
X257Y54984D01*
X440Y55905D01*
X257Y56827D01*
X-265Y57609D01*
X-1047Y58131D01*
X-1065Y58134D01*
Y58872D01*
X-1065Y58872D01*
X-1123Y59161D01*
X-1134Y59218D01*
X-1330Y59511D01*
X-6338Y64519D01*
X-6335Y64577D01*
X-6141Y65029D01*
X-6059Y65046D01*
X-5847Y65187D01*
X-5500Y65535D01*
X-5358Y65747D01*
X-5337Y65850D01*
X-4970Y66072D01*
X-4820Y66106D01*
X-4803Y66095D01*
X-4458Y66026D01*
X-4458Y66026D01*
X-1893D01*
X-1694Y65727D01*
X-1368Y65510D01*
X-984Y65434D01*
X197D01*
X581Y65510D01*
X907Y65727D01*
X1124Y66053D01*
X1200Y66437D01*
Y66852D01*
X5757Y71409D01*
X5953Y71702D01*
X6021Y72047D01*
Y97062D01*
X6521Y97329D01*
X6789Y97150D01*
X7480Y97013D01*
X8172Y97150D01*
X8758Y97542D01*
X8806Y97615D01*
X21942D01*
X25174Y94383D01*
D02*
G37*
G36*
X1065Y87169D02*
Y77933D01*
X-131Y76736D01*
X-592Y76983D01*
X-556Y77165D01*
X-693Y77857D01*
X-1085Y78443D01*
X-1671Y78834D01*
X-2362Y78972D01*
X-3053Y78834D01*
X-3639Y78443D01*
X-3889Y78069D01*
X-5197D01*
X-5361Y78318D01*
X-5418Y78555D01*
X-3380Y80593D01*
X-2756D01*
X-2410Y80662D01*
X-2117Y80857D01*
X-1922Y81150D01*
X-1853Y81496D01*
X-1922Y81842D01*
X-2117Y82135D01*
X-2410Y82331D01*
X-2756Y82399D01*
X-3650D01*
X-3814Y82648D01*
X-3871Y82886D01*
X603Y87360D01*
X1065Y87169D01*
D02*
G37*
G36*
X-110628Y108383D02*
X-110612Y108339D01*
X-110724Y108172D01*
X-110862Y107480D01*
X-110724Y106789D01*
X-110332Y106203D01*
X-109746Y105812D01*
X-109206Y105704D01*
X-109015Y105273D01*
X-109007Y105193D01*
X-109198Y104940D01*
X-112790D01*
X-113258Y105640D01*
X-114039Y106162D01*
X-114961Y106345D01*
X-115882Y106162D01*
X-116664Y105640D01*
X-116997Y105141D01*
X-120472D01*
X-120472Y105141D01*
X-120933Y105050D01*
X-121324Y104788D01*
X-121324Y104788D01*
X-126836Y99277D01*
X-127097Y98886D01*
X-127189Y98425D01*
X-127189Y98425D01*
Y84751D01*
X-153255Y58685D01*
X-164567D01*
X-164567Y58685D01*
X-165028Y58593D01*
X-165419Y58332D01*
X-169749Y54001D01*
X-170010Y53610D01*
X-170102Y53150D01*
X-170102Y53150D01*
Y50336D01*
X-171260D01*
X-172066Y50175D01*
X-172148Y50121D01*
X-172490D01*
X-172932Y50033D01*
X-173306Y49783D01*
X-173556Y49408D01*
X-173644Y48967D01*
Y47490D01*
X-173556Y47049D01*
X-173306Y46674D01*
X-172932Y46424D01*
X-172490Y46336D01*
X-172148D01*
X-172066Y46281D01*
X-171260Y46121D01*
X-165748D01*
X-164942Y46281D01*
X-164860Y46336D01*
X-164518D01*
X-164076Y46424D01*
X-163702Y46674D01*
X-163452Y47049D01*
X-163364Y47490D01*
Y48967D01*
X-163452Y49408D01*
X-163702Y49783D01*
X-164076Y50033D01*
X-164518Y50121D01*
X-164860D01*
X-164942Y50175D01*
X-165748Y50336D01*
X-167693D01*
Y52651D01*
X-164068Y56276D01*
X-152756D01*
X-152756Y56276D01*
X-152295Y56368D01*
X-151904Y56629D01*
X-125133Y83400D01*
X-125133Y83400D01*
X-124976Y83635D01*
X-124872Y83791D01*
X-124780Y84252D01*
Y97926D01*
X-119974Y102733D01*
X-116997D01*
X-116664Y102234D01*
X-115882Y101712D01*
X-115485Y101633D01*
Y101123D01*
X-115882Y101044D01*
X-116664Y100522D01*
X-117186Y99741D01*
X-117369Y98819D01*
X-117186Y97897D01*
X-116664Y97116D01*
X-115882Y96594D01*
X-114961Y96410D01*
X-114039Y96594D01*
X-113258Y97116D01*
X-112735Y97897D01*
X-112552Y98819D01*
X-112716Y99644D01*
X-111395Y100965D01*
X-109746D01*
X-109615Y100465D01*
X-110099Y99741D01*
X-110283Y98819D01*
X-110099Y97897D01*
X-109577Y97116D01*
X-108796Y96594D01*
X-107874Y96410D01*
X-106952Y96594D01*
X-106171Y97116D01*
X-105649Y97897D01*
X-105465Y98819D01*
X-105649Y99741D01*
X-105738Y99874D01*
X-101006Y104605D01*
X-100952Y104687D01*
X-100394Y105245D01*
X-99002Y103853D01*
X-97960Y104895D01*
X-97523Y104714D01*
X-97460Y104529D01*
Y103172D01*
X-97954Y102678D01*
X-98171Y102352D01*
X-98248Y101969D01*
X-98171Y101584D01*
X-97954Y101259D01*
X-97628Y101041D01*
X-97244Y100965D01*
X-96183D01*
X-95907Y100689D01*
X-93701D01*
Y99902D01*
X-92913D01*
Y98146D01*
X-92649Y98198D01*
X-92259Y98460D01*
X-91998Y98850D01*
X-91906Y99311D01*
Y100114D01*
X-91406Y100321D01*
X-89981Y98897D01*
X-89656Y98679D01*
X-89272Y98603D01*
X-72463D01*
X-68820Y94960D01*
X-68597Y94811D01*
X-68693Y94311D01*
X-83579D01*
X-83762Y94584D01*
X-84348Y94976D01*
X-85039Y95113D01*
X-85731Y94976D01*
X-86317Y94584D01*
X-86708Y93998D01*
X-86846Y93307D01*
X-86708Y92616D01*
X-86317Y92030D01*
X-85731Y91638D01*
X-85039Y91501D01*
X-84348Y91638D01*
X-83762Y92030D01*
X-83579Y92304D01*
X-20667D01*
X-20607Y92263D01*
X-19685Y92080D01*
X-19398Y92137D01*
X-19025Y91763D01*
X-19271Y91303D01*
X-19685Y91385D01*
X-20607Y91202D01*
X-21388Y90679D01*
X-21910Y89898D01*
X-21914Y89880D01*
X-23622D01*
X-23968Y89811D01*
X-24261Y89615D01*
X-30636Y83240D01*
X-30802Y83328D01*
X-31056Y83527D01*
Y87402D01*
X-31239Y88323D01*
X-31762Y89105D01*
X-32543Y89627D01*
X-33465Y89810D01*
X-53150D01*
X-54071Y89627D01*
X-54853Y89105D01*
X-54918Y89007D01*
X-110236D01*
X-111161Y88885D01*
X-112023Y88528D01*
X-112763Y87960D01*
X-113331Y87220D01*
X-113688Y86358D01*
X-113810Y85433D01*
X-113688Y84508D01*
X-113331Y83646D01*
X-112763Y82906D01*
X-112023Y82338D01*
X-111161Y81981D01*
X-110236Y81859D01*
X-54918D01*
X-54853Y81761D01*
X-54071Y81239D01*
X-53150Y81056D01*
X-33527D01*
X-33329Y80802D01*
X-33240Y80636D01*
X-34497Y79379D01*
X-34693Y79086D01*
X-34761Y78740D01*
Y69244D01*
X-35136Y68994D01*
X-35527Y68408D01*
X-35665Y67716D01*
X-35527Y67025D01*
X-35136Y66439D01*
X-34893Y66277D01*
X-35044Y65777D01*
X-54035D01*
X-54070Y65770D01*
X-134055D01*
X-134723Y65682D01*
X-134906Y65607D01*
X-135346Y65424D01*
X-135880Y65014D01*
X-148166Y52729D01*
X-154872D01*
X-155540Y52641D01*
X-156163Y52383D01*
X-156329Y52255D01*
X-158268D01*
X-159074Y52095D01*
X-159758Y51638D01*
X-160215Y50954D01*
X-160375Y50148D01*
X-160215Y49341D01*
X-159758Y48658D01*
X-159074Y48201D01*
X-158268Y48040D01*
X-156329D01*
X-156163Y47912D01*
X-155811Y47767D01*
X-155812Y47716D01*
X-155925Y47273D01*
X-156623Y47134D01*
X-157307Y46677D01*
X-157764Y45994D01*
X-157924Y45187D01*
Y41978D01*
X-157764Y41172D01*
X-157612Y40944D01*
X-157879Y40444D01*
X-158268D01*
X-158714Y40355D01*
X-159014Y40805D01*
X-158770Y41172D01*
X-158609Y41978D01*
X-158770Y42785D01*
X-159226Y43468D01*
X-159571Y43813D01*
X-160255Y44270D01*
X-161061Y44430D01*
X-171260D01*
X-171675Y44348D01*
X-171783Y44420D01*
X-172244Y44511D01*
X-172244Y44511D01*
X-174735D01*
X-175069Y45010D01*
X-175850Y45532D01*
X-176772Y45716D01*
X-177693Y45532D01*
X-178475Y45010D01*
X-178611Y44807D01*
X-179111Y44958D01*
Y50682D01*
X-169580Y60213D01*
X-155118D01*
X-155118Y60213D01*
X-154657Y60305D01*
X-154267Y60566D01*
X-128676Y86156D01*
X-128676Y86156D01*
X-128415Y86547D01*
X-128323Y87008D01*
X-128323Y87008D01*
Y101076D01*
X-120761Y108638D01*
X-116997D01*
X-116664Y108140D01*
X-115882Y107617D01*
X-114961Y107434D01*
X-114039Y107617D01*
X-113258Y108140D01*
X-112924Y108638D01*
X-111417D01*
X-110957Y108730D01*
X-110628Y108383D01*
D02*
G37*
G36*
X-25136Y174706D02*
Y174094D01*
X-25066Y173741D01*
X-24865Y173442D01*
X-24566Y173241D01*
X-24213Y173171D01*
X-21969D01*
X-21615Y173241D01*
X-21316Y173442D01*
X-21115Y173741D01*
X-21045Y174094D01*
Y174517D01*
X-20983Y174609D01*
X-20492Y174297D01*
Y173721D01*
X-20415Y173336D01*
X-20198Y173011D01*
X-20102Y172947D01*
Y165097D01*
X-20478Y164768D01*
X-20669Y164793D01*
X-21543Y164678D01*
X-22357Y164340D01*
X-23056Y163804D01*
X-23592Y163105D01*
X-23930Y162291D01*
X-24045Y161417D01*
X-23930Y160544D01*
X-23592Y159730D01*
X-23056Y159031D01*
X-22357Y158494D01*
X-21543Y158157D01*
X-20669Y158042D01*
X-19796Y158157D01*
X-18982Y158494D01*
X-18283Y159031D01*
X-17746Y159730D01*
X-17409Y160544D01*
X-17294Y161417D01*
X-17409Y162291D01*
X-17722Y163046D01*
X-17693Y163189D01*
Y172947D01*
X-17597Y173011D01*
X-17533Y173107D01*
X-14116D01*
X-13914Y172972D01*
X-12992Y172788D01*
X-12070Y172972D01*
X-11868Y173107D01*
X-8451D01*
X-8387Y173011D01*
X-8061Y172793D01*
X-7677Y172717D01*
X-6496D01*
X-6112Y172793D01*
X-5787Y173011D01*
X-5570Y173334D01*
X-5559Y173336D01*
X-5071Y173336D01*
X-5060Y173334D01*
X-4843Y173011D01*
X-4518Y172793D01*
X-4134Y172717D01*
X-2953D01*
X-2569Y172793D01*
X-2243Y173011D01*
X-2179Y173107D01*
X-1364D01*
X-1300Y173011D01*
X-975Y172793D01*
X-591Y172717D01*
X591D01*
X975Y172793D01*
X1300Y173011D01*
X1516Y173334D01*
X1527Y173336D01*
X2016Y173336D01*
X2027Y173334D01*
X2243Y173011D01*
X2339Y172947D01*
Y164378D01*
X2249Y164340D01*
X1550Y163804D01*
X1014Y163105D01*
X677Y162291D01*
X562Y161417D01*
X677Y160544D01*
X1014Y159730D01*
X1550Y159031D01*
X2249Y158494D01*
X3063Y158157D01*
X3937Y158042D01*
X4811Y158157D01*
X5625Y158494D01*
X6324Y159031D01*
X6860Y159730D01*
X7197Y160544D01*
X7312Y161417D01*
X7197Y162291D01*
X6860Y163105D01*
X6324Y163804D01*
X5625Y164340D01*
X4811Y164678D01*
X4747Y164686D01*
Y172947D01*
X4843Y173011D01*
X5061Y173336D01*
X5137Y173721D01*
Y173993D01*
X7019D01*
X7352Y173494D01*
X8133Y172972D01*
X9055Y172788D01*
X9977Y172972D01*
X10758Y173494D01*
X10894Y173697D01*
X11394Y173546D01*
Y160735D01*
X5294Y154635D01*
X4811Y154835D01*
X3937Y154950D01*
X3063Y154835D01*
X2249Y154498D01*
X1550Y153962D01*
X1014Y153262D01*
X730Y152578D01*
X-25699D01*
X-25842Y152939D01*
X-25871Y153078D01*
X-25497Y153639D01*
X-25359Y154331D01*
X-25497Y155022D01*
X-25888Y155608D01*
X-26162Y155791D01*
Y174388D01*
X-25636Y174914D01*
X-25136Y174706D01*
D02*
G37*
G36*
X-32197Y133002D02*
X-32699Y132500D01*
X-37008D01*
X-37392Y132423D01*
X-37718Y132206D01*
X-42442Y127481D01*
X-42659Y127156D01*
X-42736Y126772D01*
Y124689D01*
X-43010Y124506D01*
X-43401Y123920D01*
X-43539Y123228D01*
X-43401Y122537D01*
X-43289Y122370D01*
X-43556Y121870D01*
X-46850D01*
X-47234Y121793D01*
X-47560Y121576D01*
X-51891Y117245D01*
X-52108Y116920D01*
X-52185Y116535D01*
Y114059D01*
X-52458Y113876D01*
X-52850Y113290D01*
X-52987Y112598D01*
X-52850Y111907D01*
X-52475Y111346D01*
X-52504Y111206D01*
X-52647Y110846D01*
X-53767D01*
X-55442Y112521D01*
X-55768Y112738D01*
X-56152Y112815D01*
X-59449D01*
X-59833Y112738D01*
X-60158Y112521D01*
X-61488Y111191D01*
X-61811Y111255D01*
X-62502Y111118D01*
X-63088Y110726D01*
X-63480Y110140D01*
X-63617Y109449D01*
X-63480Y108758D01*
X-63088Y108171D01*
X-62502Y107780D01*
X-62122Y107704D01*
X-62171Y107204D01*
X-62402D01*
X-62786Y107128D01*
X-63111Y106910D01*
X-63175Y106815D01*
X-63773D01*
X-64180Y107222D01*
X-64439Y107609D01*
X-65220Y108131D01*
X-66142Y108314D01*
X-66378Y108267D01*
X-66625Y108728D01*
X-61789Y113563D01*
X-57087D01*
X-56703Y113640D01*
X-56377Y113857D01*
X-51653Y118582D01*
X-51507Y118799D01*
X-51435Y118907D01*
X-51359Y119291D01*
Y122441D01*
X-51435Y122825D01*
X-51507Y122933D01*
X-51653Y123151D01*
X-53227Y124725D01*
X-53553Y124943D01*
X-53651Y124962D01*
X-54115Y125197D01*
Y128067D01*
X-53841Y128250D01*
X-53449Y128836D01*
X-53312Y129528D01*
X-53449Y130219D01*
X-53841Y130805D01*
X-54427Y131196D01*
X-55118Y131334D01*
X-55809Y131196D01*
X-56395Y130805D01*
X-56787Y130219D01*
X-56924Y129528D01*
X-56787Y128836D01*
X-56395Y128250D01*
X-56122Y128067D01*
Y125612D01*
X-56715Y125019D01*
X-59536D01*
X-59718Y125141D01*
X-60453Y125287D01*
X-60571D01*
X-61306Y125141D01*
X-61489Y125019D01*
X-61989Y125286D01*
Y125962D01*
X-60130Y127821D01*
X-59939Y127859D01*
X-59353Y128250D01*
X-58961Y128836D01*
X-58824Y129528D01*
X-58961Y130219D01*
X-59353Y130805D01*
X-59939Y131196D01*
X-60630Y131334D01*
X-61321Y131196D01*
X-61907Y130805D01*
X-62299Y130219D01*
X-62436Y129528D01*
X-62299Y128836D01*
X-62160Y128629D01*
X-63447Y127343D01*
X-64021Y127475D01*
X-64038Y127521D01*
X-63843Y127813D01*
X-63705Y128504D01*
X-63843Y129195D01*
X-64235Y129781D01*
X-64821Y130173D01*
X-65512Y130310D01*
X-65598Y130293D01*
X-68046Y132741D01*
X-68347Y132942D01*
X-68291Y133375D01*
X-68264Y133442D01*
X-54070D01*
X-54035Y133436D01*
X-32579D01*
X-32443Y133463D01*
X-32197Y133002D01*
D02*
G37*
G36*
X-8383Y61226D02*
Y60630D01*
X-8315Y60284D01*
X-8119Y59991D01*
X-7826Y59795D01*
X-7480Y59727D01*
X-7135Y59795D01*
X-6842Y59991D01*
X-6646Y60284D01*
X-6577Y60630D01*
Y61497D01*
X-6328Y61660D01*
X-6091Y61717D01*
X-2992Y58618D01*
X-2968Y58504D01*
X-3005Y58054D01*
X-3672Y57609D01*
X-4194Y56827D01*
X-4377Y55905D01*
X-4194Y54984D01*
X-3672Y54203D01*
X-3370Y54001D01*
Y53025D01*
X-3635Y52847D01*
X-3758Y52664D01*
X-3766Y52661D01*
X-4305D01*
X-4313Y52664D01*
X-4436Y52847D01*
X-4794Y53087D01*
X-5217Y53171D01*
X-6594D01*
X-7017Y53087D01*
X-7375Y52847D01*
X-7498Y52664D01*
X-7506Y52661D01*
X-8045D01*
X-8053Y52664D01*
X-8176Y52847D01*
X-8441Y53025D01*
Y53738D01*
X-7746Y54203D01*
X-7224Y54984D01*
X-7040Y55905D01*
X-7224Y56827D01*
X-7746Y57609D01*
X-8527Y58131D01*
X-8573Y58140D01*
X-8603Y58289D01*
X-8614Y58347D01*
X-8810Y58640D01*
X-10514Y60343D01*
X-10510Y60401D01*
X-10317Y60854D01*
X-10235Y60870D01*
X-10023Y61011D01*
X-9675Y61359D01*
X-9534Y61571D01*
X-9523Y61626D01*
X-9517Y61654D01*
X-9065Y61847D01*
X-9008Y61850D01*
X-8383Y61226D01*
D02*
G37*
G36*
X14938Y246745D02*
Y187900D01*
X12100Y185063D01*
X-5906D01*
X-6366Y184971D01*
X-6757Y184710D01*
X-7228Y184238D01*
X-7558Y184568D01*
X-7884Y184785D01*
X-8268Y184862D01*
X-24409D01*
X-24571Y184830D01*
X-24817Y185290D01*
X-8204Y201904D01*
X-8204Y201904D01*
X-8047Y202139D01*
X-7942Y202295D01*
X-7851Y202756D01*
Y248357D01*
X-7352Y248691D01*
X-7019Y249189D01*
X668D01*
X677Y249126D01*
X1014Y248312D01*
X1550Y247613D01*
X2249Y247077D01*
X3063Y246740D01*
X3937Y246625D01*
X4811Y246740D01*
X5625Y247077D01*
X6324Y247613D01*
X6860Y248312D01*
X7197Y249126D01*
X7312Y250000D01*
X7197Y250874D01*
X6860Y251688D01*
X6324Y252387D01*
X6011Y252626D01*
X6181Y253127D01*
X8556D01*
X14938Y246745D01*
D02*
G37*
G36*
X-31612Y54516D02*
Y47618D01*
X-33445Y45785D01*
X-57480D01*
X-57480Y45785D01*
X-57769Y45728D01*
X-57826Y45716D01*
X-58119Y45520D01*
X-61662Y41977D01*
X-61858Y41684D01*
X-61927Y41339D01*
Y37662D01*
X-61945Y37658D01*
X-62727Y37136D01*
X-63249Y36355D01*
X-63432Y35433D01*
X-63249Y34511D01*
X-62822Y33873D01*
X-63702Y32993D01*
X-63919Y32667D01*
X-63996Y32283D01*
Y25557D01*
X-64496Y25350D01*
X-69546Y30400D01*
Y41437D01*
X-69707Y42243D01*
X-70163Y42927D01*
X-72034Y44797D01*
X-72717Y45254D01*
X-73524Y45415D01*
X-74330Y45254D01*
X-75014Y44797D01*
X-75471Y44114D01*
X-75563Y43647D01*
X-76063Y43696D01*
Y43898D01*
X-76140Y44282D01*
X-76347Y44592D01*
Y46263D01*
X-76250Y46328D01*
X-75728Y47110D01*
X-75544Y48031D01*
X-75728Y48953D01*
X-76250Y49735D01*
X-77031Y50257D01*
X-77953Y50440D01*
X-78874Y50257D01*
X-79656Y49735D01*
X-80178Y48953D01*
X-80361Y48031D01*
X-80178Y47110D01*
X-79656Y46328D01*
X-79558Y46263D01*
Y44913D01*
X-80186D01*
X-80195Y44957D01*
X-80489Y45397D01*
X-80928Y45691D01*
X-81447Y45794D01*
X-83317D01*
X-83835Y45691D01*
X-84275Y45397D01*
X-84569Y44957D01*
X-84672Y44439D01*
Y40600D01*
X-84569Y40082D01*
X-84275Y39642D01*
X-83835Y39349D01*
X-83317Y39246D01*
X-82602D01*
Y38372D01*
X-82698Y38308D01*
X-82915Y37982D01*
X-82992Y37598D01*
Y36511D01*
X-83248Y36313D01*
X-83423Y36350D01*
X-83737Y36533D01*
Y37598D01*
X-83828Y38059D01*
X-84089Y38450D01*
X-84480Y38711D01*
X-84838Y38782D01*
X-87514Y41458D01*
X-87478Y41732D01*
X-89272D01*
Y38674D01*
X-87326Y36729D01*
Y36417D01*
X-87235Y35956D01*
X-86974Y35566D01*
X-86834Y35473D01*
Y31260D01*
X-86826Y31219D01*
Y30118D01*
X-86766Y29819D01*
X-86597Y29565D01*
X-86417Y29445D01*
Y31260D01*
X-84866D01*
X-84842Y31143D01*
Y29445D01*
X-84663Y29565D01*
X-84651Y29582D01*
X-84512Y29681D01*
X-84075Y29500D01*
X-83248D01*
X-83044Y29585D01*
X-82677Y29655D01*
X-82310Y29585D01*
X-82106Y29500D01*
X-81279D01*
X-80843Y29681D01*
X-80575Y29681D01*
X-80138Y29500D01*
X-79311D01*
X-78874Y29681D01*
X-78693Y30118D01*
Y32402D01*
X-78874Y32838D01*
X-79188Y32969D01*
X-79382Y33481D01*
X-78556Y34308D01*
X-78087Y33995D01*
X-77165Y33812D01*
X-76244Y33995D01*
X-75462Y34517D01*
X-74940Y35299D01*
X-74757Y36220D01*
X-74940Y37142D01*
X-75462Y37923D01*
X-76244Y38446D01*
X-77165Y38629D01*
X-78087Y38446D01*
X-78868Y37923D01*
X-79304Y37272D01*
X-79804Y37424D01*
Y37598D01*
X-79880Y37982D01*
X-80098Y38308D01*
X-80193Y38372D01*
Y40091D01*
X-80092Y40600D01*
Y41701D01*
X-77658D01*
X-77658Y41701D01*
X-77599Y41713D01*
X-77067D01*
X-76683Y41789D01*
X-76357Y42007D01*
X-76140Y42333D01*
X-76063Y42717D01*
Y42918D01*
X-75563Y42967D01*
X-75471Y42501D01*
X-75014Y41817D01*
X-73761Y40564D01*
Y29528D01*
X-73601Y28721D01*
X-73144Y28037D01*
X-70347Y25240D01*
X-70593Y24780D01*
X-70866Y24834D01*
X-71481Y24712D01*
X-72001Y24364D01*
X-72350Y23843D01*
X-72459Y23294D01*
X-72646Y23184D01*
X-72890Y23121D01*
X-73245Y23473D01*
X-72972Y23881D01*
X-72788Y24803D01*
X-72972Y25725D01*
X-73494Y26506D01*
X-74275Y27028D01*
X-75197Y27212D01*
X-76118Y27028D01*
X-76704Y26637D01*
X-78719D01*
X-78874Y27012D01*
X-79311Y27193D01*
X-80138D01*
X-80575Y27012D01*
X-80843Y27012D01*
X-81279Y27193D01*
X-82106D01*
X-82310Y27108D01*
X-82677Y27038D01*
X-83044Y27108D01*
X-83248Y27193D01*
X-84075D01*
X-84512Y27012D01*
X-84780Y27012D01*
X-85216Y27193D01*
X-86043D01*
X-86480Y27012D01*
X-86661Y26575D01*
Y26016D01*
X-86743Y25894D01*
X-86834Y25433D01*
Y25105D01*
X-87956Y23983D01*
X-88327Y24057D01*
X-96319D01*
X-97141Y23893D01*
X-97838Y23428D01*
X-98303Y22731D01*
X-98466Y21910D01*
Y4075D01*
X-98303Y3253D01*
X-97838Y2556D01*
X-97141Y2091D01*
X-96319Y1927D01*
X-88327D01*
X-87505Y2091D01*
X-86808Y2556D01*
X-86343Y3253D01*
X-86179Y4075D01*
Y7752D01*
X-85223D01*
X-85158Y7657D01*
X-85062Y7593D01*
Y2430D01*
X-85561Y2097D01*
X-86083Y1315D01*
X-86267Y394D01*
X-86083Y-528D01*
X-85561Y-1309D01*
X-84780Y-1831D01*
X-83858Y-2015D01*
X-82937Y-1831D01*
X-82155Y-1309D01*
X-81633Y-528D01*
X-81450Y394D01*
X-81633Y1315D01*
X-82155Y2097D01*
X-82654Y2430D01*
Y3792D01*
X-82154Y3841D01*
X-82146Y3803D01*
X-81624Y3021D01*
X-80843Y2499D01*
X-79921Y2316D01*
X-79000Y2499D01*
X-78218Y3021D01*
X-77696Y3803D01*
X-77513Y4724D01*
X-77696Y5646D01*
X-78218Y6427D01*
X-79000Y6950D01*
X-79921Y7133D01*
X-80292Y7437D01*
Y9825D01*
X-79830Y10017D01*
X-77623Y7810D01*
X-77232Y7549D01*
X-76772Y7457D01*
X-76311Y7549D01*
X-75920Y7810D01*
X-75659Y8201D01*
X-75567Y8661D01*
X-75659Y9122D01*
X-75920Y9513D01*
X-76998Y10591D01*
X-76752Y11052D01*
X-76378Y10977D01*
X-75456Y11161D01*
X-74675Y11683D01*
X-74601Y11794D01*
X-74070Y11688D01*
X-74057Y11624D01*
X-73839Y11298D01*
X-73514Y11081D01*
X-73130Y11004D01*
X-71949D01*
X-71565Y11081D01*
X-71239Y11298D01*
X-71022Y11624D01*
X-70945Y12008D01*
Y13189D01*
X-71022Y13573D01*
X-71239Y13899D01*
X-71335Y13963D01*
Y14777D01*
X-71239Y14842D01*
X-71022Y15167D01*
X-70945Y15551D01*
Y16732D01*
X-71022Y17116D01*
X-71239Y17442D01*
X-71335Y17506D01*
Y18321D01*
X-71239Y18385D01*
X-71022Y18711D01*
X-70945Y19094D01*
Y19687D01*
X-70445Y19924D01*
X-70200Y19735D01*
Y19094D01*
X-70109Y18634D01*
X-69848Y18243D01*
X-69611Y18085D01*
X-69573Y17586D01*
X-69593Y17517D01*
X-69706Y17442D01*
X-69923Y17116D01*
X-70000Y16732D01*
Y15551D01*
X-69923Y15167D01*
X-69706Y14842D01*
X-69610Y14777D01*
Y13963D01*
X-69706Y13899D01*
X-69923Y13573D01*
X-70000Y13189D01*
Y12008D01*
X-69923Y11624D01*
X-69797Y11434D01*
X-71459Y9772D01*
X-72047Y9889D01*
X-72969Y9706D01*
X-73750Y9183D01*
X-74272Y8402D01*
X-74456Y7480D01*
X-74272Y6559D01*
X-73750Y5777D01*
X-73051Y5310D01*
Y416D01*
X-78368Y-4902D01*
X-126750D01*
X-130296Y-1356D01*
Y1927D01*
X-127303D01*
X-126481Y2091D01*
X-125785Y2556D01*
X-125319Y3253D01*
X-125156Y4075D01*
Y21910D01*
X-125319Y22731D01*
X-125785Y23428D01*
X-126481Y23893D01*
X-127303Y24057D01*
X-131179D01*
Y42126D01*
X-131267Y42794D01*
X-131271Y42805D01*
Y44636D01*
X-131382Y45193D01*
X-131697Y45665D01*
X-131849Y45766D01*
Y46838D01*
X-131349Y46989D01*
X-131313Y46935D01*
X-130629Y46478D01*
X-129823Y46318D01*
X-126060D01*
X-125908Y45818D01*
X-125925Y45807D01*
X-126284Y45270D01*
X-126410Y44636D01*
Y42913D01*
X-123721D01*
Y42126D01*
X-122933D01*
Y37960D01*
X-122687D01*
X-122053Y38086D01*
X-121516Y38445D01*
X-121157Y38982D01*
X-121045Y39545D01*
X-118898D01*
X-118230Y39633D01*
X-117607Y39891D01*
X-117072Y40301D01*
X-116662Y40835D01*
X-116404Y41458D01*
X-116316Y42126D01*
X-116404Y42794D01*
X-116662Y43417D01*
X-117072Y43951D01*
X-117594Y44351D01*
X-117599Y44394D01*
X-117483Y44851D01*
X-110236D01*
X-109311Y44973D01*
X-108449Y45330D01*
X-107709Y45898D01*
X-107141Y46638D01*
X-106784Y47500D01*
X-106662Y48425D01*
X-106784Y49350D01*
X-107141Y50212D01*
X-107709Y50952D01*
X-108449Y51520D01*
X-109311Y51877D01*
X-110236Y51999D01*
X-118110D01*
X-119035Y51877D01*
X-119897Y51520D01*
X-120637Y50952D01*
X-120959Y50533D01*
X-123312D01*
X-123488Y50650D01*
X-124409Y50834D01*
X-125331Y50650D01*
X-125507Y50533D01*
X-129823D01*
X-130629Y50372D01*
X-131313Y49915D01*
X-131592Y49498D01*
X-132188D01*
X-132466Y49915D01*
X-133150Y50372D01*
X-133957Y50533D01*
X-134763Y50372D01*
X-135447Y49915D01*
X-135904Y49232D01*
X-136064Y48425D01*
Y45303D01*
X-136138Y45193D01*
X-136248Y44636D01*
Y42805D01*
X-136253Y42794D01*
X-136341Y42126D01*
Y23744D01*
X-136814Y23428D01*
X-137279Y22731D01*
X-137443Y21910D01*
Y10344D01*
X-137943Y10273D01*
X-138434Y11979D01*
X-139479Y14502D01*
X-140800Y16892D01*
X-142380Y19119D01*
X-144200Y21155D01*
X-146236Y22974D01*
X-148463Y24554D01*
X-150853Y25875D01*
X-153375Y26920D01*
X-155666Y27580D01*
X-155645Y28094D01*
X-155010Y28220D01*
X-154327Y28677D01*
X-153870Y29361D01*
X-153709Y30167D01*
X-153798Y30613D01*
Y34252D01*
X-153958Y35058D01*
X-154407Y35729D01*
X-154392Y35810D01*
X-154244Y36229D01*
X-153180D01*
X-153013Y36101D01*
X-152391Y35843D01*
X-151723Y35756D01*
X-151427D01*
X-150759Y35843D01*
X-150448Y35972D01*
X-150137Y36101D01*
X-149602Y36511D01*
X-131411Y54702D01*
X-54070D01*
X-54035Y54695D01*
X-32579D01*
X-32112Y54788D01*
X-31612Y54516D01*
D02*
G37*
G36*
X-67301Y128590D02*
X-67318Y128504D01*
X-67181Y127813D01*
X-66789Y127227D01*
X-66716Y127178D01*
Y126006D01*
X-67207Y125984D01*
X-67207Y125984D01*
X-67264Y126272D01*
X-67276Y126330D01*
X-67472Y126623D01*
X-67472Y126623D01*
X-68754Y127905D01*
X-68666Y128347D01*
X-68804Y129038D01*
X-69195Y129624D01*
X-69781Y130015D01*
X-70472Y130153D01*
X-71164Y130015D01*
X-71750Y129624D01*
X-72141Y129038D01*
X-72279Y128347D01*
X-72141Y127655D01*
X-71750Y127069D01*
X-71164Y126678D01*
X-70472Y126540D01*
X-70031Y126628D01*
X-69270Y125867D01*
X-69295Y125696D01*
X-69366Y125620D01*
X-69725Y125431D01*
Y123366D01*
Y121390D01*
X-69641Y121406D01*
X-69454Y121531D01*
X-69013Y121295D01*
Y120472D01*
X-68967Y120241D01*
X-69257Y119968D01*
X-69372Y119910D01*
X-69718Y120141D01*
X-70453Y120287D01*
X-70571D01*
X-71306Y120141D01*
X-71929Y119724D01*
X-72345Y119101D01*
X-72492Y118366D01*
X-72345Y117631D01*
X-71929Y117008D01*
X-71306Y116592D01*
X-70571Y116445D01*
X-70453D01*
X-69718Y116592D01*
X-69095Y117008D01*
X-68678Y117631D01*
X-68532Y118366D01*
X-68574Y118579D01*
X-68177Y119143D01*
X-68074Y119159D01*
X-67457Y118542D01*
X-67492Y118366D01*
X-67399Y117898D01*
X-73073Y112224D01*
X-73327D01*
X-73711Y112148D01*
X-74036Y111930D01*
X-74254Y111604D01*
X-74330Y111221D01*
Y110039D01*
X-74254Y109655D01*
X-74036Y109330D01*
X-73713Y109114D01*
X-73711Y109103D01*
Y108614D01*
X-73713Y108603D01*
X-74036Y108387D01*
X-74254Y108061D01*
X-74330Y107677D01*
Y106496D01*
X-74254Y106112D01*
X-74036Y105787D01*
X-73711Y105569D01*
X-73327Y105492D01*
X-72146D01*
X-71762Y105569D01*
X-71436Y105787D01*
X-71219Y106112D01*
X-71189Y106263D01*
X-70689Y106213D01*
Y105140D01*
X-71384Y104445D01*
X-71436Y104450D01*
X-71762Y104667D01*
X-72146Y104744D01*
X-73327D01*
X-73711Y104667D01*
X-74036Y104450D01*
X-74254Y104124D01*
X-74330Y103740D01*
Y102559D01*
X-74254Y102175D01*
X-74036Y101849D01*
X-73711Y101632D01*
X-73327Y101556D01*
X-72224D01*
X-72088Y101368D01*
X-71998Y101075D01*
X-72463Y100610D01*
X-75867D01*
Y101651D01*
X-75570Y101849D01*
X-75352Y102175D01*
X-75276Y102559D01*
Y103740D01*
X-75352Y104124D01*
X-75570Y104450D01*
X-75896Y104667D01*
X-76279Y104744D01*
X-77461D01*
X-77845Y104667D01*
X-78170Y104450D01*
X-78388Y104124D01*
X-78464Y103740D01*
Y102559D01*
X-78388Y102175D01*
X-78170Y101849D01*
X-77874Y101651D01*
Y100610D01*
X-83657D01*
X-83808Y101110D01*
X-83762Y101141D01*
X-83371Y101727D01*
X-83233Y102418D01*
X-83371Y103109D01*
X-83762Y103695D01*
X-84348Y104087D01*
X-85039Y104225D01*
X-85362Y104160D01*
X-86785Y105583D01*
X-86578Y106083D01*
X-78368D01*
X-78170Y105787D01*
X-77845Y105569D01*
X-77461Y105492D01*
X-76279D01*
X-75896Y105569D01*
X-75570Y105787D01*
X-75352Y106112D01*
X-75276Y106496D01*
Y107677D01*
X-75352Y108061D01*
X-75570Y108387D01*
X-75893Y108603D01*
X-75896Y108614D01*
Y109103D01*
X-75893Y109114D01*
X-75570Y109330D01*
X-75352Y109655D01*
X-75276Y110039D01*
Y111221D01*
X-75352Y111604D01*
X-75570Y111930D01*
X-75896Y112148D01*
X-76279Y112224D01*
X-77461D01*
X-77845Y112148D01*
X-78170Y111930D01*
X-78368Y111634D01*
X-82054D01*
X-82350Y112097D01*
X-82345Y112134D01*
X-81794Y112502D01*
X-81402Y113088D01*
X-81265Y113779D01*
X-81402Y114471D01*
X-81473Y114577D01*
X-81113Y114938D01*
X-81006Y114867D01*
X-80315Y114729D01*
X-79624Y114867D01*
X-79038Y115258D01*
X-78646Y115844D01*
X-78509Y116535D01*
X-78646Y117227D01*
X-79038Y117813D01*
X-79624Y118204D01*
X-79993Y118278D01*
X-82038Y120324D01*
X-82332Y120519D01*
X-82677Y120588D01*
X-95452D01*
X-95659Y121088D01*
X-93483Y123264D01*
X-93266Y123589D01*
X-93253Y123653D01*
X-93189Y123973D01*
Y124486D01*
X-92893Y124684D01*
X-92675Y125010D01*
X-92599Y125394D01*
Y126575D01*
X-92675Y126959D01*
X-92893Y127284D01*
X-93218Y127502D01*
X-93602Y127578D01*
X-94784D01*
X-95167Y127502D01*
X-95493Y127284D01*
X-96077Y127311D01*
X-96328Y127687D01*
X-97110Y128209D01*
X-98032Y128393D01*
X-98953Y128209D01*
X-99735Y127687D01*
X-100257Y126906D01*
X-100440Y125984D01*
X-100257Y125063D01*
X-99735Y124281D01*
X-98953Y123759D01*
X-98032Y123576D01*
X-97110Y123759D01*
X-96328Y124281D01*
X-96246Y124405D01*
X-95690Y124459D01*
X-95687Y123899D01*
X-99781Y119804D01*
X-99836Y119722D01*
X-100394Y119164D01*
X-100952Y119722D01*
X-101006Y119804D01*
X-103327Y122125D01*
Y123814D01*
X-102628Y124281D01*
X-102106Y125063D01*
X-101922Y125984D01*
X-102106Y126906D01*
X-102628Y127687D01*
X-103409Y128209D01*
X-104331Y128393D01*
X-105252Y128209D01*
X-106034Y127687D01*
X-106556Y126906D01*
X-106739Y125984D01*
X-106556Y125063D01*
X-106034Y124281D01*
X-105334Y123814D01*
Y122055D01*
X-105834Y121848D01*
X-108151Y124165D01*
X-108140Y124281D01*
X-107617Y125063D01*
X-107434Y125984D01*
X-107617Y126906D01*
X-108140Y127687D01*
X-108921Y128209D01*
X-109843Y128393D01*
X-110764Y128209D01*
X-111546Y127687D01*
X-112068Y126906D01*
X-112251Y125984D01*
X-112068Y125063D01*
X-111546Y124281D01*
X-110764Y123759D01*
X-110740Y123649D01*
X-111144Y123149D01*
X-115431D01*
X-115629Y123446D01*
X-115955Y123663D01*
X-116339Y123740D01*
X-117520D01*
X-117904Y123663D01*
X-118229Y123446D01*
X-118428Y123149D01*
X-119368D01*
X-119566Y123446D01*
X-119892Y123663D01*
X-120276Y123740D01*
X-121457D01*
X-121841Y123663D01*
X-122166Y123446D01*
X-122364Y123149D01*
X-123305D01*
X-123503Y123446D01*
X-123829Y123663D01*
X-124213Y123740D01*
X-125394D01*
X-125778Y123663D01*
X-125855Y123612D01*
X-126355Y123879D01*
Y128241D01*
X-123911Y130685D01*
X-69397D01*
X-67301Y128590D01*
D02*
G37*
%LPC*%
G36*
X-89124Y45994D02*
X-89272D01*
Y43307D01*
X-87568D01*
Y44439D01*
X-87687Y45034D01*
X-88024Y45539D01*
X-88529Y45876D01*
X-89124Y45994D01*
D02*
G37*
G36*
X-90847D02*
X-90994D01*
X-91589Y45876D01*
X-92094Y45539D01*
X-92431Y45034D01*
X-92550Y44439D01*
Y44313D01*
X-94488D01*
X-95156Y44225D01*
X-95779Y43968D01*
X-96313Y43557D01*
X-96724Y43023D01*
X-96981Y42400D01*
X-97069Y41732D01*
X-96981Y41064D01*
X-96724Y40442D01*
X-96313Y39907D01*
X-95779Y39497D01*
X-95156Y39239D01*
X-94488Y39151D01*
X-91528D01*
X-90994Y39045D01*
X-90847D01*
Y42520D01*
Y45994D01*
D02*
G37*
G36*
X-6693Y43903D02*
X-7094Y43823D01*
X-7517Y43541D01*
X-7593Y43426D01*
X-8176Y43399D01*
X-8534Y43638D01*
X-8957Y43722D01*
X-10335D01*
X-10757Y43638D01*
X-11115Y43399D01*
X-11355Y43041D01*
X-11439Y42618D01*
Y40059D01*
X-11355Y39637D01*
X-11115Y39279D01*
X-10757Y39039D01*
X-10335Y38955D01*
X-8957D01*
X-8534Y39039D01*
X-8176Y39279D01*
X-7593Y39251D01*
X-7517Y39137D01*
X-7094Y38854D01*
X-6693Y38774D01*
Y41339D01*
Y43903D01*
D02*
G37*
G36*
X-124508Y41339D02*
X-126410D01*
Y39616D01*
X-126284Y38982D01*
X-125925Y38445D01*
X-125388Y38086D01*
X-124754Y37960D01*
X-124508D01*
Y41339D01*
D02*
G37*
G36*
X-20935Y13091D02*
X-24409D01*
X-27884D01*
Y12943D01*
X-27766Y12348D01*
X-27429Y11843D01*
X-26924Y11506D01*
X-26329Y11387D01*
X-26015D01*
Y10236D01*
X-25893Y9622D01*
X-25545Y9101D01*
X-25024Y8753D01*
X-24409Y8631D01*
X-23795Y8753D01*
X-23274Y9101D01*
X-22926Y9622D01*
X-22804Y10236D01*
Y11387D01*
X-22490D01*
X-21895Y11506D01*
X-21390Y11843D01*
X-21053Y12348D01*
X-20935Y12943D01*
Y13091D01*
D02*
G37*
G36*
X-41240Y17254D02*
X-41388D01*
X-41983Y17136D01*
X-42488Y16799D01*
X-42825Y16294D01*
X-42943Y15699D01*
Y14567D01*
X-41240D01*
Y17254D01*
D02*
G37*
G36*
X0Y8901D02*
X-1736Y8730D01*
X-3406Y8224D01*
X-4945Y7401D01*
X-6294Y6294D01*
X-7401Y4945D01*
X-8224Y3406D01*
X-8730Y1736D01*
X-8901Y0D01*
X-8730Y-1736D01*
X-8224Y-3406D01*
X-7401Y-4945D01*
X-6294Y-6294D01*
X-4945Y-7401D01*
X-3406Y-8224D01*
X-1736Y-8730D01*
X0Y-8901D01*
X1736Y-8730D01*
X3406Y-8224D01*
X4945Y-7401D01*
X6294Y-6294D01*
X7401Y-4945D01*
X8224Y-3406D01*
X8730Y-1736D01*
X8901Y0D01*
X8730Y1736D01*
X8224Y3406D01*
X7401Y4945D01*
X6294Y6294D01*
X4945Y7401D01*
X3406Y8224D01*
X1736Y8730D01*
X0Y8901D01*
D02*
G37*
G36*
X-11811Y18141D02*
X-13046Y18019D01*
X-14233Y17659D01*
X-15328Y17074D01*
X-16287Y16287D01*
X-17074Y15328D01*
X-17659Y14233D01*
X-18019Y13046D01*
X-18141Y11811D01*
X-18019Y10576D01*
X-17659Y9389D01*
X-17074Y8294D01*
X-16287Y7335D01*
X-15328Y6548D01*
X-14233Y5963D01*
X-13046Y5603D01*
X-11811Y5481D01*
X-10576Y5603D01*
X-9389Y5963D01*
X-8294Y6548D01*
X-7335Y7335D01*
X-6548Y8294D01*
X-5963Y9389D01*
X-5603Y10576D01*
X-5481Y11811D01*
X-5603Y13046D01*
X-5963Y14233D01*
X-6548Y15328D01*
X-7335Y16287D01*
X-8294Y17074D01*
X-9389Y17659D01*
X-10576Y18019D01*
X-11811Y18141D01*
D02*
G37*
G36*
X-22490Y16368D02*
X-23622D01*
Y14665D01*
X-20935D01*
Y14813D01*
X-21053Y15408D01*
X-21390Y15913D01*
X-21895Y16250D01*
X-22490Y16368D01*
D02*
G37*
G36*
X8228Y36635D02*
X6339D01*
Y34449D01*
Y32263D01*
X8228D01*
X8624Y32341D01*
X11614D01*
X12421Y32502D01*
X13104Y32959D01*
X13561Y33642D01*
X13722Y34449D01*
X13561Y35255D01*
X13104Y35939D01*
X12421Y36396D01*
X11614Y36556D01*
X8624D01*
X8228Y36635D01*
D02*
G37*
G36*
X-39518Y17254D02*
X-39665D01*
Y14567D01*
X-37962D01*
Y15699D01*
X-38081Y16294D01*
X-38418Y16799D01*
X-38923Y17136D01*
X-39518Y17254D01*
D02*
G37*
G36*
X-25197Y16368D02*
X-26329D01*
X-26924Y16250D01*
X-27429Y15913D01*
X-27766Y15408D01*
X-27884Y14813D01*
Y14665D01*
X-25197D01*
Y16368D01*
D02*
G37*
G36*
X-90846Y125197D02*
X-91815D01*
X-91762Y124933D01*
X-91501Y124542D01*
X-91110Y124281D01*
X-90846Y124229D01*
Y125197D01*
D02*
G37*
G36*
X-89272Y127740D02*
Y125984D01*
Y124229D01*
X-89008Y124281D01*
X-88617Y124542D01*
X-88458Y124780D01*
X-86614D01*
X-86153Y124872D01*
X-85763Y125133D01*
X-85502Y125523D01*
X-85410Y125984D01*
X-85502Y126445D01*
X-85763Y126836D01*
X-86153Y127097D01*
X-86614Y127189D01*
X-88458D01*
X-88617Y127426D01*
X-89008Y127687D01*
X-89272Y127740D01*
D02*
G37*
G36*
X-75512Y127257D02*
X-76427Y127075D01*
X-77202Y126556D01*
X-77720Y125781D01*
X-77902Y124866D01*
X-77720Y123951D01*
X-77202Y123176D01*
X-76427Y122658D01*
X-75512Y122476D01*
X-74597Y122658D01*
X-73822Y123176D01*
X-73303Y123951D01*
X-73121Y124866D01*
X-73303Y125781D01*
X-73822Y126556D01*
X-74597Y127075D01*
X-75512Y127257D01*
D02*
G37*
G36*
X-71299Y125343D02*
X-71383Y125326D01*
X-72071Y124866D01*
X-72531Y124178D01*
X-72536Y124153D01*
X-71299D01*
Y125343D01*
D02*
G37*
G36*
X-90846Y127740D02*
X-91110Y127687D01*
X-91501Y127426D01*
X-91762Y127036D01*
X-91815Y126772D01*
X-90846D01*
Y127740D01*
D02*
G37*
G36*
X3150Y239370D02*
X467D01*
X485Y239232D01*
X842Y238371D01*
X1410Y237630D01*
X2150Y237062D01*
X3012Y236705D01*
X3150Y236687D01*
Y239370D01*
D02*
G37*
G36*
X7407D02*
X4724D01*
Y236687D01*
X4862Y236705D01*
X5724Y237062D01*
X6464Y237630D01*
X7032Y238371D01*
X7389Y239232D01*
X7407Y239370D01*
D02*
G37*
G36*
X4724Y243628D02*
Y240945D01*
X7407D01*
X7389Y241083D01*
X7032Y241944D01*
X6464Y242685D01*
X5724Y243253D01*
X4862Y243610D01*
X4724Y243628D01*
D02*
G37*
G36*
X3150D02*
X3012Y243610D01*
X2150Y243253D01*
X1410Y242685D01*
X842Y241944D01*
X485Y241083D01*
X467Y240945D01*
X3150D01*
Y243628D01*
D02*
G37*
G36*
X4764Y58289D02*
X2874D01*
X2459Y58206D01*
X2108Y57971D01*
X1873Y57620D01*
X1790Y57205D01*
Y56890D01*
X4764D01*
Y58289D01*
D02*
G37*
G36*
X1362Y62106D02*
X-394D01*
X-2149D01*
X-2097Y61842D01*
X-1836Y61452D01*
X-1445Y61191D01*
X-1297Y61161D01*
Y60630D01*
X-1228Y60284D01*
X-1032Y59991D01*
X149Y58810D01*
X442Y58614D01*
X787Y58546D01*
X1133Y58614D01*
X1426Y58810D01*
X1622Y59103D01*
X1691Y59449D01*
X1622Y59794D01*
X1426Y60088D01*
X790Y60724D01*
X777Y60771D01*
X881Y61340D01*
X1048Y61452D01*
X1309Y61842D01*
X1362Y62106D01*
D02*
G37*
G36*
X4764Y55315D02*
X1790D01*
Y55000D01*
X1873Y54585D01*
X2108Y54234D01*
X2459Y53999D01*
X2874Y53916D01*
X4764D01*
Y55315D01*
D02*
G37*
G36*
X8228Y58289D02*
X6339D01*
Y56102D01*
Y53916D01*
X8228D01*
X8624Y53995D01*
X11614D01*
X12421Y54155D01*
X13104Y54612D01*
X13561Y55296D01*
X13722Y56102D01*
X13561Y56909D01*
X13104Y57592D01*
X12421Y58049D01*
X11614Y58210D01*
X8624D01*
X8228Y58289D01*
D02*
G37*
G36*
X-1181Y64649D02*
X-1445Y64597D01*
X-1836Y64336D01*
X-2097Y63945D01*
X-2149Y63681D01*
X-1181D01*
Y64649D01*
D02*
G37*
G36*
X-75512Y119256D02*
X-76427Y119075D01*
X-77202Y118556D01*
X-77720Y117781D01*
X-77902Y116866D01*
X-77720Y115951D01*
X-77202Y115176D01*
X-76427Y114658D01*
X-75512Y114476D01*
X-74597Y114658D01*
X-73822Y115176D01*
X-73303Y115951D01*
X-73121Y116866D01*
X-73303Y117781D01*
X-73822Y118556D01*
X-74597Y119075D01*
X-75512Y119256D01*
D02*
G37*
G36*
X-71299Y122579D02*
X-72536D01*
X-72531Y122554D01*
X-72071Y121866D01*
X-71383Y121406D01*
X-71299Y121390D01*
Y122579D01*
D02*
G37*
G36*
X394Y64649D02*
Y63681D01*
X1362D01*
X1309Y63945D01*
X1048Y64336D01*
X658Y64597D01*
X394Y64649D01*
D02*
G37*
G36*
X-94488Y99114D02*
X-95456D01*
X-95404Y98850D01*
X-95143Y98460D01*
X-94752Y98198D01*
X-94488Y98146D01*
Y99114D01*
D02*
G37*
%LPD*%
D10*
X-35827Y29331D02*
D03*
Y21063D02*
D03*
D11*
X-38976Y-5413D02*
D03*
Y4626D02*
D03*
D12*
X-25098Y28740D02*
D03*
X-15059D02*
D03*
X-123721Y42126D02*
D03*
X-133760D02*
D03*
D13*
X-51182Y10827D02*
D03*
X-54921Y2559D02*
D03*
X-47441D02*
D03*
D14*
X-52658Y-6299D02*
D03*
X-56791D02*
D03*
X-31791Y99213D02*
D03*
X-35925D02*
D03*
X-64272Y-6299D02*
D03*
X-60138D02*
D03*
X-64272Y-1969D02*
D03*
X-60138D02*
D03*
X-14665Y88976D02*
D03*
X-10531D02*
D03*
X-5020Y124016D02*
D03*
X-9154D02*
D03*
X-5020Y119291D02*
D03*
X-9154D02*
D03*
X-22933Y118504D02*
D03*
X-18799D02*
D03*
X-22933Y124016D02*
D03*
X-18799D02*
D03*
X-22933Y129528D02*
D03*
X-18799D02*
D03*
X-77658Y43307D02*
D03*
X-73524D02*
D03*
X-129823Y48425D02*
D03*
X-133957D02*
D03*
X-85532Y37008D02*
D03*
X-81398D02*
D03*
X-68405Y16142D02*
D03*
X-72539D02*
D03*
Y12598D02*
D03*
X-68405D02*
D03*
X-72539Y19685D02*
D03*
X-68405D02*
D03*
X-113484Y117717D02*
D03*
X-109350D02*
D03*
X-94193Y125984D02*
D03*
X-90059D02*
D03*
X-72736Y103150D02*
D03*
X-76870D02*
D03*
Y107087D02*
D03*
X-72736D02*
D03*
X-76870Y110630D02*
D03*
X-72736D02*
D03*
D15*
X-50394Y16437D02*
D03*
Y20571D02*
D03*
X-61811Y105610D02*
D03*
Y101476D02*
D03*
X-58268Y105610D02*
D03*
Y101476D02*
D03*
Y16437D02*
D03*
Y20571D02*
D03*
X-54331Y16437D02*
D03*
Y20571D02*
D03*
X-46457Y16437D02*
D03*
Y20571D02*
D03*
X-23228Y56988D02*
D03*
Y61122D02*
D03*
X-19882Y52953D02*
D03*
Y57087D02*
D03*
X-10630Y104429D02*
D03*
Y100295D02*
D03*
X-14567D02*
D03*
Y104429D02*
D03*
X-10630Y114272D02*
D03*
Y110138D02*
D03*
X-14567D02*
D03*
Y114272D02*
D03*
X-394Y67028D02*
D03*
Y62894D02*
D03*
X-12992Y261122D02*
D03*
Y256988D02*
D03*
X-16535Y261122D02*
D03*
Y256988D02*
D03*
X-0Y174311D02*
D03*
Y178445D02*
D03*
X-3543D02*
D03*
Y174311D02*
D03*
X-9449Y256988D02*
D03*
Y261122D02*
D03*
X-7087Y178445D02*
D03*
Y174311D02*
D03*
X3543Y178445D02*
D03*
Y174311D02*
D03*
X-18898D02*
D03*
Y178445D02*
D03*
X-83858Y16831D02*
D03*
Y20965D02*
D03*
Y8957D02*
D03*
Y13091D02*
D03*
X-78347Y16831D02*
D03*
Y20965D02*
D03*
X-93701Y99902D02*
D03*
Y104035D02*
D03*
X-120866Y118012D02*
D03*
Y122146D02*
D03*
X-116929Y118012D02*
D03*
Y122146D02*
D03*
X-124803Y118012D02*
D03*
Y122146D02*
D03*
D16*
X-46850Y-6398D02*
D03*
Y-1476D02*
D03*
X-60630Y9547D02*
D03*
Y4626D02*
D03*
D17*
X-5906Y88779D02*
D03*
Y94685D02*
D03*
Y109252D02*
D03*
Y115157D02*
D03*
Y99410D02*
D03*
Y105315D02*
D03*
X-165748Y30512D02*
D03*
Y36417D02*
D03*
Y42323D02*
D03*
Y48228D02*
D03*
X-171653Y30512D02*
D03*
Y36417D02*
D03*
X-171260Y42323D02*
D03*
Y48228D02*
D03*
D18*
X-155817Y30167D02*
D03*
X-160716D02*
D03*
X-158268Y38337D02*
D03*
X-155817Y41978D02*
D03*
X-160716D02*
D03*
X-158268Y50148D02*
D03*
D19*
X-34055Y116142D02*
D03*
X-41535D02*
D03*
X-37796Y124016D02*
D03*
D20*
X-28878Y177164D02*
D03*
X-23090Y174606D02*
D03*
Y179724D02*
D03*
D21*
X-43307Y57284D02*
D03*
Y63189D02*
D03*
X-574803D02*
D03*
Y57284D02*
D03*
X-43307Y136024D02*
D03*
Y141929D02*
D03*
X-574803D02*
D03*
Y136024D02*
D03*
X-43307Y214764D02*
D03*
Y220669D02*
D03*
X-574803D02*
D03*
Y214764D02*
D03*
D22*
X-43307Y85433D02*
D03*
X-574803D02*
D03*
X-43307Y164173D02*
D03*
X-574803D02*
D03*
X-43307Y242913D02*
D03*
X-574803D02*
D03*
D23*
X5551Y56102D02*
D03*
Y34449D02*
D03*
D24*
Y39291D02*
D03*
Y51260D02*
D03*
D25*
Y43307D02*
D03*
Y47244D02*
D03*
D26*
X-150787Y46457D02*
D03*
X-151723Y38337D02*
D03*
X-176772Y43307D02*
D03*
X-177165Y31496D02*
D03*
X-12992Y175197D02*
D03*
X9055D02*
D03*
X-9449Y266142D02*
D03*
X-9055Y250394D02*
D03*
X9055Y180709D02*
D03*
X-12992D02*
D03*
X-47244Y29528D02*
D03*
X-49213Y35433D02*
D03*
X-9055Y29134D02*
D03*
X-33858Y106693D02*
D03*
X-66535Y100787D02*
D03*
X-66142Y105905D02*
D03*
X-69291Y-6299D02*
D03*
X-55512Y35433D02*
D03*
X-55905Y-1969D02*
D03*
X-17717Y49213D02*
D03*
X-53543Y29528D02*
D03*
X-59842D02*
D03*
X-61024Y35433D02*
D03*
X-23228Y48819D02*
D03*
X-9449Y55905D02*
D03*
X6693Y66929D02*
D03*
X-1969Y55905D02*
D03*
X-25591Y75590D02*
D03*
X-19685Y100000D02*
D03*
X-12598Y94488D02*
D03*
X-24803Y44094D02*
D03*
X-19685Y111024D02*
D03*
Y105512D02*
D03*
X-22047Y80315D02*
D03*
X-19685Y88976D02*
D03*
Y94488D02*
D03*
X-14173Y118504D02*
D03*
X-27559D02*
D03*
X-14173Y124016D02*
D03*
X-27559D02*
D03*
X-11417Y128740D02*
D03*
X-31496Y128347D02*
D03*
X-114961Y109843D02*
D03*
Y103937D02*
D03*
Y98819D02*
D03*
X-107874D02*
D03*
X-98032Y125984D02*
D03*
X-104331D02*
D03*
X-109843D02*
D03*
X-77953Y48031D02*
D03*
X-79921Y4724D02*
D03*
X-83858Y394D02*
D03*
X-72047Y7480D02*
D03*
X-124409Y48425D02*
D03*
X-77165Y36220D02*
D03*
X-76378Y13386D02*
D03*
X-75197Y24803D02*
D03*
X-11811Y11811D02*
D03*
X-606299Y291339D02*
D03*
Y11811D02*
D03*
D27*
X-24409Y21555D02*
D03*
Y13878D02*
D03*
X-40945Y107382D02*
D03*
Y99705D02*
D03*
D28*
X-40453Y13780D02*
D03*
X-32776D02*
D03*
X-90059Y42520D02*
D03*
X-82382D02*
D03*
D29*
X-60512Y123366D02*
D03*
Y118366D02*
D03*
X-65512Y123366D02*
D03*
Y118366D02*
D03*
X-70512Y123366D02*
D03*
Y118366D02*
D03*
D30*
X-22942Y67875D02*
D03*
X-21551Y66484D02*
D03*
X-20159Y65092D02*
D03*
X-18767Y63700D02*
D03*
X-17375Y62308D02*
D03*
X-15983Y60916D02*
D03*
X-5404Y71495D02*
D03*
X-6796Y72887D02*
D03*
X-8188Y74278D02*
D03*
X-9580Y75670D02*
D03*
X-10972Y77062D02*
D03*
X-12364Y78454D02*
D03*
D31*
X-15983D02*
D03*
X-17375Y77062D02*
D03*
X-18767Y75670D02*
D03*
X-20159Y74278D02*
D03*
X-21551Y72887D02*
D03*
X-22942Y71495D02*
D03*
X-5404Y67875D02*
D03*
X-6796Y66484D02*
D03*
X-8188Y65092D02*
D03*
X-9580Y63700D02*
D03*
X-10972Y62308D02*
D03*
X-12364Y60916D02*
D03*
D32*
X-14173Y69685D02*
D03*
D33*
X-5906Y50787D02*
D03*
X-9646D02*
D03*
X-2165D02*
D03*
Y41339D02*
D03*
X-5906D02*
D03*
X-9646D02*
D03*
D34*
X-79724Y31260D02*
D03*
X-81693D02*
D03*
X-83661D02*
D03*
X-85630D02*
D03*
Y25433D02*
D03*
X-83661D02*
D03*
X-81693D02*
D03*
X-79724D02*
D03*
D35*
X-92323Y12992D02*
D03*
X-131299D02*
D03*
D36*
X-101716Y119095D02*
D03*
X-107284Y113527D02*
D03*
X-99071Y105315D02*
D03*
X-93504Y110882D02*
D03*
D37*
X-102621Y107194D02*
D03*
X-105405Y109978D02*
D03*
X-95383Y114432D02*
D03*
X-98167Y117216D02*
D03*
X-96775Y115824D02*
D03*
X-104013Y108586D02*
D03*
D38*
X-98167Y107194D02*
D03*
X-95383Y109978D02*
D03*
X-105405Y114432D02*
D03*
X-102621Y117216D02*
D03*
X-96775Y108586D02*
D03*
X-104013Y115824D02*
D03*
D39*
X-99071Y119095D02*
D03*
X-107284Y110882D02*
D03*
X-101716Y105315D02*
D03*
X-93504Y113527D02*
D03*
D40*
X-50236Y300590D02*
D03*
Y286024D02*
D03*
X-55236Y300590D02*
D03*
Y286024D02*
D03*
X-60236Y300590D02*
D03*
Y286024D02*
D03*
X-65236Y300590D02*
D03*
Y286024D02*
D03*
X-70236Y300590D02*
D03*
Y286024D02*
D03*
D41*
X-54035Y100945D02*
D03*
Y103543D02*
D03*
Y106142D02*
D03*
X-46752D02*
D03*
Y103543D02*
D03*
Y100945D02*
D03*
D42*
X-50394Y103543D02*
D03*
D43*
X-155905Y30256D02*
Y34252D01*
X-158268Y38337D02*
X-151723D01*
X-158268Y50148D02*
X-154872D01*
X-129823Y48425D02*
X-124409D01*
X-118110D01*
X5551Y51260D02*
X10945D01*
X12205Y50000D01*
Y40157D02*
Y50000D01*
X11339Y39291D02*
X12205Y40157D01*
X5551Y39291D02*
X11339D01*
X-15059Y28740D02*
X-14665Y29134D01*
X-9055D01*
X-7480D01*
X2677Y39291D01*
X5551D01*
X-25098Y22244D02*
Y28740D01*
X-35236D02*
X-25098D01*
X-35827Y21063D02*
X-32776Y18012D01*
Y13780D02*
Y18012D01*
Y10827D02*
Y13780D01*
X-38976Y4626D02*
X-32776Y10827D01*
X-52462Y9547D02*
X-51182Y10827D01*
X-73524Y43307D02*
X-71653Y41437D01*
Y29528D02*
Y41437D01*
X-63779Y12697D02*
X-60630Y9547D01*
X-63779Y12697D02*
Y21654D01*
X-71653Y29528D02*
X-63779Y21654D01*
X-60630Y9547D02*
X-58268D01*
X-52462D01*
X-133957Y42323D02*
Y48425D01*
X-171260Y42323D02*
X-165748D01*
X-171653Y36417D02*
X-165748D01*
X-171653Y30512D02*
X-165748D01*
X-161061Y42323D02*
X-160716Y41978D01*
X-165748Y42323D02*
X-161061D01*
X-161061Y30512D02*
X-160716Y30167D01*
X-165748Y30512D02*
X-161061D01*
X-155905Y30256D02*
X-155817Y30167D01*
Y41978D02*
Y45187D01*
X5551Y56102D02*
X11614D01*
X5551Y34449D02*
X11614D01*
X-171260Y48228D02*
X-168898D01*
X-165748D01*
D44*
X-42913Y9055D02*
Y9449D01*
X-40453Y11909D01*
X-64272Y105610D02*
X-61811D01*
X-65354Y106693D02*
X-64272Y105610D01*
X-70472Y185039D02*
X-44882D01*
X-31743Y99164D02*
X-27559D01*
X-31791Y99213D02*
X-31743Y99164D01*
X-155118Y61417D02*
X-129528Y87008D01*
X-170079Y61417D02*
X-155118D01*
X-180315Y51181D02*
X-170079Y61417D01*
X16142Y98819D02*
X22441D01*
X7480D02*
X16142D01*
X8661Y107087D02*
Y151969D01*
X12992Y-11417D02*
X26378Y1969D01*
X-50000Y-11417D02*
X12992D01*
X-52658Y-8760D02*
X-50000Y-11417D01*
X26378Y1969D02*
Y94882D01*
X-50236Y295512D02*
X-46850Y292126D01*
Y275591D02*
Y292126D01*
Y275591D02*
X-20079Y248819D01*
X-61024Y278740D02*
X-29134Y246850D01*
X-68110Y278740D02*
X-61024D01*
X-70236Y280866D02*
X-68110Y278740D01*
X-70236Y280866D02*
Y286024D01*
X-55236Y276890D02*
Y286024D01*
X-50236Y275433D02*
Y286024D01*
X-20079Y201181D02*
Y248819D01*
X-22835Y202756D02*
Y248031D01*
X-50236Y275433D02*
X-22835Y248031D01*
X-26378Y203543D02*
Y248031D01*
X-55236Y276890D02*
X-26378Y248031D01*
X-29134Y207087D02*
Y246850D01*
X-44882Y185039D02*
X-26378Y203543D01*
X-65512Y187638D02*
X-65354Y187795D01*
X-43701Y181890D02*
X-22835Y202756D01*
X-60630Y181890D02*
X-43701D01*
X-65354Y187795D02*
X-48425D01*
X-29134Y207087D01*
X-56299Y179134D02*
X-42126D01*
X-20079Y201181D01*
X-50236Y295512D02*
Y300590D01*
X-9055Y202756D02*
Y250394D01*
X-32677Y179134D02*
X-9055Y202756D01*
X-32677Y171260D02*
Y179134D01*
X9055Y254331D02*
X16142Y247244D01*
X-15748Y254331D02*
X9055D01*
X-16535Y255118D02*
X-15748Y254331D01*
X12598Y183858D02*
X16142Y187402D01*
Y247244D01*
X-16535Y255118D02*
Y256988D01*
X-9449Y261122D02*
Y266142D01*
X-9055Y250394D02*
X3543D01*
X3937Y151575D02*
X12598Y160236D01*
X8661Y151969D02*
X16142Y159449D01*
X-7087Y182677D02*
X-5906Y183858D01*
X12598D01*
X16142Y180315D01*
Y159449D02*
Y180315D01*
X22441Y98819D02*
X26378Y94882D01*
X21220Y28268D02*
Y62283D01*
X6260Y28268D02*
X21220D01*
X6260Y62283D02*
X21220D01*
X12598Y160236D02*
Y177953D01*
X9843Y180709D02*
X12598Y177953D01*
X9055Y180709D02*
X9843D01*
X-20669Y161417D02*
X-18898Y163189D01*
Y174311D01*
X-7087Y178445D02*
Y182677D01*
X-19252Y178445D02*
X-16988Y180709D01*
X-12992D01*
X-23090Y174606D02*
X-19252Y178445D01*
X-18898D01*
X-13878Y174311D02*
X-12992Y175197D01*
X-18898Y174311D02*
X-13878D01*
X-12992Y175197D02*
X-12106Y174311D01*
X-7087D01*
X-3543Y174311D02*
X-0D01*
X0Y178445D02*
X3543D01*
X4429Y175197D02*
X9055D01*
X3543Y174311D02*
X4429Y175197D01*
X3543Y161811D02*
Y174311D01*
Y161811D02*
X3937Y161417D01*
X-40453Y11909D02*
Y13780D01*
X-52658Y-8760D02*
Y-6299D01*
X-56791Y-2854D02*
X-55905Y-1969D01*
X-56791Y-6299D02*
Y-2854D01*
X-60138Y-6299D02*
X-56791D01*
X-60138Y-1969D02*
Y492D01*
X-57874Y2756D01*
Y9154D01*
X-64272Y-6299D02*
Y-1969D01*
X-69291Y-6299D02*
X-64272D01*
X-54921Y2559D02*
X-53347D01*
X-53937Y13780D02*
X-49213D01*
X-54331Y14173D02*
X-53937Y13780D01*
X-54331Y14173D02*
Y16437D01*
X-58268Y9547D02*
Y16437D01*
X-53347Y2559D02*
X-48031Y7874D01*
Y12598D01*
X-49213Y13780D02*
X-48031Y12598D01*
X-47441Y2559D02*
X-45669Y4331D01*
Y15650D01*
X-46457Y16437D02*
X-45669Y15650D01*
X-81693Y31260D02*
Y32874D01*
X-78347Y36220D01*
X-83661Y31260D02*
Y34055D01*
X-81791Y35925D01*
X-85925Y36614D02*
X-85630Y36319D01*
Y31260D02*
Y36319D01*
X-79724Y25433D02*
X-75827D01*
X-75197Y24803D01*
Y23622D02*
Y24803D01*
Y23622D02*
X-72539Y20965D01*
Y12598D02*
Y19685D01*
Y20965D01*
X-68405Y12598D02*
Y16142D01*
Y11122D02*
Y12598D01*
X-72047Y7480D02*
X-68405Y11122D01*
X-83661Y21555D02*
Y25433D01*
X-83858Y13091D02*
Y16831D01*
X-85630Y24606D02*
Y25433D01*
X-92323Y17913D02*
X-85630Y24606D01*
X-92323Y12992D02*
Y17913D01*
X-79232Y20965D02*
X-78347D01*
X-81693Y23425D02*
X-79232Y20965D01*
X-81693Y23425D02*
Y25433D01*
X-79528Y11417D02*
X-76772Y8661D01*
X-79528Y11417D02*
Y15650D01*
X-78347Y16831D01*
X-83858Y20965D02*
X-81496Y18602D01*
Y6299D02*
Y18602D01*
Y6299D02*
X-79921Y4724D01*
X-88287Y8957D02*
X-83858D01*
X-92323Y12992D02*
X-88287Y8957D01*
X-83858Y394D02*
Y8957D01*
X-78347Y20866D02*
Y20965D01*
Y20866D02*
X-75984Y18504D01*
Y13780D02*
Y18504D01*
X-76378Y13386D02*
X-75984Y13780D01*
X-176772Y43307D02*
X-172244D01*
X-171260Y42323D01*
X-177165Y31496D02*
X-172638D01*
X-171653Y30512D01*
X-2165Y55709D02*
X-1969Y55905D01*
X-2165Y50787D02*
Y55709D01*
X-9646Y50787D02*
Y55709D01*
X-42185Y100945D02*
X-40945Y99705D01*
X-46752Y100945D02*
X-42185D01*
X-46752Y106142D02*
X-42185D01*
X-41339Y106988D01*
Y111811D01*
X-35925Y104626D02*
X-33858Y106693D01*
X-35925Y99213D02*
Y104626D01*
X-46752Y103543D02*
Y106142D01*
X-54035Y103543D02*
Y106142D01*
Y103543D02*
X-50394D01*
X-46752D01*
X-55276Y106142D02*
X-54035D01*
X-55807Y105610D02*
X-55276Y106142D01*
X-58268Y105610D02*
X-55807D01*
X-58268D02*
Y109055D01*
X-55669Y100945D02*
X-54035D01*
X-56201Y101476D02*
X-55669Y100945D01*
X-58268Y101476D02*
X-56201D01*
X-61811D02*
X-58268D01*
X-65847D02*
X-61811D01*
X-66535Y100787D02*
X-65847Y101476D01*
X-168898Y53150D02*
X-164567Y57480D01*
X-152756D01*
X-125984Y84252D01*
Y98425D01*
X-120472Y103937D01*
X-168898Y48228D02*
Y53150D01*
X-177362Y36417D02*
X-171653D01*
X-180315Y39370D02*
X-177362Y36417D01*
X-180315Y39370D02*
Y51181D01*
X-129528Y87008D02*
Y101575D01*
X-121260Y109843D01*
X-120472Y103937D02*
X-114961D01*
X-121260Y109843D02*
X-111417D01*
X-116634Y117717D02*
X-113484D01*
X-126279Y118012D02*
X-124803D01*
X-127559Y119291D02*
X-126279Y118012D01*
X-127559Y119291D02*
Y128740D01*
X-124409Y131890D01*
X-68898D01*
X-65512Y128504D01*
Y123366D02*
Y128504D01*
X-90059Y125984D02*
X-86614D01*
X-116929Y114567D02*
Y118012D01*
X-102362Y153937D02*
X-34646D01*
X-30315Y158268D01*
Y168898D01*
X-32677Y171260D02*
X-30315Y168898D01*
X-66535Y106693D02*
X-65354D01*
X-55236Y300590D02*
X-55118Y300709D01*
Y309449D01*
X-60236Y300590D02*
Y309449D01*
X-70236Y300590D02*
X-70079Y300748D01*
Y309055D01*
X-81398Y37008D02*
Y40748D01*
X-82382Y41732D02*
X-81398Y40748D01*
D45*
X-69685Y107087D02*
X-62205Y114567D01*
X-69685Y104724D02*
Y107087D01*
X-71260Y103150D02*
X-69685Y104724D01*
X-77953Y-5906D02*
X-72047Y0D01*
X-127165Y-5906D02*
X-77953D01*
X-131299Y-1772D02*
X-127165Y-5906D01*
X8661Y107087D02*
Y107874D01*
X8661Y107087D02*
X8661Y107087D01*
X-3346Y105315D02*
X-1575Y107087D01*
X-5906Y105315D02*
X-3346D01*
X-3347Y94685D02*
X-1575Y96457D01*
Y107087D01*
X-4134Y116929D02*
X-1575D01*
X-5906Y115157D02*
X-4134Y116929D01*
X-72047Y0D02*
Y7480D01*
X-131299Y-1772D02*
Y12992D01*
X-12992Y256988D02*
X-9449D01*
X-16535Y261122D02*
X-12992D01*
X-9449D02*
X2657D01*
X3937Y259842D01*
X-5906Y94685D02*
X-3347D01*
X-72047Y99606D02*
X-68110Y95669D01*
X-34252D01*
X-23090Y178878D02*
Y179724D01*
X-27165Y174803D02*
X-23090Y178878D01*
X-27165Y154331D02*
Y174803D01*
Y136614D02*
Y149213D01*
X-32283Y131496D02*
X-27165Y136614D01*
X-37008Y131496D02*
X-32283D01*
X-41732Y126772D02*
X-37008Y131496D01*
X-41732Y123228D02*
Y126772D01*
X-40551Y116535D02*
X-37795Y113779D01*
X-41535Y116535D02*
X-40551D01*
X-8268Y183858D02*
X-7087Y182677D01*
X-24409Y183858D02*
X-8268D01*
X-28878Y179390D02*
X-24409Y183858D01*
X-28878Y177164D02*
Y179390D01*
X-7087Y178445D02*
X-3543D01*
X-85039Y93307D02*
X-19685D01*
X-46850Y24409D02*
X-39173D01*
X-35827Y21063D01*
X-50394Y27953D02*
X-46850Y24409D01*
X-50394Y27953D02*
Y33071D01*
X-49213Y34252D01*
Y35433D01*
X-47244Y29528D02*
X-36024D01*
X-53543Y28740D02*
Y29528D01*
Y28740D02*
X-46457Y21654D01*
X-56693Y26870D02*
X-50394Y20571D01*
X-56693Y26870D02*
Y33071D01*
X-55512Y34252D01*
X-59842Y25984D02*
Y29528D01*
Y25984D02*
X-54429Y20571D01*
X-62992Y32283D02*
X-61024Y34252D01*
X-62992Y25295D02*
Y32283D01*
Y25295D02*
X-58268Y20571D01*
X-23228Y53543D02*
Y56988D01*
Y53543D02*
X-22835Y53150D01*
X-72736Y103150D02*
X-71260D01*
X-72736Y107087D02*
X-62825Y116998D01*
X-61880D01*
X-60512Y118366D01*
X-72736Y111142D02*
X-65512Y118366D01*
X-72736Y110630D02*
Y111142D01*
X-108661Y103937D02*
X-104013Y108586D01*
X-114961Y103937D02*
X-108661D01*
X-108324Y109843D02*
X-107284Y110882D01*
X-111417Y109843D02*
X-108324D01*
X-107846Y101969D02*
X-102621Y107194D01*
X-111811Y101969D02*
X-107846D01*
X-114961Y98819D02*
X-111811Y101969D01*
X-107874Y99157D02*
X-101716Y105315D01*
X-108689Y117717D02*
X-105405Y114432D01*
X-109350Y117717D02*
X-108689D01*
X-116929Y122146D02*
X-110335D01*
X-104013Y115824D01*
X-120866Y122146D02*
X-116929D01*
X-124803D02*
X-120866D01*
X-109843Y124437D02*
X-102621Y117216D01*
X-109843Y124437D02*
Y125984D01*
X-104331Y121710D02*
X-101716Y119095D01*
X-104331Y121710D02*
Y125984D01*
X-99071Y119095D02*
X-94193Y123973D01*
Y125984D01*
X-98032D02*
X-94193D01*
X-95383Y114432D02*
X-94067Y115748D01*
X-93504Y113527D02*
X-87063Y107087D01*
X-76870D01*
X-94067Y115748D02*
X-92520D01*
X-87402Y110630D01*
X-76870D01*
X-98167Y107194D02*
X-96457Y105484D01*
Y102756D02*
Y105484D01*
X-97244Y101969D02*
X-96457Y102756D01*
X-97244Y101969D02*
X-95768D01*
X-93701Y99902D01*
X-120866Y118012D02*
X-118799Y120079D01*
X-111713D01*
X-109350Y117717D01*
X-105118Y151575D02*
X3937D01*
X-108324Y114567D02*
X-107284Y113527D01*
X-112598Y113779D02*
X-111811Y114567D01*
X-108324D01*
X-105405Y114432D02*
X-102784Y111811D01*
X-100000D01*
X-96775Y108586D01*
X-72047Y99606D02*
X-65354Y106299D01*
X-76870Y99902D02*
Y103150D01*
X-93504Y110882D02*
X-85039Y102418D01*
X-107902Y107480D02*
X-105405Y109978D01*
X-109055Y107480D02*
X-107902D01*
X-30709Y120866D02*
X-27559Y124016D01*
X-44094Y119291D02*
X-28346D01*
X-96775Y108586D02*
X-93701Y105512D01*
Y104035D02*
Y105512D01*
Y104035D02*
X-89272Y99606D01*
X-72047D01*
X-89370Y103543D02*
Y103965D01*
X-95383Y109978D02*
X-89370Y103965D01*
X-60512Y123366D02*
X-59862Y124016D01*
X-53937D02*
X-52362Y122441D01*
Y119291D02*
Y122441D01*
X-61811Y109449D02*
X-59449Y111811D01*
X-46850Y120866D02*
X-30709D01*
X-45669Y117717D02*
X-44094Y119291D01*
X-59449Y111811D02*
X-56152D01*
X-54183Y109843D01*
X-48228D01*
X-41535Y116535D01*
X-51181D02*
X-46850Y120866D01*
X-51181Y112598D02*
Y116535D01*
X-62205Y114567D02*
X-57087D01*
X-52362Y119291D01*
X-65512Y118366D02*
X-65098D01*
X-66004D02*
X-65512D01*
X-62992Y120846D02*
X-60512Y118366D01*
X-62992Y120846D02*
Y126378D01*
X-59862Y124016D02*
X-56299D01*
X-53937D01*
X-62992Y126378D02*
X-60630Y128740D01*
Y129528D01*
X-56299Y124016D02*
X-55118Y125197D01*
Y129528D01*
X-37796Y124409D02*
X-33859Y128347D01*
X-31496D01*
X-30315Y129528D01*
X-22933D01*
D46*
X-28346Y70473D02*
X-25984Y72835D01*
X-28346Y42913D02*
Y70473D01*
X-29528Y41732D02*
X-28346Y42913D01*
X-29528Y75984D02*
X-26772Y78740D01*
X-29528Y45276D02*
Y75984D01*
X-31496Y43307D02*
X-29528Y45276D01*
X-33858Y78740D02*
X-23622Y88976D01*
X-33858Y67716D02*
Y78740D01*
X-5301Y77165D02*
X-2362D01*
X-8188Y74278D02*
X-5301Y77165D01*
X1969Y77559D02*
Y116929D01*
X-1181Y74410D02*
X1969Y77559D01*
X-5273Y74410D02*
X-1181D01*
X-6796Y72887D02*
X-5273Y74410D01*
X-394Y72835D02*
X3543Y76772D01*
X-4064Y72835D02*
X-394D01*
X-5404Y71495D02*
X-4064Y72835D01*
X-9580Y75670D02*
X-3754Y81496D01*
X-2756D01*
X-23622Y88976D02*
X-19685D01*
X-30709Y47244D02*
Y78740D01*
X-33071Y44882D02*
X-30709Y47244D01*
X-24016Y95669D02*
Y98819D01*
X-2756Y112205D02*
X787Y108661D01*
Y88822D02*
Y108661D01*
X-10972Y77062D02*
X787Y88822D01*
X394Y129528D02*
X5118Y124803D01*
Y72047D02*
Y124803D01*
X98Y67028D02*
X5118Y72047D01*
X-2756Y127165D02*
X3543Y120866D01*
Y76772D02*
Y120866D01*
X-23228Y38976D02*
X-13780Y48425D01*
X-19882Y59801D02*
X-17375Y62308D01*
X-23228Y62022D02*
X-20159Y65092D01*
X-23228Y61122D02*
Y62022D01*
X-12364Y60916D02*
X-9449Y58001D01*
Y55905D02*
Y58001D01*
X-8188Y65092D02*
X-1969Y58872D01*
Y55905D02*
Y58872D01*
X-14173Y129528D02*
X394D01*
X-50787Y38976D02*
X-23228D01*
X-53543Y41732D02*
X-29528D01*
X-18504Y78192D02*
X-17375Y77062D01*
X-18504Y78192D02*
Y82284D01*
X-24283Y72835D02*
X-22942Y71495D01*
X-25984Y72835D02*
X-24283D01*
X-26378Y61656D02*
X-21551Y66484D01*
X-24283Y66535D02*
X-22942Y67875D01*
X-25984Y66535D02*
X-24283D01*
X-21260Y85039D02*
X-18504Y82284D01*
X-21260Y85039D02*
X-21260D01*
X-22835Y100000D02*
X-19685D01*
X-24016Y98819D02*
X-22835Y100000D01*
X-55512Y34252D02*
Y35433D01*
X-61024Y34252D02*
Y35433D01*
X-52362Y37402D02*
X-50787Y38976D01*
X-52362Y30709D02*
Y37402D01*
X-55512Y39764D02*
X-53543Y41732D01*
X-55512Y35433D02*
Y39764D01*
X-61024Y35433D02*
Y41339D01*
X-57480Y44882D01*
X-33071D01*
X-59842Y29528D02*
Y31496D01*
X-58268Y33071D01*
Y40157D01*
X-55118Y43307D01*
X-31496D01*
X-26772Y78740D02*
X-24620D01*
X-20290Y74410D01*
X-25591Y75590D02*
X-24255D01*
X-21551Y72887D01*
X-22047Y78951D02*
Y80315D01*
Y78951D02*
X-18767Y75670D01*
X-12364Y60916D02*
X-10972Y62308D01*
X-8188Y65092D02*
Y65092D01*
X-6796Y66484D01*
X-25197Y59153D02*
X-23228Y61122D01*
X-25197Y50787D02*
Y59153D01*
Y50787D02*
X-23228Y48819D01*
X-17323Y59576D02*
X-15983Y60916D01*
X-17323Y58661D02*
Y59576D01*
Y58661D02*
X-13780Y55118D01*
Y48425D02*
Y55118D01*
X-19882Y57677D02*
Y59801D01*
Y57677D02*
X-17717Y55512D01*
Y50787D02*
Y55512D01*
X-22638Y52953D02*
X-19882D01*
X-23228Y56988D02*
X-21260Y58957D01*
Y61207D01*
X-18767Y63700D01*
X-14173Y68293D01*
X-9580Y63700D01*
X-7480Y61600D01*
Y60630D02*
Y61600D01*
X-15983Y78454D02*
Y79293D01*
X-14173Y81102D01*
X-12364Y79293D01*
Y78454D02*
Y79293D01*
X-5404Y67875D02*
X-4458Y66929D01*
X-492D01*
X-394Y67028D01*
X98D01*
X6693Y62717D02*
Y66929D01*
X6260Y62283D02*
X6693Y62717D01*
X-394Y60630D02*
Y62894D01*
Y60630D02*
X787Y59449D01*
X-15983Y78454D02*
X-14173Y76645D01*
X-12364Y78454D01*
X-12894Y91339D02*
X-10531Y88976D01*
X-17323Y91339D02*
X-12894D01*
X-19685Y93701D02*
X-17323Y91339D01*
X-19685Y93307D02*
Y93701D01*
X-10335Y88779D02*
X-5906D01*
X-12598Y94488D02*
X-10630Y96457D01*
Y100295D01*
X-6791D02*
X-5906Y99410D01*
X-10630Y100295D02*
X-6791D01*
X-19685Y88976D02*
X-14665D01*
X-19685Y100000D02*
X-19390Y100295D01*
X-14567D01*
Y104429D02*
X-10630D01*
X-6791Y110138D02*
X-5906Y109252D01*
X-10630Y110138D02*
X-6791D01*
X-18799D02*
X-14567D01*
X-19685Y111024D02*
X-18799Y110138D01*
X-19685Y105512D02*
X-18110Y107087D01*
X-11811D01*
X-10630Y108268D01*
Y110138D01*
X-14567D02*
X-12500Y112205D01*
X-2756D01*
X-5906Y115157D02*
X-5020Y116043D01*
Y118504D01*
X-14567Y114272D02*
X-10630D01*
X-27559Y124016D02*
X-22933D01*
X-18799Y118504D02*
X-14173D01*
X-27559D02*
X-22933D01*
X-18799Y124016D02*
X-14173D01*
X-9154D01*
X-6004Y127165D01*
X-2756D01*
X-18799Y129528D02*
X-14173D01*
X-96775Y115824D02*
X-94882Y117717D01*
X-85039D01*
X-98167Y117216D02*
X-95697Y119685D01*
X-82677D01*
X-80315Y117323D01*
Y116535D02*
Y117323D01*
X-83071Y113779D02*
Y114173D01*
X-85039Y117717D02*
X-83071Y115748D01*
Y113779D02*
Y115748D01*
X-28346Y119291D02*
X-27559Y118504D01*
X-70472Y128347D02*
X-68110Y125984D01*
Y120472D02*
Y125984D01*
Y120472D02*
X-66004Y118366D01*
X-26378Y45669D02*
Y61656D01*
Y45669D02*
X-24803Y44094D01*
X-2756Y121653D02*
X1969Y116929D01*
X-7087Y121653D02*
X-2756D01*
X-14173Y118504D02*
X-13386Y119291D01*
X-9449D01*
X-7087Y121653D01*
D47*
X-151427Y38337D02*
X-132480Y57284D01*
X-147096Y50148D02*
X-134055Y63189D01*
X-151723Y38337D02*
X-151427D01*
X-154872Y50148D02*
X-150935D01*
X-147096D01*
X-121850Y136024D02*
X-43307D01*
X-132480Y57284D02*
X-43307D01*
X-131693Y141929D02*
X-43307D01*
X-134055Y63189D02*
X-131693D01*
X-43307D01*
X-131693Y220669D02*
X-43307D01*
X-121850Y214764D02*
X-43307D01*
X-94488Y41732D02*
X-90059D01*
X-133760Y15453D02*
Y42126D01*
Y15453D02*
X-131299Y12992D01*
X-123721Y42126D02*
X-118898D01*
D48*
X-118110Y48425D02*
X-110236D01*
Y85433D02*
X-43307D01*
X-110236Y164173D02*
X-43307D01*
X-110236Y242913D02*
X-43307D01*
D49*
X-39961Y-6398D02*
X-38976Y-5413D01*
X-46850Y-6398D02*
X-39961D01*
X-51181Y-6299D02*
Y0D01*
X-48622Y2559D01*
X-47441D01*
X-52559Y-6398D02*
X-46850D01*
Y-1476D02*
X-43406D01*
X-24409Y10236D02*
Y13878D01*
X-55905Y1575D02*
X-54921Y2559D01*
X-55905Y-1969D02*
Y1575D01*
X-65059Y4626D02*
X-60630D01*
X-50394Y16437D02*
X-46457D01*
X-68405Y19685D02*
Y20374D01*
X-70866Y22835D02*
X-68405Y20374D01*
X-70866Y22835D02*
Y23228D01*
X-80807Y43307D02*
X-77658D01*
X-77953Y43602D02*
X-77658Y43307D01*
X-77953Y43602D02*
Y48031D01*
X-90059Y41732D02*
X-85925Y37598D01*
X-78347Y16831D02*
X-78100Y17077D01*
X1378Y47244D02*
X5551D01*
X-2165Y50787D02*
X1378Y47244D01*
X1181Y43307D02*
X5551D01*
X-1969Y46457D02*
X1181Y43307D01*
X-8661Y46457D02*
X-1969D01*
X-9646Y47441D02*
X-8661Y46457D01*
X-9646Y47441D02*
Y50787D01*
X-40453Y99213D02*
X-35925D01*
D50*
X3937Y240158D02*
D03*
Y250000D02*
D03*
Y259842D02*
D03*
X-20669Y161417D02*
D03*
Y141732D02*
D03*
X3937Y161417D02*
D03*
Y151575D02*
D03*
Y141732D02*
D03*
D51*
X-456693Y299213D02*
D03*
X-161417D02*
D03*
Y3937D02*
D03*
X-456693D02*
D03*
X-618110Y303150D02*
D03*
X0D02*
D03*
Y0D02*
D03*
X-618110D02*
D03*
D52*
X6260Y28268D02*
D03*
Y62283D02*
D03*
X21220Y28268D02*
D03*
Y62283D02*
D03*
D53*
X-155905Y34252D02*
D03*
X-84646Y70866D02*
D03*
X-92520Y78740D02*
D03*
X-74803D02*
D03*
Y70866D02*
D03*
X-102362D02*
D03*
Y78740D02*
D03*
X-116142Y72835D02*
D03*
X-125984D02*
D03*
X-131693Y63189D02*
D03*
X-513779Y57087D02*
D03*
Y66929D02*
D03*
Y78740D02*
D03*
Y88583D02*
D03*
X-537402Y57087D02*
D03*
Y66929D02*
D03*
Y78740D02*
D03*
Y88583D02*
D03*
X-490158Y57087D02*
D03*
Y66929D02*
D03*
Y78740D02*
D03*
Y88583D02*
D03*
X-466535Y57087D02*
D03*
Y66929D02*
D03*
Y78740D02*
D03*
Y88583D02*
D03*
X-442913Y57087D02*
D03*
Y66929D02*
D03*
Y78740D02*
D03*
Y88583D02*
D03*
X-419291Y57087D02*
D03*
Y66929D02*
D03*
Y78740D02*
D03*
Y88583D02*
D03*
X-395669Y57087D02*
D03*
Y66929D02*
D03*
Y78740D02*
D03*
Y88583D02*
D03*
X-372047Y57087D02*
D03*
Y66929D02*
D03*
Y78740D02*
D03*
Y88583D02*
D03*
X-348425Y57087D02*
D03*
Y78740D02*
D03*
Y88583D02*
D03*
X-324803Y57087D02*
D03*
Y88583D02*
D03*
X-301181D02*
D03*
Y57087D02*
D03*
X-277559Y88583D02*
D03*
Y57087D02*
D03*
X-253937Y88583D02*
D03*
Y78740D02*
D03*
Y66929D02*
D03*
Y57087D02*
D03*
X-230315Y88583D02*
D03*
Y78740D02*
D03*
Y66929D02*
D03*
Y57087D02*
D03*
X-206693Y88583D02*
D03*
Y78740D02*
D03*
Y66929D02*
D03*
Y57087D02*
D03*
X-183071Y88583D02*
D03*
Y78740D02*
D03*
Y66929D02*
D03*
Y57087D02*
D03*
X-159449Y88583D02*
D03*
Y78740D02*
D03*
Y66929D02*
D03*
X-137795Y88583D02*
D03*
X-131693Y141929D02*
D03*
X-513779Y135827D02*
D03*
Y145669D02*
D03*
Y157480D02*
D03*
Y167323D02*
D03*
X-537402Y135827D02*
D03*
Y145669D02*
D03*
Y157480D02*
D03*
Y167323D02*
D03*
X-490158Y135827D02*
D03*
Y145669D02*
D03*
Y157480D02*
D03*
Y167323D02*
D03*
X-466535Y135827D02*
D03*
Y145669D02*
D03*
Y157480D02*
D03*
Y167323D02*
D03*
X-442913Y135827D02*
D03*
Y145669D02*
D03*
Y157480D02*
D03*
Y167323D02*
D03*
X-419291Y135827D02*
D03*
Y145669D02*
D03*
Y157480D02*
D03*
Y167323D02*
D03*
X-395669Y135827D02*
D03*
Y145669D02*
D03*
Y157480D02*
D03*
Y167323D02*
D03*
X-372047Y135827D02*
D03*
Y145669D02*
D03*
Y157480D02*
D03*
Y167323D02*
D03*
X-348425Y135827D02*
D03*
Y157480D02*
D03*
Y167323D02*
D03*
X-324803Y135827D02*
D03*
Y167323D02*
D03*
X-301181D02*
D03*
Y135827D02*
D03*
X-277559Y167323D02*
D03*
Y135827D02*
D03*
X-253937Y167323D02*
D03*
Y157480D02*
D03*
Y145669D02*
D03*
Y135827D02*
D03*
X-230315Y167323D02*
D03*
Y157480D02*
D03*
Y145669D02*
D03*
Y135827D02*
D03*
X-206693Y167323D02*
D03*
Y157480D02*
D03*
Y145669D02*
D03*
Y135827D02*
D03*
X-183071Y167323D02*
D03*
Y157480D02*
D03*
Y145669D02*
D03*
Y135827D02*
D03*
X-159449Y167323D02*
D03*
Y157480D02*
D03*
Y145669D02*
D03*
Y135827D02*
D03*
X-135827Y167323D02*
D03*
Y157480D02*
D03*
Y145669D02*
D03*
Y214567D02*
D03*
Y224410D02*
D03*
Y236221D02*
D03*
Y246063D02*
D03*
X-159449Y214567D02*
D03*
Y224410D02*
D03*
Y236221D02*
D03*
Y246063D02*
D03*
X-183071Y214567D02*
D03*
Y224410D02*
D03*
Y236221D02*
D03*
Y246063D02*
D03*
X-206693Y214567D02*
D03*
Y224410D02*
D03*
Y236221D02*
D03*
Y246063D02*
D03*
X-230315Y214567D02*
D03*
Y224410D02*
D03*
Y236221D02*
D03*
Y246063D02*
D03*
X-253937Y214567D02*
D03*
Y224410D02*
D03*
Y236221D02*
D03*
Y246063D02*
D03*
X-277559Y214567D02*
D03*
Y246063D02*
D03*
X-301181Y214567D02*
D03*
Y246063D02*
D03*
X-324803D02*
D03*
Y214567D02*
D03*
X-348425Y246063D02*
D03*
Y236221D02*
D03*
Y214567D02*
D03*
X-372047Y246063D02*
D03*
Y236221D02*
D03*
Y224410D02*
D03*
Y214567D02*
D03*
X-395669Y246063D02*
D03*
Y236221D02*
D03*
Y224410D02*
D03*
Y214567D02*
D03*
X-419291Y246063D02*
D03*
Y236221D02*
D03*
Y224410D02*
D03*
Y214567D02*
D03*
X-442913Y246063D02*
D03*
Y236221D02*
D03*
Y224410D02*
D03*
Y214567D02*
D03*
X-466535Y246063D02*
D03*
Y236221D02*
D03*
Y224410D02*
D03*
Y214567D02*
D03*
X-490158Y246063D02*
D03*
Y236221D02*
D03*
Y224410D02*
D03*
Y214567D02*
D03*
X-537402Y246063D02*
D03*
Y236221D02*
D03*
Y224410D02*
D03*
Y214567D02*
D03*
X-513779Y246063D02*
D03*
Y236221D02*
D03*
Y224410D02*
D03*
Y214567D02*
D03*
X-590551Y236221D02*
D03*
X-59055D02*
D03*
Y226378D02*
D03*
X-78740Y234252D02*
D03*
X-98425D02*
D03*
X-78740Y226378D02*
D03*
X-98425D02*
D03*
X-118110Y246063D02*
D03*
X0Y216535D02*
D03*
Y196850D02*
D03*
X-98425D02*
D03*
X-37402Y157480D02*
D03*
X-35433Y147638D02*
D03*
X-78740Y173228D02*
D03*
X-92520D02*
D03*
X-82677Y157480D02*
D03*
X-92520D02*
D03*
X-82677Y147638D02*
D03*
X-92520D02*
D03*
X-98425Y29528D02*
D03*
Y39370D02*
D03*
X-108268D02*
D03*
Y0D02*
D03*
X-118110D02*
D03*
X-108268Y9843D02*
D03*
X-118110D02*
D03*
X-108268Y19685D02*
D03*
X-118110D02*
D03*
X-108268Y29528D02*
D03*
X-118110D02*
D03*
X5906Y13780D02*
D03*
X-100394Y45276D02*
D03*
X-66929Y47244D02*
D03*
X-41339Y74803D02*
D03*
X19685Y78740D02*
D03*
Y88583D02*
D03*
Y118110D02*
D03*
Y141732D02*
D03*
Y157480D02*
D03*
X-9843D02*
D03*
Y141732D02*
D03*
X-49213Y125984D02*
D03*
X-29528Y112205D02*
D03*
X-76772Y96457D02*
D03*
X-98425D02*
D03*
X-82677Y124016D02*
D03*
X-59055Y196850D02*
D03*
X-70472Y185039D02*
D03*
X-39370Y275590D02*
D03*
Y314961D02*
D03*
X-78740Y275590D02*
D03*
Y314961D02*
D03*
X-118110D02*
D03*
Y275590D02*
D03*
X-196850D02*
D03*
Y314961D02*
D03*
X-236221D02*
D03*
Y275590D02*
D03*
X-275590D02*
D03*
Y314961D02*
D03*
X-314961D02*
D03*
Y275590D02*
D03*
X-354331Y314961D02*
D03*
X-433071D02*
D03*
X-354331Y275590D02*
D03*
X-393701D02*
D03*
Y314961D02*
D03*
X-433071Y275590D02*
D03*
X-472441D02*
D03*
X-511811Y314961D02*
D03*
Y275590D02*
D03*
X-551181D02*
D03*
Y314961D02*
D03*
X-590551D02*
D03*
Y275590D02*
D03*
X-629921D02*
D03*
Y236221D02*
D03*
Y39370D02*
D03*
Y78740D02*
D03*
X-590551D02*
D03*
Y118110D02*
D03*
Y157480D02*
D03*
X-629921Y118110D02*
D03*
Y157480D02*
D03*
Y196850D02*
D03*
X-590551D02*
D03*
X-551181D02*
D03*
X-511811D02*
D03*
X-472441D02*
D03*
X-433071D02*
D03*
X-393701D02*
D03*
X-354331D02*
D03*
X-275590D02*
D03*
X-314961D02*
D03*
X-236221D02*
D03*
X-196850D02*
D03*
X-157480D02*
D03*
Y118110D02*
D03*
X-196850D02*
D03*
X-236221D02*
D03*
X-275590D02*
D03*
X-314961D02*
D03*
X-354331D02*
D03*
X-393701D02*
D03*
X-433071D02*
D03*
X-472441D02*
D03*
X-511811D02*
D03*
X-551181D02*
D03*
X-196850Y0D02*
D03*
Y39370D02*
D03*
X-236221D02*
D03*
Y0D02*
D03*
X-275590D02*
D03*
Y39370D02*
D03*
X-314961D02*
D03*
Y0D02*
D03*
X-354331D02*
D03*
Y39370D02*
D03*
X-393701D02*
D03*
Y0D02*
D03*
X-429134D02*
D03*
X-433071Y39370D02*
D03*
X-472441D02*
D03*
X-511811Y0D02*
D03*
Y39370D02*
D03*
X-551181D02*
D03*
Y0D02*
D03*
X-590551D02*
D03*
Y39370D02*
D03*
X-110236Y48425D02*
D03*
Y85433D02*
D03*
Y164173D02*
D03*
Y242913D02*
D03*
X-121850Y136024D02*
D03*
Y57284D02*
D03*
Y214764D02*
D03*
X-131693Y220669D02*
D03*
X-43406Y-1476D02*
D03*
X-24409Y10236D02*
D03*
X-65059Y4626D02*
D03*
X-70866Y23228D02*
D03*
X-94488Y41732D02*
D03*
X-118898Y42126D02*
D03*
X-155817Y45187D02*
D03*
X11614Y56102D02*
D03*
X11614Y34449D02*
D03*
D54*
X-42913Y9055D02*
D03*
X-33858Y67716D02*
D03*
X-2362Y77165D02*
D03*
X-2756Y81496D02*
D03*
X-30709Y78740D02*
D03*
X-27559Y99164D02*
D03*
X-24016Y95669D02*
D03*
X7480Y98819D02*
D03*
X8661Y107874D02*
D03*
X-1575Y107087D02*
D03*
Y116929D02*
D03*
X-65512Y187638D02*
D03*
X-60630Y181890D02*
D03*
X-56299Y179134D02*
D03*
X-34252Y95669D02*
D03*
X-27165Y154331D02*
D03*
Y149213D02*
D03*
X-41732Y123228D02*
D03*
X-37795Y113386D02*
D03*
X-25984Y66535D02*
D03*
X-21260Y85039D02*
D03*
X-76772Y8661D02*
D03*
X-22835Y53150D02*
D03*
X-7480Y60630D02*
D03*
X-14173Y81102D02*
D03*
X787Y59449D02*
D03*
X-41339Y111811D02*
D03*
X-58268Y109055D02*
D03*
X-86614Y125984D02*
D03*
X-97244Y101969D02*
D03*
X-109055Y107480D02*
D03*
X-105118Y151575D02*
D03*
X-102362Y153937D02*
D03*
X-112598Y113779D02*
D03*
X-116929Y114567D02*
D03*
X-85039Y102418D02*
D03*
Y93307D02*
D03*
X-80315Y116535D02*
D03*
X-83071Y113779D02*
D03*
X-89370Y103543D02*
D03*
X-61811Y109449D02*
D03*
X-45669Y117717D02*
D03*
X-51181Y112598D02*
D03*
X-65512Y128504D02*
D03*
X-70472Y128347D02*
D03*
X-55118Y309449D02*
D03*
X-60236D02*
D03*
X-70079Y309055D02*
D03*
X-60630Y129528D02*
D03*
X-55118D02*
D03*
M02*
