M48
;Layer_Color=6321
;FILE_FORMAT=2:4
INCH,TZ
;TYPE=PLATED
T1F00S00C0.0118
T2F00S00C0.0157
T4F00S00C0.0394
T5F00S00C0.1693
;TYPE=NON_PLATED
T6F00S00C0.0390
%
T01
X-7677Y866
X-4291Y906
X-2283Y5315
X-2598Y6654
X-3386Y6772
X-3071Y7874
X-2126Y8504
X-1417Y8110
X-276Y8150
X-236Y7717
X-748Y6063
X-2402Y9567
X-2756Y9916
X-3425Y9567
X-3780Y11339
X-4134Y11181
X-4567Y11772
X-4173Y12323
X-5512Y12953
X-6063
X-6551Y12850
X-7047Y12835
X-8661Y12598
X-8031Y11654
X-8307Y11378
X-8504Y10242
X-8937Y10354
X-9724Y10197
X-10906Y10748
X-11260Y11378
X-11693Y11457
X-10512Y15157
X-10236Y15394
X-2717Y15433
Y14921
X-157Y11693
Y10709
X-5118Y11260
X-5827Y10906
X-6181Y10945
X-8504Y9331
X748Y9882
X866Y10787
X79Y5945
X-5630Y17913
X-6063Y18189
X-6551Y18764
X-7008Y30906
X-6024Y30945
X-5512
T02
X591Y1378
X-2441Y1024
X-4341Y-148
X-6506Y463
X-10827Y0
X-11811
Y984
X-10827
Y1969
X-11811
X-19685Y0
X-23622
X-27559
X-31496
X-35433
X-39370
X-42913
X-51181
X-55118
X-59055
X-62992Y3937
Y7874
Y11811
Y15748
X-59055
Y11811
Y7874
Y3937
X-55118
X-53740Y5709
Y6693
Y7874
Y8858
X-51378
Y7874
Y6693
Y5709
X-51181Y3937
X-49016Y5709
Y6693
Y7874
Y8858
Y13583
Y14567
Y15748
Y16732
X-51378
Y15748
Y14567
Y13583
X-51181Y11811
X-47244
X-55118
X-53740Y13583
Y14567
Y15748
Y16732
X-47244Y3937
X-46654Y5709
Y6693
Y7874
Y8858
X-44291
Y7874
Y6693
Y5709
X-41929
Y6693
Y7874
Y8858
X-39567
Y7874
Y6693
Y5709
X-39370Y3937
X-37205Y5709
Y6693
Y7874
Y8858
X-34843
Y7874
Y5709
X-32480
X-31496Y3937
X-35433
X-32480Y8858
X-31496Y11811
X-32480Y13583
X-34843
Y15748
Y16732
X-37205
Y15748
Y14567
Y13583
X-39567
Y14567
Y15748
Y16732
X-41929
Y15748
Y14567
Y13583
X-44291
Y14567
Y15748
Y16732
X-46654
Y15748
Y14567
Y13583
X-43307Y11811
X-39370
X-35433
X-32480Y16732
X-43307Y3937
X-30118Y5709
X-27756
X-27559Y3937
X-25394Y5709
Y6693
Y7874
Y8858
X-27756
X-30118
Y13583
X-27756
X-27559Y11811
X-25394Y13583
Y14567
Y15748
Y16732
X-27756
X-30118
X-23031
Y15748
Y14567
Y13583
X-20669
Y14567
Y15748
Y16732
X-18307
Y15748
Y14567
Y13583
X-15945
Y14567
Y15748
Y16732
X-15748Y11811
X-15945Y8858
Y7874
Y6693
X-18307
Y5709
Y7874
Y8858
X-20669
Y7874
Y6693
Y5709
X-23031
Y6693
Y7874
Y8858
X-23622Y11811
X-19685
Y3937
X-23622
X-15591Y3425
X-15582Y4519
X-11890Y4213
X-10827Y3937
X-9843
X-9449Y4173
X-10039Y4528
X-11024Y4843
X-12185Y5728
X-13169Y6319
X-12598Y7283
X-11614
X-10236Y7087
Y7874
X-9252
X-8465Y7087
X-7480
Y7874
X-7677Y9646
X-9843
X-11024Y8543
X-13780Y8858
X-13583Y14567
X-13169Y14193
X-12185Y13602
X-13583Y15748
Y16732
X-11024Y16417
X-9252Y15748
Y14764
X-8268
Y15748
X-7874Y17323
X-9252
X-8268Y12402
X-4921Y12598
X-2953Y11220
X-3543Y14764
X-3740Y15748
X-984
Y14173
X-4134Y7480
X-6693Y4724
X-7087Y2323
X-9843Y2953
X-10827
X-11811
X1161Y3445
X1161Y5610
X1969Y7874
Y8858
Y11811
Y14173
Y15748
X0Y19685
Y21654
X-5906Y22638
Y23622
X-7874Y23425
Y22638
X-9843
Y23425
X-11024Y24291
X-11811Y24606
X-13583Y24606
Y23622
Y22441
X-13169Y22067
X-13583Y21457
X-12185Y21476
X-9843Y19685
X-5906
X-7047Y18504
X-7874Y27559
X-3937
Y31496
X-7874
X-11811
Y27559
X-15945Y24606
Y23622
Y22441
Y21457
X-15748Y19685
X-19685
X-20669Y21457
Y22441
Y23622
Y24606
X-23031
Y23622
Y22441
Y21457
X-25394
Y22441
Y23622
Y24606
X-27756
X-30118
Y21457
X-27756
X-27559Y19685
X-23622
X-18307Y21457
Y22441
Y23622
Y24606
X-19685Y27559
Y31496
X-23622
Y27559
X-27559
Y31496
X-31496
Y27559
X-32480Y24606
X-34843
Y23622
Y21457
X-32480
X-31496Y19685
X-35433
X-37205Y21457
Y22441
Y23622
Y24606
X-39567
Y23622
Y22441
Y21457
X-39370Y19685
X-43307
X-44291Y21457
Y22441
Y23622
Y24606
X-41929
Y23622
Y22441
Y21457
X-46654
Y22441
Y23622
Y24606
X-43307Y27559
Y31496
X-39370
X-35433
Y27559
X-39370
X-47244
X-51181
X-51378Y24606
Y23622
Y22441
Y21457
X-51181Y19685
X-55118
X-53740Y21457
Y22441
Y23622
Y24606
X-55118Y27559
Y31496
X-51181
X-59055
Y27559
Y23622
Y19685
X-47244
X-49016Y21457
Y22441
Y23622
Y24606
X-62992Y23622
Y27559
Y19685
T04
X-2067Y14173
Y16142
X394
Y15157
Y14173
Y24016
Y25000
Y25984
T05
X0Y0
X-16142Y394
X-45669
X-61811Y0
X0Y30315
X-16142Y29921
X-45669
X-61811Y30315
T06
X-7551Y11687
Y12487
X-5551Y12087
M30
